<?xml version="1.0" standalone="no"?>
<!DOCTYPE svg PUBLIC "-//W3C//DTD SVG 1.1//EN"
  "http://www.w3.org/Graphics/SVG/1.1/DTD/svg11.dtd">
<svg width="102mm" height="101.99999999999997mm" viewBox="-54 -65.99999999999999 102 101.99999999999997" xmlns="http://www.w3.org/2000/svg" version="1.1">
	<title>svgOutput</title>
	<desc>made with tinkercad</desc>
<path d="M 44 -64.99999999999999 L 44 -61.999999999999986 L 44 -55.499999999999986 L 47 -55.499999999999986 L 47 -46.49999999999999 L 44 -46.49999999999999 L 44 -37.49999999999999 L 47 -37.49999999999999 L 47 -32.76800155639648 L 47 -28.499999999999993 L 44 -28.499999999999993 L 44 -19.499999999999996 L 47 -19.499999999999996 L 47 -10.499999999999998 L 44 -10.499999999999998 L 44 -1.4999999999999996 L 47 -1.4999999999999996 L 47 1.1102230246251565e-16 L 47 7.499999999999998 L 44 7.499999999999998 L 44 16.499999999999996 L 47 16.499999999999996 L 47 25.499999999999993 L 44 25.499999999999993 L 44 34.99999999999999 L 38.00299835205078 34.99999999999999 L 37.5 34.99999999999999 L 37.5 31.999999999999993 L 28.5 31.999999999999993 L 28.5 34.99999999999999 L 19.99799919128418 34.99999999999999 L 19.5 34.99999999999999 L 19.5 31.999999999999993 L 10.5 31.999999999999993 L 10.5 34.99999999999999 L 6 34.99999999999999 L 1.5 34.99999999999999 L 1.5 31.999999999999993 L 0 31.999999999999993 L -7.5 31.999999999999993 L -7.5 34.99999999999999 L -14 34.99999999999999 L -16.5 34.99999999999999 L -16.5 31.999999999999993 L -25.5 31.999999999999993 L -25.5 34.99999999999999 L -34.5 34.99999999999999 L -34.5 31.999999999999993 L -38.00299835205078 31.999999999999993 L -43.5 31.999999999999993 L -43.5 34.99999999999999 L -50 34.99999999999999 L -50 31.999999999999993 L -50 25.499999999999993 L -53 25.499999999999993 L -53 16.499999999999996 L -50 16.499999999999996 L -50 7.499999999999998 L -53 7.499999999999998 L -53 1.1102230246251565e-16 L -53 -1.4999999999999996 L -50 -1.4999999999999996 L -50 -10.499999999999998 L -53 -10.499999999999998 L -53 -19.499999999999996 L -50 -19.499999999999996 L -50 -28.499999999999993 L -53 -28.499999999999993 L -53 -32.76800155639648 L -53 -37.49999999999999 L -50 -37.49999999999999 L -50 -46.49999999999999 L -53 -46.49999999999999 L -53 -55.499999999999986 L -50 -55.499999999999986 L -50 -64.99999999999999 L -43.5 -64.99999999999999 L -43.5 -61.999999999999986 L -34.5 -61.999999999999986 L -34.5 -64.99999999999999 L -25.5 -64.99999999999999 L -25.5 -61.999999999999986 L -16.5 -61.999999999999986 L -16.5 -64.99999999999999 L -14 -64.99999999999999 L -7.5 -64.99999999999999 L -7.5 -61.999999999999986 L 0 -61.999999999999986 L 1.5 -61.999999999999986 L 1.5 -64.99999999999999 L 6 -64.99999999999999 L 10.5 -64.99999999999999 L 10.5 -61.999999999999986 L 19.5 -61.999999999999986 L 19.5 -64.99999999999999 L 28.5 -64.99999999999999 L 28.5 -61.999999999999986 L 37.5 -61.999999999999986 L 37.5 -64.99999999999999 L 44 -64.99999999999999 M 28.5 15.998000144958493 L 19.99799919128418 15.998000144958493 L 19.99799919128418 28.003000259399407 L 28.5 28.003000259399407 L 37.5 28.003000259399407 L 38.00299835205078 28.003000259399407 L 38.00299835205078 15.998000144958493 L 37.5 15.998000144958493 L 28.5 15.998000144958493 M -25.99799919128418 29.003000259399407 L -25.99799919128418 25.499999999999993 L -25.99799919128418 21.997999191284176 L -38.00299835205078 21.997999191284176 L -38.00299835205078 25.499999999999993 L -38.00299835205078 29.003000259399407 L -25.99799919128418 29.003000259399407 z" fill="none" stroke="rgb(255,0,0)" stroke-width="0.001mm" />
</svg>