<?xml version="1.0" standalone="no"?>
<!DOCTYPE svg PUBLIC "-//W3C//DTD SVG 1.1//EN"
  "http://www.w3.org/Graphics/SVG/1.1/DTD/svg11.dtd">
<svg width="102mm" height="101.99999999999997mm" viewBox="-51 -50.999999999999986 102 101.99999999999997" xmlns="http://www.w3.org/2000/svg" version="1.1">
	<title>svgOutput</title>
	<desc>made with tinkercad</desc>
<path d="M 50 -13.499999999999996 L 47 -13.499999999999996 L 47 -4.499999999999999 L 50 -4.499999999999999 L 50 1.1102230246251565e-16 L 50 4.499999999999999 L 47 4.499999999999999 L 47 13.499999999999996 L 50 13.499999999999996 L 50 22.499999999999996 L 47 22.499999999999996 L 47 31.499999999999993 L 50 31.499999999999993 L 50 32.76800155639648 L 50 40.49999999999999 L 47 40.49999999999999 L 47 46.99999999999999 L 40.5 46.99999999999999 L 40.5 49.999999999999986 L 31.5 49.999999999999986 L 31.5 46.99999999999999 L 22.5 46.99999999999999 L 22.5 49.999999999999986 L 13.5 49.999999999999986 L 13.5 46.99999999999999 L 4.5 46.99999999999999 L 4.5 49.999999999999986 L 0 49.999999999999986 L -4.5 49.999999999999986 L -4.5 46.99999999999999 L -13.5 46.99999999999999 L -13.5 49.999999999999986 L -22.5 49.999999999999986 L -22.5 46.99999999999999 L -31.5 46.99999999999999 L -31.5 49.999999999999986 L -40.5 49.999999999999986 L -40.5 46.99999999999999 L -47 46.99999999999999 L -47 40.49999999999999 L -50 40.49999999999999 L -50 32.76800155639648 L -50 31.499999999999993 L -47 31.499999999999993 L -47 22.499999999999996 L -50 22.499999999999996 L -50 13.499999999999996 L -47 13.499999999999996 L -47 4.499999999999999 L -50 4.499999999999999 L -50 1.1102230246251565e-16 L -50 -4.499999999999999 L -47 -4.499999999999999 L -47 -13.499999999999996 L -50 -13.499999999999996 L -50 -22.499999999999996 L -47 -22.499999999999996 L -47 -31.499999999999993 L -50 -31.499999999999993 L -50 -32.76800155639648 L -50 -40.49999999999999 L -47 -40.49999999999999 L -47 -46.99999999999999 L -42.00299835205078 -46.99999999999999 L -40.5 -46.99999999999999 L -40.5 -49.999999999999986 L -38.99800109863281 -49.999999999999986 L -31.5 -49.999999999999986 L -31.5 -46.99999999999999 L -22.5 -46.99999999999999 L -22.5 -49.999999999999986 L -13.5 -49.999999999999986 L -13.5 -46.99999999999999 L -4.5 -46.99999999999999 L -4.5 -49.999999999999986 L 0 -49.999999999999986 L 4.5 -49.999999999999986 L 4.5 -46.99999999999999 L 13.5 -46.99999999999999 L 13.5 -49.999999999999986 L 22.5 -49.999999999999986 L 22.5 -46.99999999999999 L 24.99799919128418 -46.99999999999999 L 28.003000259399414 -46.99999999999999 L 31.5 -46.99999999999999 L 31.5 -49.999999999999986 L 40.5 -49.999999999999986 L 40.5 -46.99999999999999 L 47 -46.99999999999999 L 47 -40.49999999999999 L 50 -40.49999999999999 L 50 -32.76800155639648 L 50 -31.499999999999993 L 47 -31.499999999999993 L 47 -22.499999999999996 L 50 -22.499999999999996 L 50 -13.499999999999996 M 26.304000854492188 -39.009998321533196 L 26.5 -38.998001098632805 L 26.624000549316406 -39.0055923461914 L 26.695999145507812 -39.009998321533196 L 26.888999938964844 -39.048999786376946 L 27.075000762939453 -39.11199951171874 L 27.250999450683594 -39.19900131225585 L 27.415000915527344 -39.307998657226555 L 27.562000274658203 -39.43799972534179 L 27.691999435424805 -39.58499908447265 L 27.801000595092773 -39.7490005493164 L 27.88800048828125 -39.92499923706054 L 27.891725540161133 -39.9360008239746 L 27.951000213623047 -40.11100006103515 L 27.989999771118164 -40.30400085449218 L 28.003000259399414 -40.49999999999999 L 27.989999771118164 -40.695999145507805 L 27.951000213623047 -40.88899993896484 L 27.926952362060547 -40.95999908447265 L 27.88800048828125 -41.075000762939446 L 27.801000595092773 -41.25099945068359 L 27.691999435424805 -41.41500091552734 L 27.562000274658203 -41.562000274658196 L 27.415000915527344 -41.69200134277343 L 27.250999450683594 -41.80099868774413 L 27.075000762939453 -41.88800048828124 L 26.888999938964844 -41.95100021362304 L 26.695999145507812 -41.99000167846679 L 26.624000549316406 -41.99477386474609 L 26.5 -42.002998352050774 L 26.304000854492188 -41.99000167846679 L 26.111000061035156 -41.95100021362304 L 25.924999237060547 -41.88800048828124 L 25.749000549316406 -41.80099868774413 L 25.584999084472656 -41.69200134277343 L 25.437999725341797 -41.562000274658196 L 25.308000564575195 -41.41500091552734 L 25.198999404907227 -41.25099945068359 L 25.11199951171875 -41.075000762939446 L 25.073047637939453 -40.95999908447265 L 25.048999786376953 -40.88899993896484 L 25.010000228881836 -40.695999145507805 L 24.99799919128418 -40.49999999999999 L 25.010000228881836 -40.30400085449218 L 25.048999786376953 -40.11100006103515 L 25.108274459838867 -39.9360008239746 L 25.11199951171875 -39.92499923706054 L 25.198999404907227 -39.7490005493164 L 25.308000564575195 -39.58499908447265 L 25.437999725341797 -39.43799972534179 L 25.584999084472656 -39.307998657226555 L 25.749000549316406 -39.19900131225585 L 25.924999237060547 -39.11199951171874 L 26.111000061035156 -39.048999786376946 L 26.304000854492188 -39.009998321533196 M -41.9900016784668 -40.695999145507805 L -42.00299835205078 -40.49999999999999 L -41.9900016784668 -40.30400085449218 L -41.95100021362305 -40.11100006103515 L -41.88800048828125 -39.92499923706054 L -41.80099868774414 -39.7490005493164 L -41.69200134277344 -39.58499908447265 L -41.5620002746582 -39.43799972534179 L -41.415000915527344 -39.307998657226555 L -41.250999450683594 -39.19900131225585 L -41.07500076293945 -39.11199951171874 L -40.959999084472656 -39.073047637939446 L -40.888999938964844 -39.048999786376946 L -40.69599914550781 -39.009998321533196 L -40.5 -38.998001098632805 L -40.30400085449219 -39.009998321533196 L -40.111000061035156 -39.048999786376946 L -39.92499923706055 -39.11199951171874 L -39.749000549316406 -39.19900131225585 L -39.584999084472656 -39.307998657226555 L -39.4379997253418 -39.43799972534179 L -39.30799865722656 -39.58499908447265 L -39.19900131225586 -39.7490005493164 L -39.11199951171875 -39.92499923706054 L -39.108272552490234 -39.9360008239746 L -39.04899978637695 -40.11100006103515 L -39.0099983215332 -40.30400085449218 L -38.99800109863281 -40.49999999999999 L -39.0099983215332 -40.695999145507805 L -39.04899978637695 -40.88899993896484 L -39.07304763793945 -40.95999908447265 L -39.11199951171875 -41.075000762939446 L -39.19900131225586 -41.25099945068359 L -39.30799865722656 -41.41500091552734 L -39.4379997253418 -41.562000274658196 L -39.584999084472656 -41.69200134277343 L -39.749000549316406 -41.80099868774413 L -39.92499923706055 -41.88800048828124 L -40.111000061035156 -41.95100021362304 L -40.30400085449219 -41.99000167846679 L -40.5 -42.002998352050774 L -40.69599914550781 -41.99000167846679 L -40.888999938964844 -41.95100021362304 L -40.959999084472656 -41.92695236206054 L -41.07500076293945 -41.88800048828124 L -41.250999450683594 -41.80099868774413 L -41.415000915527344 -41.69200134277343 L -41.5620002746582 -41.562000274658196 L -41.69200134277344 -41.41500091552734 L -41.80099868774414 -41.25099945068359 L -41.88800048828125 -41.075000762939446 L -41.92695236206055 -40.95999908447265 L -41.95100021362305 -40.88899993896484 L -41.9900016784668 -40.695999145507805 M 26.304000854492188 21.98999977111816 L 26.5 22.00300025939941 L 26.624000549316406 21.994775772094723 L 26.695999145507812 21.98999977111816 L 26.888999938964844 21.951000213623043 L 27.075000762939453 21.888000488281246 L 27.250999450683594 21.80100059509277 L 27.415000915527344 21.6919994354248 L 27.562000274658203 21.5620002746582 L 27.691999435424805 21.41500091552734 L 27.801000595092773 21.25099945068359 L 27.88800048828125 21.07500076293945 L 27.951000213623047 20.88899993896484 L 27.989999771118164 20.69599914550781 L 28.003000259399414 20.499999999999996 L 28.001672744750977 20.479999542236325 L 27.989999771118164 20.304000854492184 L 27.951000213623047 20.111000061035153 L 27.88800048828125 19.924999237060543 L 27.801000595092773 19.749000549316403 L 27.691999435424805 19.584999084472653 L 27.562000274658203 19.437999725341793 L 27.415000915527344 19.30800056457519 L 27.250999450683594 19.198999404907223 L 27.075000762939453 19.111999511718746 L 26.888999938964844 19.04899978637695 L 26.695999145507812 19.010000228881832 L 26.624000549316406 19.005592346191403 L 26.5 18.997999191284176 L 26.304000854492188 19.010000228881832 L 26.111000061035156 19.04899978637695 L 25.924999237060547 19.111999511718746 L 25.749000549316406 19.198999404907223 L 25.584999084472656 19.30800056457519 L 25.437999725341797 19.437999725341793 L 25.308000564575195 19.584999084472653 L 25.198999404907227 19.749000549316403 L 25.11199951171875 19.924999237060543 L 25.048999786376953 20.111000061035153 L 25.010000228881836 20.304000854492184 L 24.999223709106445 20.479999542236325 L 24.99799919128418 20.499999999999996 L 25.010000228881836 20.69599914550781 L 25.048999786376953 20.88899993896484 L 25.11199951171875 21.07500076293945 L 25.198999404907227 21.25099945068359 L 25.308000564575195 21.41500091552734 L 25.437999725341797 21.5620002746582 L 25.584999084472656 21.6919994354248 L 25.749000549316406 21.80100059509277 L 25.924999237060547 21.888000488281246 L 26.111000061035156 21.951000213623043 L 26.304000854492188 21.98999977111816 M -41.07500076293945 21.888000488281246 L -40.959999084472656 21.926952362060543 L -40.888999938964844 21.951000213623043 L -40.69599914550781 21.98999977111816 L -40.5 22.00300025939941 L -40.30400085449219 21.98999977111816 L -40.111000061035156 21.951000213623043 L -39.93600082397461 21.89172554016113 L -39.92499923706055 21.888000488281246 L -39.749000549316406 21.80100059509277 L -39.584999084472656 21.6919994354248 L -39.4379997253418 21.5620002746582 L -39.30799865722656 21.41500091552734 L -39.19900131225586 21.25099945068359 L -39.11199951171875 21.07500076293945 L -39.04899978637695 20.88899993896484 L -39.0099983215332 20.69599914550781 L -38.99800109863281 20.499999999999996 L -38.99922561645508 20.479999542236325 L -39.0099983215332 20.304000854492184 L -39.04899978637695 20.111000061035153 L -39.11199951171875 19.924999237060543 L -39.19900131225586 19.749000549316403 L -39.30799865722656 19.584999084472653 L -39.4379997253418 19.437999725341793 L -39.584999084472656 19.30800056457519 L -39.749000549316406 19.198999404907223 L -39.92499923706055 19.111999511718746 L -39.93600082397461 19.108274459838864 L -40.111000061035156 19.04899978637695 L -40.30400085449219 19.010000228881832 L -40.5 18.997999191284176 L -40.69599914550781 19.010000228881832 L -40.888999938964844 19.04899978637695 L -40.959999084472656 19.07304763793945 L -41.07500076293945 19.111999511718746 L -41.250999450683594 19.198999404907223 L -41.415000915527344 19.30800056457519 L -41.5620002746582 19.437999725341793 L -41.69200134277344 19.584999084472653 L -41.80099868774414 19.749000549316403 L -41.88800048828125 19.924999237060543 L -41.95100021362305 20.111000061035153 L -41.9900016784668 20.304000854492184 L -42.00167465209961 20.479999542236325 L -42.00299835205078 20.499999999999996 L -41.9900016784668 20.69599914550781 L -41.95100021362305 20.88899993896484 L -41.88800048828125 21.07500076293945 L -41.80099868774414 21.25099945068359 L -41.69200134277344 21.41500091552734 L -41.5620002746582 21.5620002746582 L -41.415000915527344 21.6919994354248 L -41.250999450683594 21.80100059509277 L -41.07500076293945 21.888000488281246 z" fill="none" stroke="rgb(255,0,0)" stroke-width="0.001mm" />
</svg>