<?xml version="1.0" standalone="no"?>
<!DOCTYPE svg PUBLIC "-//W3C//DTD SVG 1.1//EN"
  "http://www.w3.org/Graphics/SVG/1.1/DTD/svg11.dtd">
<svg width="102mm" height="101.99999999999997mm" viewBox="-51 -50.999999999999986 102 101.99999999999997" xmlns="http://www.w3.org/2000/svg" version="1.1">
	<title>svgOutput</title>
	<desc>made with tinkercad</desc>
<path d="M 31.5 -49.999999999999986 L 31.5 -46.99999999999999 L 40.5 -46.99999999999999 L 40.5 -49.999999999999986 L 47 -49.999999999999986 L 47 -46.99999999999999 L 47 -40.49999999999999 L 50 -40.49999999999999 L 50 -32.76800155639648 L 50 -31.499999999999993 L 47 -31.499999999999993 L 47 -22.499999999999996 L 50 -22.499999999999996 L 50 -13.499999999999996 L 47 -13.499999999999996 L 47 -4.499999999999999 L 50 -4.499999999999999 L 50 1.1102230246251565e-16 L 50 4.499999999999999 L 47 4.499999999999999 L 47 13.499999999999996 L 50 13.499999999999996 L 50 22.499999999999996 L 47 22.499999999999996 L 47 31.499999999999993 L 50 31.499999999999993 L 50 32.76800155639648 L 50 40.49999999999999 L 47 40.49999999999999 L 47 49.999999999999986 L 40.5 49.999999999999986 L 40.5 46.99999999999999 L 31.5 46.99999999999999 L 31.5 49.999999999999986 L 22.5 49.999999999999986 L 22.5 46.99999999999999 L 13.5 46.99999999999999 L 13.5 49.999999999999986 L 12 49.999999999999986 L 4.5 49.999999999999986 L 4.5 46.99999999999999 L 0 46.99999999999999 L -4.5 46.99999999999999 L -4.5 49.999999999999986 L -8 49.999999999999986 L -13.5 49.999999999999986 L -13.5 46.99999999999999 L -22.5 46.99999999999999 L -22.5 49.999999999999986 L -31.5 49.999999999999986 L -31.5 46.99999999999999 L -40.00299835205078 46.99999999999999 L -40.5 46.99999999999999 L -40.5 49.999999999999986 L -47 49.999999999999986 L -47 46.99999999999999 L -47 40.49999999999999 L -50 40.49999999999999 L -50 32.76800155639648 L -50 31.499999999999993 L -47 31.499999999999993 L -47 22.499999999999996 L -50 22.499999999999996 L -50 13.499999999999996 L -47 13.499999999999996 L -47 4.499999999999999 L -50 4.499999999999999 L -50 1.1102230246251565e-16 L -50 -4.499999999999999 L -47 -4.499999999999999 L -47 -13.499999999999996 L -50 -13.499999999999996 L -50 -22.499999999999996 L -47 -22.499999999999996 L -47 -31.499999999999993 L -50 -31.499999999999993 L -50 -32.76800155639648 L -50 -40.49999999999999 L -47 -40.49999999999999 L -47 -49.999999999999986 L -40.5 -49.999999999999986 L -40.5 -46.99999999999999 L -31.5 -46.99999999999999 L -31.5 -49.999999999999986 L -22.5 -49.999999999999986 L -22.5 -46.99999999999999 L -13.5 -46.99999999999999 L -13.5 -49.999999999999986 L -8 -49.999999999999986 L -4.5 -49.999999999999986 L -4.5 -46.99999999999999 L 0 -46.99999999999999 L 4.5 -46.99999999999999 L 4.5 -49.999999999999986 L 12 -49.999999999999986 L 13.5 -49.999999999999986 L 13.5 -46.99999999999999 L 22.5 -46.99999999999999 L 22.5 -49.999999999999986 L 31.5 -49.999999999999986 M 12.192000389099121 -21.98500061035156 L 12.288000106811523 -22.129440307617184 L 12.300999641418457 -22.149000167846676 L 12.387999534606934 -22.32500076293945 L 12.451000213623047 -22.510999679565426 L 12.454435348510742 -22.527999877929684 L 12.489999771118164 -22.704000473022457 L 12.503000259399414 -22.89999961853027 L 12.489999771118164 -23.096000671386715 L 12.451000213623047 -23.288999557495114 L 12.387999534606934 -23.475000381469723 L 12.300999641418457 -23.650999069213864 L 12.288000106811523 -23.670558929443356 L 12.192000389099121 -23.815000534057614 L 12.062000274658203 -23.961999893188473 L 12 -24.01683044433593 L 11.914999961853027 -24.09199905395507 L 11.75100040435791 -24.20100021362304 L 11.574999809265137 -24.288000106811516 L 11.388999938964844 -24.350999832153313 L 11.196000099182129 -24.38999938964843 L 11 -24.40299987792968 L 10.803999900817871 -24.38999938964843 L 10.611000061035156 -24.350999832153313 L 10.425000190734863 -24.288000106811516 L 10.24899959564209 -24.20100021362304 L 10.239999771118164 -24.19501876831054 L 10.085000038146973 -24.09199905395507 L 9.937999725341797 -23.961999893188473 L 9.807999610900879 -23.815000534057614 L 9.699000358581543 -23.650999069213864 L 9.612000465393066 -23.475000381469723 L 9.548999786376953 -23.288999557495114 L 9.510000228881836 -23.096000671386715 L 9.498000144958496 -22.89999961853027 L 9.510000228881836 -22.704000473022457 L 9.545564651489258 -22.527999877929684 L 9.548999786376953 -22.510999679565426 L 9.612000465393066 -22.32500076293945 L 9.699000358581543 -22.149000167846676 L 9.807999610900879 -21.98500061035156 L 9.937999725341797 -21.837999343872067 L 10.085000038146973 -21.708000183105465 L 10.239999771118164 -21.60498237609863 L 10.24899959564209 -21.59900093078613 L 10.425000190734863 -21.51199913024902 L 10.611000061035156 -21.448999404907223 L 10.803999900817871 -21.409999847412106 L 11 -21.398000717163082 L 11.196000099182129 -21.409999847412106 L 11.388999938964844 -21.448999404907223 L 11.574999809265137 -21.51199913024902 L 11.75100040435791 -21.59900093078613 L 11.914999961853027 -21.708000183105465 L 12 -21.78317070007324 L 12.062000274658203 -21.837999343872067 L 12.192000389099121 -21.98500061035156 M 12 -1.0168299674987789 L 11.914999961853027 -1.092000007629394 L 11.75100040435791 -1.2009999752044673 L 11.574999809265137 -1.2879999876022334 L 11.388999938964844 -1.3509999513626094 L 11.196000099182129 -1.3899999856948848 L 11 -1.4029999971389766 L 10.803999900817871 -1.3899999856948848 L 10.611000061035156 -1.3509999513626094 L 10.425000190734863 -1.2879999876022334 L 10.24899959564209 -1.2009999752044673 L 10.239999771118164 -1.1950182914733882 L 10.085000038146973 -1.092000007629394 L 9.937999725341797 -0.9620000123977658 L 9.807999610900879 -0.8149999976158139 L 9.699000358581543 -0.6510000228881834 L 9.612000465393066 -0.4749999940395353 L 9.548999786376953 -0.28900000452995284 L 9.510000228881836 -0.09600000083446489 L 9.504122734069824 1.1102230246251565e-16 L 9.498000144958496 0.1000000014901162 L 9.510000228881836 0.2960000038146973 L 9.548999786376953 0.48899999260902405 L 9.612000465393066 0.675000011920929 L 9.699000358581543 0.8510000109672545 L 9.807999610900879 1.0149999856948853 L 9.937999725341797 1.1619999408721924 L 10.085000038146973 1.2920000553131104 L 10.239999771118164 1.3950183391571045 L 10.24899959564209 1.4010000228881836 L 10.425000190734863 1.4880000352859497 L 10.611000061035156 1.5509999990463252 L 10.803999900817871 1.5900000333786006 L 11 1.6030000448226924 L 11.196000099182129 1.5900000333786006 L 11.388999938964844 1.5509999990463252 L 11.574999809265137 1.4880000352859497 L 11.75100040435791 1.4010000228881836 L 11.914999961853027 1.2920000553131104 L 12 1.2168298959732056 L 12.062000274658203 1.1619999408721924 L 12.192000389099121 1.0149999856948853 L 12.288000106811523 0.8705596327781676 L 12.300999641418457 0.8510000109672545 L 12.387999534606934 0.675000011920929 L 12.451000213623047 0.48899999260902405 L 12.489999771118164 0.2960000038146973 L 12.503000259399414 0.1000000014901162 L 12.496367454528809 1.1102230246251565e-16 L 12.489999771118164 -0.09600000083446489 L 12.451000213623047 -0.28900000452995284 L 12.387999534606934 -0.4749999940395353 L 12.300999641418457 -0.6510000228881834 L 12.288000106811523 -0.6705596446990965 L 12.192000389099121 -0.8149999976158139 L 12.062000274658203 -0.9620000123977658 L 12 -1.0168299674987789 M 39.54971694946289 22.499999999999996 L 39.525001525878906 22.37599945068359 L 38.9370002746582 20.64100074768066 L 38.12699890136719 18.999000549316403 L 37.10900115966797 17.475999832153317 L 35.9010009765625 16.09900093078613 L 34.52399826049805 14.890999794006344 L 33.000999450683594 13.873000144958493 L 32.768001556396484 13.758060455322262 L 31.358999252319336 13.062999725341793 L 29.624000549316406 12.475000381469723 L 27.827999114990234 12.116999626159664 L 26 11.998000144958494 L 24.172000885009766 12.116999626159664 L 22.375999450683594 12.475000381469723 L 20.641000747680664 13.062999725341793 L 18.999000549316406 13.873000144958493 L 17.47599983215332 14.890999794006344 L 16.099000930786133 16.09900093078613 L 15.848978042602539 16.38400077819824 L 14.890999794006348 17.475999832153317 L 13.873000144958496 18.999000549316403 L 13.062999725341797 20.64100074768066 L 12.475000381469727 22.37599945068359 L 12.116999626159668 24.17200088500976 L 12 25.96927642822265 L 11.998000144958496 25.999999999999993 L 12 26.030723571777337 L 12.116999626159668 27.827999114990227 L 12.475000381469727 29.6240005493164 L 13.062999725341797 31.35899925231933 L 13.758060455322266 32.76800155639648 L 13.873000144958496 33.00099945068359 L 14.890999794006348 34.52399826049804 L 16.099000930786133 35.90100097656249 L 17.47599983215332 37.10900115966796 L 18.999000549316406 38.12699890136718 L 20.641000747680664 38.937000274658196 L 22.375999450683594 39.5250015258789 L 22.5 39.54971694946288 L 24.172000885009766 39.88299942016601 L 26 40.002998352050774 L 27.827999114990234 39.88299942016601 L 29.624000549316406 39.5250015258789 L 31.358999252319336 38.937000274658196 L 31.5 38.86744308471679 L 32.768001556396484 38.24193954467773 L 33.000999450683594 38.12699890136718 L 34.52399826049805 37.10900115966796 L 35.9010009765625 35.90100097656249 L 37.10900115966797 34.52399826049804 L 38.12699890136719 33.00099945068359 L 38.241939544677734 32.76800155639648 L 38.9370002746582 31.35899925231933 L 39.525001525878906 29.6240005493164 L 39.882999420166016 27.827999114990227 L 40.00299835205078 25.999999999999993 L 39.882999420166016 24.17200088500976 L 39.54971694946289 22.499999999999996 M -12.447274208068848 -22.499999999999996 L -12.387999534606934 -22.32500076293945 L -12.300999641418457 -22.149000167846676 L -12.288000106811523 -22.129440307617184 L -12.192000389099121 -21.98500061035156 L -12.062000274658203 -21.837999343872067 L -11.914999961853027 -21.708000183105465 L -11.75100040435791 -21.59900093078613 L -11.574999809265137 -21.51199913024902 L -11.388999938964844 -21.448999404907223 L -11.196000099182129 -21.409999847412106 L -11 -21.398000717163082 L -10.803999900817871 -21.409999847412106 L -10.611000061035156 -21.448999404907223 L -10.425000190734863 -21.51199913024902 L -10.24899959564209 -21.59900093078613 L -10.239999771118164 -21.60498237609863 L -10.085000038146973 -21.708000183105465 L -9.937999725341797 -21.837999343872067 L -9.807999610900879 -21.98500061035156 L -9.699000358581543 -22.149000167846676 L -9.612000465393066 -22.32500076293945 L -9.552725791931152 -22.499999999999996 L -9.548999786376953 -22.510999679565426 L -9.545564651489258 -22.527999877929684 L -9.510000228881836 -22.704000473022457 L -9.498000144958496 -22.89999961853027 L -9.510000228881836 -23.096000671386715 L -9.548999786376953 -23.288999557495114 L -9.612000465393066 -23.475000381469723 L -9.699000358581543 -23.650999069213864 L -9.807999610900879 -23.815000534057614 L -9.937999725341797 -23.961999893188473 L -10.085000038146973 -24.09199905395507 L -10.239999771118164 -24.19501876831054 L -10.24899959564209 -24.20100021362304 L -10.425000190734863 -24.288000106811516 L -10.611000061035156 -24.350999832153313 L -10.803999900817871 -24.38999938964843 L -11 -24.40299987792968 L -11.196000099182129 -24.38999938964843 L -11.388999938964844 -24.350999832153313 L -11.574999809265137 -24.288000106811516 L -11.75100040435791 -24.20100021362304 L -11.914999961853027 -24.09199905395507 L -12.062000274658203 -23.961999893188473 L -12.192000389099121 -23.815000534057614 L -12.288000106811523 -23.670558929443356 L -12.300999641418457 -23.650999069213864 L -12.387999534606934 -23.475000381469723 L -12.451000213623047 -23.288999557495114 L -12.489999771118164 -23.096000671386715 L -12.503000259399414 -22.89999961853027 L -12.489999771118164 -22.704000473022457 L -12.454435348510742 -22.527999877929684 L -12.451000213623047 -22.510999679565426 L -12.447274208068848 -22.499999999999996 M -12.503000259399414 -6.998000144958494 L -8 -6.998000144958494 L 9.498000144958496 -6.998000144958494 L 12 -6.998000144958494 L 12.503000259399414 -6.998000144958494 L 12.503000259399414 -20.00300025939941 L 12 -20.00300025939941 L 9.498000144958496 -20.00300025939941 L 0 -20.00300025939941 L -8 -20.00300025939941 L -12.503000259399414 -20.00300025939941 L -12.503000259399414 -13.499999999999996 L -12.503000259399414 -6.998000144958494 M -12.489999771118164 -0.09600000083446489 L -12.496367454528809 1.1102230246251565e-16 L -12.503000259399414 0.1000000014901162 L -12.489999771118164 0.2960000038146973 L -12.451000213623047 0.48899999260902405 L -12.387999534606934 0.675000011920929 L -12.300999641418457 0.8510000109672545 L -12.288000106811523 0.8705596327781676 L -12.192000389099121 1.0149999856948853 L -12.062000274658203 1.1619999408721924 L -11.998000144958496 1.2185986042022705 L -11.914999961853027 1.2920000553131104 L -11.75100040435791 1.4010000228881836 L -11.574999809265137 1.4880000352859497 L -11.388999938964844 1.5509999990463252 L -11.196000099182129 1.5900000333786006 L -11 1.6030000448226924 L -10.803999900817871 1.5900000333786006 L -10.611000061035156 1.5509999990463252 L -10.425000190734863 1.4880000352859497 L -10.24899959564209 1.4010000228881836 L -10.239999771118164 1.3950183391571045 L -10.085000038146973 1.2920000553131104 L -9.937999725341797 1.1619999408721924 L -9.807999610900879 1.0149999856948853 L -9.699000358581543 0.8510000109672545 L -9.612000465393066 0.675000011920929 L -9.548999786376953 0.48899999260902405 L -9.510000228881836 0.2960000038146973 L -9.498000144958496 0.1000000014901162 L -9.504122734069824 1.1102230246251565e-16 L -9.510000228881836 -0.09600000083446489 L -9.548999786376953 -0.28900000452995284 L -9.612000465393066 -0.4749999940395353 L -9.699000358581543 -0.6510000228881834 L -9.807999610900879 -0.8149999976158139 L -9.937999725341797 -0.9620000123977658 L -10.085000038146973 -1.092000007629394 L -10.239999771118164 -1.1950182914733882 L -10.24899959564209 -1.2009999752044673 L -10.425000190734863 -1.2879999876022334 L -10.611000061035156 -1.3509999513626094 L -10.803999900817871 -1.3899999856948848 L -11 -1.4029999971389766 L -11.196000099182129 -1.3899999856948848 L -11.388999938964844 -1.3509999513626094 L -11.574999809265137 -1.2879999876022334 L -11.75100040435791 -1.2009999752044673 L -11.914999961853027 -1.092000007629394 L -12.062000274658203 -0.9620000123977658 L -12.192000389099121 -0.8149999976158139 L -12.288000106811523 -0.6705596446990965 L -12.300999641418457 -0.6510000228881834 L -12.387999534606934 -0.4749999940395353 L -12.451000213623047 -0.28900000452995284 L -12.489999771118164 -0.09600000083446489 M -32.244869232177734 13.499999999999996 L -32.768001556396484 13.758060455322262 L -33.000999450683594 13.873000144958493 L -34.52399826049805 14.890999794006344 L -35.9010009765625 16.09900093078613 L -37.10900115966797 17.475999832153317 L -38.12699890136719 18.999000549316403 L -38.9370002746582 20.64100074768066 L -39.525001525878906 22.37599945068359 L -39.54971694946289 22.499999999999996 L -39.882999420166016 24.17200088500976 L -40.00299835205078 25.999999999999993 L -39.882999420166016 27.827999114990227 L -39.525001525878906 29.6240005493164 L -38.9370002746582 31.35899925231933 L -38.8674430847168 31.499999999999993 L -38.241939544677734 32.76800155639648 L -38.12699890136719 33.00099945068359 L -37.10900115966797 34.52399826049804 L -35.9010009765625 35.90100097656249 L -34.52399826049805 37.10900115966796 L -33.000999450683594 38.12699890136718 L -32.768001556396484 38.24193954467773 L -31.358999252319336 38.937000274658196 L -29.624000549316406 39.5250015258789 L -27.827999114990234 39.88299942016601 L -26 40.002998352050774 L -24.172000885009766 39.88299942016601 L -22.375999450683594 39.5250015258789 L -20.641000747680664 38.937000274658196 L -18.999000549316406 38.12699890136718 L -17.47599983215332 37.10900115966796 L -16.099000930786133 35.90100097656249 L -14.890999794006348 34.52399826049804 L -13.873000144958496 33.00099945068359 L -13.758060455322266 32.76800155639648 L -13.13255500793457 31.499999999999993 L -13.062999725341797 31.35899925231933 L -12.475000381469727 29.6240005493164 L -12.116999626159668 27.827999114990227 L -11.998000144958496 25.999999999999993 L -12.116999626159668 24.17200088500976 L -12.45028305053711 22.499999999999996 L -12.475000381469727 22.37599945068359 L -13.062999725341797 20.64100074768066 L -13.873000144958496 18.999000549316403 L -14.890999794006348 17.475999832153317 L -15.848978042602539 16.38400077819824 L -16.099000930786133 16.09900093078613 L -17.47599983215332 14.890999794006344 L -18.999000549316406 13.873000144958493 L -19.755130767822266 13.499999999999996 L -20.641000747680664 13.062999725341793 L -22.375999450683594 12.475000381469723 L -24.172000885009766 12.116999626159664 L -26 11.998000144958494 L -27.827999114990234 12.116999626159664 L -29.624000549316406 12.475000381469723 L -31.358999252319336 13.062999725341793 L -32.244869232177734 13.499999999999996 z" fill="none" stroke="rgb(255,0,0)" stroke-width="0.001mm" />
</svg>