<?xml version="1.0" standalone="no"?>
<!DOCTYPE svg PUBLIC "-//W3C//DTD SVG 1.1//EN"
  "http://www.w3.org/Graphics/SVG/1.1/DTD/svg11.dtd">
<svg width="102mm" height="101.99999999999997mm" viewBox="-51 -50.999999999999986 102 101.99999999999997" xmlns="http://www.w3.org/2000/svg" version="1.1">
	<title>svgOutput</title>
	<desc>made with tinkercad</desc>
<path d="M 50 -40.49999999999999 L 47 -40.49999999999999 L 47 -32.76800155639648 L 47 -31.499999999999993 L 50 -31.499999999999993 L 50 -22.499999999999996 L 47 -22.499999999999996 L 47 -13.499999999999996 L 50 -13.499999999999996 L 50 -4.499999999999999 L 47 -4.499999999999999 L 47 1.1102230246251565e-16 L 47 4.499999999999999 L 50 4.499999999999999 L 50 13.499999999999996 L 47 13.499999999999996 L 47 22.499999999999996 L 50 22.499999999999996 L 50 31.499999999999993 L 47 31.499999999999993 L 47 32.76800155639648 L 47 40.49999999999999 L 50 40.49999999999999 L 50 49.999999999999986 L 40.5 49.999999999999986 L 40.5 46.99999999999999 L 31.5 46.99999999999999 L 31.5 49.999999999999986 L 22.5 49.999999999999986 L 22.5 46.99999999999999 L 18 46.99999999999999 L 13.5 46.99999999999999 L 13.5 49.999999999999986 L 4.5 49.999999999999986 L 4.5 46.99999999999999 L 0 46.99999999999999 L -4.5 46.99999999999999 L -4.5 49.999999999999986 L -13.5 49.999999999999986 L -13.5 46.99999999999999 L -15 46.99999999999999 L -22.5 46.99999999999999 L -22.5 49.999999999999986 L -31.5 49.999999999999986 L -31.5 46.99999999999999 L -40.5 46.99999999999999 L -40.5 49.999999999999986 L -47 49.999999999999986 L -50 49.999999999999986 L -50 40.49999999999999 L -47 40.49999999999999 L -47 32.76800155639648 L -47 31.499999999999993 L -50 31.499999999999993 L -50 22.499999999999996 L -47 22.499999999999996 L -47 13.499999999999996 L -50 13.499999999999996 L -50 4.499999999999999 L -47 4.499999999999999 L -47 1.1102230246251565e-16 L -47 -4.499999999999999 L -50 -4.499999999999999 L -50 -13.499999999999996 L -47 -13.499999999999996 L -47 -22.499999999999996 L -50 -22.499999999999996 L -50 -31.499999999999993 L -47 -31.499999999999993 L -47 -32.76800155639648 L -47 -40.49999999999999 L -50 -40.49999999999999 L -50 -46.99999999999999 L -50 -49.999999999999986 L -40.5 -49.999999999999986 L -40.5 -46.99999999999999 L -31.5 -46.99999999999999 L -31.5 -49.999999999999986 L -22.5 -49.999999999999986 L -22.5 -46.99999999999999 L -15 -46.99999999999999 L -13.5 -46.99999999999999 L -13.5 -49.999999999999986 L -4.5 -49.999999999999986 L -4.5 -46.99999999999999 L 0 -46.99999999999999 L 4.5 -46.99999999999999 L 4.5 -49.999999999999986 L 13.5 -49.999999999999986 L 13.5 -46.99999999999999 L 18 -46.99999999999999 L 22.5 -46.99999999999999 L 22.5 -49.999999999999986 L 31.5 -49.999999999999986 L 31.5 -46.99999999999999 L 40.5 -46.99999999999999 L 40.5 -49.999999999999986 L 47 -49.999999999999986 L 50 -49.999999999999986 L 50 -40.49999999999999 z" fill="none" stroke="rgb(255,0,0)" stroke-width="0.001mm" />
</svg>