<?xml version="1.0" standalone="no"?>
<!DOCTYPE svg PUBLIC "-//W3C//DTD SVG 1.1//EN"
  "http://www.w3.org/Graphics/SVG/1.1/DTD/svg11.dtd">
<svg width="102mm" height="101.99999999999997mm" viewBox="-57 -53.999999999999986 102 101.99999999999997" xmlns="http://www.w3.org/2000/svg" version="1.1">
	<title>svgOutput</title>
	<desc>made with tinkercad</desc>
<path d="M 44 -16.499999999999996 L 41 -16.499999999999996 L 41 -7.499999999999998 L 44 -7.499999999999998 L 44 1.1102230246251565e-16 L 44 1.4999999999999996 L 41 1.4999999999999996 L 41 10.499999999999998 L 44 10.499999999999998 L 44 19.499999999999996 L 41 19.499999999999996 L 41 28.499999999999993 L 44 28.499999999999993 L 44 37.49999999999999 L 41 37.49999999999999 L 41 43.99999999999999 L 34.5 43.99999999999999 L 34.5 46.99999999999999 L 25.5 46.99999999999999 L 25.5 43.99999999999999 L 16.5 43.99999999999999 L 16.5 46.99999999999999 L 7.5 46.99999999999999 L 7.5 43.99999999999999 L 0 43.99999999999999 L -1.5 43.99999999999999 L -1.5 46.99999999999999 L -10.5 46.99999999999999 L -10.5 43.99999999999999 L -19.5 43.99999999999999 L -19.5 46.99999999999999 L -28.5 46.99999999999999 L -28.5 43.99999999999999 L -32.768001556396484 43.99999999999999 L -37.5 43.99999999999999 L -37.5 46.99999999999999 L -46.5 46.99999999999999 L -46.5 43.99999999999999 L -53 43.99999999999999 L -53 37.49999999999999 L -56 37.49999999999999 L -56 28.499999999999993 L -53 28.499999999999993 L -53 19.499999999999996 L -56 19.499999999999996 L -56 10.499999999999998 L -53 10.499999999999998 L -53 1.4999999999999996 L -56 1.4999999999999996 L -56 1.1102230246251565e-16 L -56 -7.499999999999998 L -53 -7.499999999999998 L -53 -16.499999999999996 L -56 -16.499999999999996 L -56 -25.499999999999993 L -53 -25.499999999999993 L -53 -34.49999999999999 L -56 -34.49999999999999 L -56 -43.49999999999999 L -53 -43.49999999999999 L -53 -49.999999999999986 L -46.5 -49.999999999999986 L -46.5 -52.999999999999986 L -37.5 -52.999999999999986 L -37.5 -49.999999999999986 L -32.768001556396484 -49.999999999999986 L -28.5 -49.999999999999986 L -28.5 -52.999999999999986 L -19.5 -52.999999999999986 L -19.5 -49.999999999999986 L -10.5 -49.999999999999986 L -10.5 -52.999999999999986 L -1.5 -52.999999999999986 L -1.5 -49.999999999999986 L 0 -49.999999999999986 L 7.5 -49.999999999999986 L 7.5 -52.999999999999986 L 16.5 -52.999999999999986 L 16.5 -49.999999999999986 L 25.5 -49.999999999999986 L 25.5 -52.999999999999986 L 34.5 -52.999999999999986 L 34.5 -49.999999999999986 L 41 -49.999999999999986 L 41 -43.49999999999999 L 44 -43.49999999999999 L 44 -34.49999999999999 L 41 -34.49999999999999 L 41 -25.499999999999993 L 44 -25.499999999999993 L 44 -16.499999999999996 M 35.78642272949219 -16.499999999999996 L 34.65299987792969 -19.839000701904293 L 32.106998443603516 -25.000999450683587 L 31.773672103881836 -25.499999999999993 L 28.90999984741211 -29.787000656127923 L 25.11400032043457 -34.11399841308593 L 24.67400550842285 -34.49999999999999 L 20.78700065612793 -37.9099998474121 L 16.000999450683594 -41.10699844360351 L 11.149206161499023 -43.49999999999999 L 10.83899974822998 -43.65299987792968 L 7.5 -44.78642272949218 L 5.388999938964844 -45.502998352050774 L 0 -46.57488250732421 L -0.25699999928474426 -46.62599945068359 L -1.5 -46.707595825195305 L -6 -47.002998352050774 L -11.743000030517578 -46.62599945068359 L -17.388999938964844 -45.502998352050774 L -19.5 -44.78642272949218 L -22.839000701904297 -43.65299987792968 L -28.000999450683594 -41.10699844360351 L -28.5 -40.77367401123046 L -32.768001556396484 -37.92269134521484 L -32.7869987487793 -37.9099998474121 L -37.11399841308594 -34.11399841308593 L -37.5 -33.67400360107421 L -40.90999984741211 -29.787000656127923 L -44.106998443603516 -25.000999450683587 L -46.5 -20.14920616149902 L -46.65299987792969 -19.839000701904293 L -47.78642272949219 -16.499999999999996 L -48.50299835205078 -14.38899993896484 L -49.625999450683594 -8.743000030517576 L -49.70759582519531 -7.499999999999998 L -50.00299835205078 -2.999999999999999 L -49.80606460571289 1.1102230246251565e-16 L -49.625999450683594 2.7430000305175777 L -48.50299835205078 8.388999938964842 L -47.78642272949219 10.499999999999998 L -46.65299987792969 13.838999748229977 L -44.106998443603516 19.00099945068359 L -43.77367401123047 19.499999999999996 L -40.90999984741211 23.787000656127926 L -37.11399841308594 28.114000320434563 L -36.67400360107422 28.499999999999993 L -32.7869987487793 31.909999847412102 L -32.768001556396484 31.922691345214837 L -28.000999450683594 35.10699844360351 L -22.839000701904297 37.65299987792968 L -17.388999938964844 39.502998352050774 L -11.743000030517578 40.62599945068359 L -6 41.002998352050774 L -0.25699999928474426 40.62599945068359 L 2.653813177240852e-14 40.57488250732421 L 5.388999938964844 39.502998352050774 L 7.5 38.78642272949218 L 10.83899974822998 37.65299987792968 L 16.000999450683594 35.10699844360351 L 16.5 34.77367401123046 L 20.78700065612793 31.909999847412102 L 25.11400032043457 28.114000320434563 L 25.5 27.674005508422844 L 28.90999984741211 23.787000656127926 L 32.106998443603516 19.00099945068359 L 34.5 14.14920616149902 L 34.65299987792969 13.838999748229977 L 35.78642272949219 10.499999999999998 L 36.50299835205078 8.388999938964842 L 37.625999450683594 2.7430000305175777 L 37.70759582519531 1.4999999999999996 L 37.80606460571289 1.1102230246251565e-16 L 38.00299835205078 -2.999999999999999 L 37.625999450683594 -8.743000030517576 L 36.50299835205078 -14.38899993896484 L 35.78642272949219 -16.499999999999996 z" fill="none" stroke="rgb(255,0,0)" stroke-width="0.001mm" />
</svg>