M48
; DRILL file {KiCad 6.0.11+dfsg-1} date Mon 22 Sep 2025 09:10:55 AM CEST
; FORMAT={-:-/ absolute / metric / decimal}
; #@! TF.CreationDate,2025-09-22T09:10:55+02:00
; #@! TF.GenerationSoftware,Kicad,Pcbnew,6.0.11+dfsg-1
; #@! TF.FileFunction,Plated,1,2,PTH
FMAT,2
METRIC
; #@! TA.AperFunction,Plated,PTH,ComponentDrill
T1C0.800
; #@! TA.AperFunction,Plated,PTH,ComponentDrill
T2C1.000
; #@! TA.AperFunction,Plated,PTH,ComponentDrill
T3C1.100
; #@! TA.AperFunction,Plated,PTH,ComponentDrill
T4C1.250
; #@! TA.AperFunction,Plated,PTH,ComponentDrill
T5C1.540
%
G90
G05
T1
X148.574Y-117.275
X148.576Y-126.249
X156.194Y-117.275
X156.196Y-126.249
X161.914Y-117.017
X161.914Y-126.289
X169.534Y-117.017
X169.534Y-126.289
T2
X140.324Y-78.029
X140.324Y-80.569
X147.902Y-72.829
X147.902Y-75.369
X150.484Y-92.009
X150.484Y-94.549
X150.484Y-97.089
X150.484Y-99.629
X155.554Y-71.679
X155.554Y-74.219
X155.554Y-76.759
X155.554Y-79.299
X155.554Y-81.839
X155.554Y-84.379
X155.554Y-86.919
X155.554Y-89.459
X155.554Y-91.999
X155.554Y-94.539
X155.554Y-97.079
X155.554Y-99.619
X155.554Y-102.159
X155.554Y-104.699
X155.554Y-107.239
X170.794Y-71.679
X170.794Y-74.219
X170.794Y-76.759
X170.794Y-79.299
X170.794Y-81.839
X170.794Y-84.379
X170.794Y-86.919
X170.794Y-89.459
X170.794Y-91.999
X170.794Y-94.539
X170.794Y-97.079
X170.794Y-99.619
X170.794Y-102.159
X170.794Y-104.699
X170.794Y-107.239
X176.974Y-81.929
X176.974Y-84.469
X177.284Y-102.339
X177.284Y-104.879
X177.295Y-72.047
X177.295Y-74.587
X177.369Y-92.969
X177.369Y-95.509
X177.687Y-111.929
X177.687Y-114.469
T3
X175.26Y-122.865
X177.8Y-122.865
X180.34Y-122.865
T4
X110.624Y-95.099
X110.624Y-101.599
X110.624Y-112.879
X110.624Y-119.379
X141.624Y-95.149
X141.624Y-101.599
X141.624Y-112.929
X141.624Y-119.379
T5
X109.18Y-72.39
X109.18Y-86.59
X132.08Y-72.39
X132.08Y-75.89
X132.08Y-83.49
X132.08Y-86.89
T0
M30
