%TF.GenerationSoftware,KiCad,Pcbnew,6.0.11+dfsg-1*%
%TF.CreationDate,2025-09-22T09:11:01+02:00*%
%TF.ProjectId,Rummikub_Timer,52756d6d-696b-4756-925f-54696d65722e,v1*%
%TF.SameCoordinates,Original*%
%TF.FileFunction,Drillmap*%
%TF.FilePolarity,Positive*%
%FSLAX45Y45*%
G04 Gerber Fmt 4.5, Leading zero omitted, Abs format (unit mm)*
G04 Created by KiCad (PCBNEW 6.0.11+dfsg-1) date 2025-09-22 09:11:01*
%MOMM*%
%LPD*%
G01*
G04 APERTURE LIST*
%ADD10C,0.100000*%
%ADD11C,0.200000*%
%ADD12C,0.080000*%
%ADD13C,0.110000*%
%ADD14C,0.125000*%
%ADD15C,0.154000*%
G04 APERTURE END LIST*
D10*
X10741306Y-6605805D02*
X10741306Y-13035590D01*
X10741306Y-13035590D02*
X10741306Y-13383996D01*
X11508119Y-6645776D02*
G75*
G03*
X11508119Y-6645776I-160000J0D01*
G01*
X18237200Y-13639796D02*
G75*
G03*
X18491200Y-13385800I5J253996D01*
G01*
X11513617Y-13357855D02*
G75*
G03*
X11513617Y-13357855I-160000J0D01*
G01*
X18491200Y-6604000D02*
X18491200Y-13385800D01*
X18237200Y-13639800D02*
X10995306Y-13637996D01*
X10995306Y-6351805D02*
X18237200Y-6350000D01*
X18491205Y-6604000D02*
G75*
G03*
X18237200Y-6350000I-254000J0D01*
G01*
X10741310Y-13383996D02*
G75*
G03*
X10995306Y-13637996I254000J0D01*
G01*
X17605395Y-6646441D02*
G75*
G03*
X17605395Y-6646441I-160000J0D01*
G01*
X17602639Y-13341491D02*
G75*
G03*
X17602639Y-13341491I-160000J0D01*
G01*
X10995306Y-6351801D02*
G75*
G03*
X10741306Y-6605805I5J-254005D01*
G01*
D11*
D12*
X14817420Y-11687482D02*
X14897420Y-11767482D01*
X14897420Y-11687482D02*
X14817420Y-11767482D01*
X14817553Y-12584931D02*
X14897553Y-12664931D01*
X14897553Y-12584931D02*
X14817553Y-12664931D01*
X15579420Y-11687482D02*
X15659420Y-11767482D01*
X15659420Y-11687482D02*
X15579420Y-11767482D01*
X15579553Y-12584931D02*
X15659553Y-12664931D01*
X15659553Y-12584931D02*
X15579553Y-12664931D01*
X16151418Y-11661708D02*
X16231418Y-11741708D01*
X16231418Y-11661708D02*
X16151418Y-11741708D01*
X16151418Y-12588931D02*
X16231418Y-12668931D01*
X16231418Y-12588931D02*
X16151418Y-12668931D01*
X16913418Y-11661708D02*
X16993418Y-11741708D01*
X16993418Y-11661708D02*
X16913418Y-11741708D01*
X16913418Y-12588931D02*
X16993418Y-12668931D01*
X16993418Y-12588931D02*
X16913418Y-12668931D01*
D10*
X14082418Y-7802931D02*
G75*
G03*
X14082418Y-7802931I-50000J0D01*
G01*
X14082418Y-8056931D02*
G75*
G03*
X14082418Y-8056931I-50000J0D01*
G01*
X14840168Y-7282931D02*
G75*
G03*
X14840168Y-7282931I-50000J0D01*
G01*
X14840168Y-7536931D02*
G75*
G03*
X14840168Y-7536931I-50000J0D01*
G01*
X15098418Y-9200931D02*
G75*
G03*
X15098418Y-9200931I-50000J0D01*
G01*
X15098418Y-9454931D02*
G75*
G03*
X15098418Y-9454931I-50000J0D01*
G01*
X15098418Y-9708931D02*
G75*
G03*
X15098418Y-9708931I-50000J0D01*
G01*
X15098418Y-9962931D02*
G75*
G03*
X15098418Y-9962931I-50000J0D01*
G01*
X15605418Y-7167931D02*
G75*
G03*
X15605418Y-7167931I-50000J0D01*
G01*
X15605418Y-7421931D02*
G75*
G03*
X15605418Y-7421931I-50000J0D01*
G01*
X15605418Y-7675931D02*
G75*
G03*
X15605418Y-7675931I-50000J0D01*
G01*
X15605418Y-7929931D02*
G75*
G03*
X15605418Y-7929931I-50000J0D01*
G01*
X15605418Y-8183931D02*
G75*
G03*
X15605418Y-8183931I-50000J0D01*
G01*
X15605418Y-8437931D02*
G75*
G03*
X15605418Y-8437931I-50000J0D01*
G01*
X15605418Y-8691931D02*
G75*
G03*
X15605418Y-8691931I-50000J0D01*
G01*
X15605418Y-8945931D02*
G75*
G03*
X15605418Y-8945931I-50000J0D01*
G01*
X15605418Y-9199931D02*
G75*
G03*
X15605418Y-9199931I-50000J0D01*
G01*
X15605418Y-9453931D02*
G75*
G03*
X15605418Y-9453931I-50000J0D01*
G01*
X15605418Y-9707931D02*
G75*
G03*
X15605418Y-9707931I-50000J0D01*
G01*
X15605418Y-9961931D02*
G75*
G03*
X15605418Y-9961931I-50000J0D01*
G01*
X15605418Y-10215931D02*
G75*
G03*
X15605418Y-10215931I-50000J0D01*
G01*
X15605418Y-10469931D02*
G75*
G03*
X15605418Y-10469931I-50000J0D01*
G01*
X15605418Y-10723931D02*
G75*
G03*
X15605418Y-10723931I-50000J0D01*
G01*
X17129418Y-7167931D02*
G75*
G03*
X17129418Y-7167931I-50000J0D01*
G01*
X17129418Y-7421931D02*
G75*
G03*
X17129418Y-7421931I-50000J0D01*
G01*
X17129418Y-7675931D02*
G75*
G03*
X17129418Y-7675931I-50000J0D01*
G01*
X17129418Y-7929931D02*
G75*
G03*
X17129418Y-7929931I-50000J0D01*
G01*
X17129418Y-8183931D02*
G75*
G03*
X17129418Y-8183931I-50000J0D01*
G01*
X17129418Y-8437931D02*
G75*
G03*
X17129418Y-8437931I-50000J0D01*
G01*
X17129418Y-8691931D02*
G75*
G03*
X17129418Y-8691931I-50000J0D01*
G01*
X17129418Y-8945931D02*
G75*
G03*
X17129418Y-8945931I-50000J0D01*
G01*
X17129418Y-9199931D02*
G75*
G03*
X17129418Y-9199931I-50000J0D01*
G01*
X17129418Y-9453931D02*
G75*
G03*
X17129418Y-9453931I-50000J0D01*
G01*
X17129418Y-9707931D02*
G75*
G03*
X17129418Y-9707931I-50000J0D01*
G01*
X17129418Y-9961931D02*
G75*
G03*
X17129418Y-9961931I-50000J0D01*
G01*
X17129418Y-10215931D02*
G75*
G03*
X17129418Y-10215931I-50000J0D01*
G01*
X17129418Y-10469931D02*
G75*
G03*
X17129418Y-10469931I-50000J0D01*
G01*
X17129418Y-10723931D02*
G75*
G03*
X17129418Y-10723931I-50000J0D01*
G01*
X17747418Y-8192931D02*
G75*
G03*
X17747418Y-8192931I-50000J0D01*
G01*
X17747418Y-8446931D02*
G75*
G03*
X17747418Y-8446931I-50000J0D01*
G01*
X17778418Y-10233931D02*
G75*
G03*
X17778418Y-10233931I-50000J0D01*
G01*
X17778418Y-10487931D02*
G75*
G03*
X17778418Y-10487931I-50000J0D01*
G01*
X17779454Y-7204702D02*
G75*
G03*
X17779454Y-7204702I-50000J0D01*
G01*
X17779454Y-7458702D02*
G75*
G03*
X17779454Y-7458702I-50000J0D01*
G01*
X17786918Y-9296931D02*
G75*
G03*
X17786918Y-9296931I-50000J0D01*
G01*
X17786918Y-9550931D02*
G75*
G03*
X17786918Y-9550931I-50000J0D01*
G01*
X17818668Y-11192931D02*
G75*
G03*
X17818668Y-11192931I-50000J0D01*
G01*
X17818668Y-11446931D02*
G75*
G03*
X17818668Y-11446931I-50000J0D01*
G01*
D13*
X17526000Y-12231500D02*
X17526000Y-12341500D01*
X17471000Y-12286500D02*
X17581000Y-12286500D01*
X17780000Y-12231500D02*
X17780000Y-12341500D01*
X17725000Y-12286500D02*
X17835000Y-12286500D01*
X18034000Y-12231500D02*
X18034000Y-12341500D01*
X17979000Y-12286500D02*
X18089000Y-12286500D01*
D14*
X11106612Y-9554125D02*
X11106612Y-9465736D01*
X11018223Y-9465736D01*
X11018223Y-9554125D01*
X11106612Y-9554125D01*
X11106612Y-10204125D02*
X11106612Y-10115736D01*
X11018223Y-10115736D01*
X11018223Y-10204125D01*
X11106612Y-10204125D01*
X11106612Y-11332125D02*
X11106612Y-11243736D01*
X11018223Y-11243736D01*
X11018223Y-11332125D01*
X11106612Y-11332125D01*
X11106612Y-11982125D02*
X11106612Y-11893736D01*
X11018223Y-11893736D01*
X11018223Y-11982125D01*
X11106612Y-11982125D01*
X14206612Y-9559125D02*
X14206612Y-9470736D01*
X14118223Y-9470736D01*
X14118223Y-9559125D01*
X14206612Y-9559125D01*
X14206612Y-10204125D02*
X14206612Y-10115736D01*
X14118223Y-10115736D01*
X14118223Y-10204125D01*
X14206612Y-10204125D01*
X14206612Y-11337125D02*
X14206612Y-11248736D01*
X14118223Y-11248736D01*
X14118223Y-11337125D01*
X14206612Y-11337125D01*
X14206612Y-11982125D02*
X14206612Y-11893736D01*
X14118223Y-11893736D01*
X14118223Y-11982125D01*
X14206612Y-11982125D01*
D15*
X10918000Y-7316000D02*
X10995000Y-7239000D01*
X10918000Y-7162000D01*
X10841000Y-7239000D01*
X10918000Y-7316000D01*
X10918000Y-8736000D02*
X10995000Y-8659000D01*
X10918000Y-8582000D01*
X10841000Y-8659000D01*
X10918000Y-8736000D01*
X13208000Y-7316000D02*
X13285000Y-7239000D01*
X13208000Y-7162000D01*
X13131000Y-7239000D01*
X13208000Y-7316000D01*
X13208000Y-7666000D02*
X13285000Y-7589000D01*
X13208000Y-7512000D01*
X13131000Y-7589000D01*
X13208000Y-7666000D01*
X13208000Y-8426000D02*
X13285000Y-8349000D01*
X13208000Y-8272000D01*
X13131000Y-8349000D01*
X13208000Y-8426000D01*
X13208000Y-8766000D02*
X13285000Y-8689000D01*
X13208000Y-8612000D01*
X13131000Y-8689000D01*
X13208000Y-8766000D01*
D11*
X10993925Y-13955276D02*
X10993925Y-13755276D01*
X11041544Y-13755276D01*
X11070115Y-13764800D01*
X11089163Y-13783848D01*
X11098686Y-13802895D01*
X11108210Y-13840990D01*
X11108210Y-13869562D01*
X11098686Y-13907657D01*
X11089163Y-13926705D01*
X11070115Y-13945752D01*
X11041544Y-13955276D01*
X10993925Y-13955276D01*
X11193924Y-13955276D02*
X11193924Y-13821943D01*
X11193924Y-13860038D02*
X11203448Y-13840990D01*
X11212972Y-13831467D01*
X11232020Y-13821943D01*
X11251067Y-13821943D01*
X11317734Y-13955276D02*
X11317734Y-13821943D01*
X11317734Y-13755276D02*
X11308210Y-13764800D01*
X11317734Y-13774324D01*
X11327258Y-13764800D01*
X11317734Y-13755276D01*
X11317734Y-13774324D01*
X11441543Y-13955276D02*
X11422496Y-13945752D01*
X11412972Y-13926705D01*
X11412972Y-13755276D01*
X11546305Y-13955276D02*
X11527258Y-13945752D01*
X11517734Y-13926705D01*
X11517734Y-13755276D01*
X11774877Y-13955276D02*
X11774877Y-13755276D01*
X11841543Y-13898133D01*
X11908210Y-13755276D01*
X11908210Y-13955276D01*
X12089163Y-13955276D02*
X12089163Y-13850514D01*
X12079639Y-13831467D01*
X12060591Y-13821943D01*
X12022496Y-13821943D01*
X12003448Y-13831467D01*
X12089163Y-13945752D02*
X12070115Y-13955276D01*
X12022496Y-13955276D01*
X12003448Y-13945752D01*
X11993924Y-13926705D01*
X11993924Y-13907657D01*
X12003448Y-13888609D01*
X12022496Y-13879086D01*
X12070115Y-13879086D01*
X12089163Y-13869562D01*
X12184401Y-13821943D02*
X12184401Y-14021943D01*
X12184401Y-13831467D02*
X12203448Y-13821943D01*
X12241543Y-13821943D01*
X12260591Y-13831467D01*
X12270115Y-13840990D01*
X12279639Y-13860038D01*
X12279639Y-13917181D01*
X12270115Y-13936228D01*
X12260591Y-13945752D01*
X12241543Y-13955276D01*
X12203448Y-13955276D01*
X12184401Y-13945752D01*
X12365353Y-13936228D02*
X12374877Y-13945752D01*
X12365353Y-13955276D01*
X12355829Y-13945752D01*
X12365353Y-13936228D01*
X12365353Y-13955276D01*
X12365353Y-13831467D02*
X12374877Y-13840990D01*
X12365353Y-13850514D01*
X12355829Y-13840990D01*
X12365353Y-13831467D01*
X12365353Y-13850514D01*
D12*
X10656306Y-14244800D02*
X10736306Y-14324800D01*
X10736306Y-14244800D02*
X10656306Y-14324800D01*
D11*
X11032020Y-14175276D02*
X11051067Y-14175276D01*
X11070115Y-14184800D01*
X11079639Y-14194324D01*
X11089163Y-14213371D01*
X11098686Y-14251467D01*
X11098686Y-14299086D01*
X11089163Y-14337181D01*
X11079639Y-14356228D01*
X11070115Y-14365752D01*
X11051067Y-14375276D01*
X11032020Y-14375276D01*
X11012972Y-14365752D01*
X11003448Y-14356228D01*
X10993925Y-14337181D01*
X10984401Y-14299086D01*
X10984401Y-14251467D01*
X10993925Y-14213371D01*
X11003448Y-14194324D01*
X11012972Y-14184800D01*
X11032020Y-14175276D01*
X11184401Y-14356228D02*
X11193924Y-14365752D01*
X11184401Y-14375276D01*
X11174877Y-14365752D01*
X11184401Y-14356228D01*
X11184401Y-14375276D01*
X11308210Y-14260990D02*
X11289163Y-14251467D01*
X11279639Y-14241943D01*
X11270115Y-14222895D01*
X11270115Y-14213371D01*
X11279639Y-14194324D01*
X11289163Y-14184800D01*
X11308210Y-14175276D01*
X11346305Y-14175276D01*
X11365353Y-14184800D01*
X11374877Y-14194324D01*
X11384401Y-14213371D01*
X11384401Y-14222895D01*
X11374877Y-14241943D01*
X11365353Y-14251467D01*
X11346305Y-14260990D01*
X11308210Y-14260990D01*
X11289163Y-14270514D01*
X11279639Y-14280038D01*
X11270115Y-14299086D01*
X11270115Y-14337181D01*
X11279639Y-14356228D01*
X11289163Y-14365752D01*
X11308210Y-14375276D01*
X11346305Y-14375276D01*
X11365353Y-14365752D01*
X11374877Y-14356228D01*
X11384401Y-14337181D01*
X11384401Y-14299086D01*
X11374877Y-14280038D01*
X11365353Y-14270514D01*
X11346305Y-14260990D01*
X11508210Y-14175276D02*
X11527258Y-14175276D01*
X11546305Y-14184800D01*
X11555829Y-14194324D01*
X11565353Y-14213371D01*
X11574877Y-14251467D01*
X11574877Y-14299086D01*
X11565353Y-14337181D01*
X11555829Y-14356228D01*
X11546305Y-14365752D01*
X11527258Y-14375276D01*
X11508210Y-14375276D01*
X11489163Y-14365752D01*
X11479639Y-14356228D01*
X11470115Y-14337181D01*
X11460591Y-14299086D01*
X11460591Y-14251467D01*
X11470115Y-14213371D01*
X11479639Y-14194324D01*
X11489163Y-14184800D01*
X11508210Y-14175276D01*
X11698686Y-14175276D02*
X11717734Y-14175276D01*
X11736782Y-14184800D01*
X11746305Y-14194324D01*
X11755829Y-14213371D01*
X11765353Y-14251467D01*
X11765353Y-14299086D01*
X11755829Y-14337181D01*
X11746305Y-14356228D01*
X11736782Y-14365752D01*
X11717734Y-14375276D01*
X11698686Y-14375276D01*
X11679639Y-14365752D01*
X11670115Y-14356228D01*
X11660591Y-14337181D01*
X11651067Y-14299086D01*
X11651067Y-14251467D01*
X11660591Y-14213371D01*
X11670115Y-14194324D01*
X11679639Y-14184800D01*
X11698686Y-14175276D01*
X11851067Y-14375276D02*
X11851067Y-14241943D01*
X11851067Y-14260990D02*
X11860591Y-14251467D01*
X11879639Y-14241943D01*
X11908210Y-14241943D01*
X11927258Y-14251467D01*
X11936782Y-14270514D01*
X11936782Y-14375276D01*
X11936782Y-14270514D02*
X11946305Y-14251467D01*
X11965353Y-14241943D01*
X11993924Y-14241943D01*
X12012972Y-14251467D01*
X12022496Y-14270514D01*
X12022496Y-14375276D01*
X12117734Y-14375276D02*
X12117734Y-14241943D01*
X12117734Y-14260990D02*
X12127258Y-14251467D01*
X12146305Y-14241943D01*
X12174877Y-14241943D01*
X12193924Y-14251467D01*
X12203448Y-14270514D01*
X12203448Y-14375276D01*
X12203448Y-14270514D02*
X12212972Y-14251467D01*
X12232020Y-14241943D01*
X12260591Y-14241943D01*
X12279639Y-14251467D01*
X12289163Y-14270514D01*
X12289163Y-14375276D01*
X12679639Y-14165752D02*
X12508210Y-14422895D01*
X12936782Y-14175276D02*
X12955829Y-14175276D01*
X12974877Y-14184800D01*
X12984401Y-14194324D01*
X12993924Y-14213371D01*
X13003448Y-14251467D01*
X13003448Y-14299086D01*
X12993924Y-14337181D01*
X12984401Y-14356228D01*
X12974877Y-14365752D01*
X12955829Y-14375276D01*
X12936782Y-14375276D01*
X12917734Y-14365752D01*
X12908210Y-14356228D01*
X12898686Y-14337181D01*
X12889163Y-14299086D01*
X12889163Y-14251467D01*
X12898686Y-14213371D01*
X12908210Y-14194324D01*
X12917734Y-14184800D01*
X12936782Y-14175276D01*
X13089163Y-14356228D02*
X13098686Y-14365752D01*
X13089163Y-14375276D01*
X13079639Y-14365752D01*
X13089163Y-14356228D01*
X13089163Y-14375276D01*
X13222496Y-14175276D02*
X13241543Y-14175276D01*
X13260591Y-14184800D01*
X13270115Y-14194324D01*
X13279639Y-14213371D01*
X13289163Y-14251467D01*
X13289163Y-14299086D01*
X13279639Y-14337181D01*
X13270115Y-14356228D01*
X13260591Y-14365752D01*
X13241543Y-14375276D01*
X13222496Y-14375276D01*
X13203448Y-14365752D01*
X13193924Y-14356228D01*
X13184401Y-14337181D01*
X13174877Y-14299086D01*
X13174877Y-14251467D01*
X13184401Y-14213371D01*
X13193924Y-14194324D01*
X13203448Y-14184800D01*
X13222496Y-14175276D01*
X13355829Y-14175276D02*
X13479639Y-14175276D01*
X13412972Y-14251467D01*
X13441543Y-14251467D01*
X13460591Y-14260990D01*
X13470115Y-14270514D01*
X13479639Y-14289562D01*
X13479639Y-14337181D01*
X13470115Y-14356228D01*
X13460591Y-14365752D01*
X13441543Y-14375276D01*
X13384401Y-14375276D01*
X13365353Y-14365752D01*
X13355829Y-14356228D01*
X13670115Y-14375276D02*
X13555829Y-14375276D01*
X13612972Y-14375276D02*
X13612972Y-14175276D01*
X13593924Y-14203848D01*
X13574877Y-14222895D01*
X13555829Y-14232419D01*
X13851067Y-14175276D02*
X13755829Y-14175276D01*
X13746305Y-14270514D01*
X13755829Y-14260990D01*
X13774877Y-14251467D01*
X13822496Y-14251467D01*
X13841543Y-14260990D01*
X13851067Y-14270514D01*
X13860591Y-14289562D01*
X13860591Y-14337181D01*
X13851067Y-14356228D01*
X13841543Y-14365752D01*
X13822496Y-14375276D01*
X13774877Y-14375276D01*
X13755829Y-14365752D01*
X13746305Y-14356228D01*
X13936782Y-14175276D02*
X13936782Y-14213371D01*
X14012972Y-14175276D02*
X14012972Y-14213371D01*
X14308210Y-14451467D02*
X14298686Y-14441943D01*
X14279639Y-14413371D01*
X14270115Y-14394324D01*
X14260591Y-14365752D01*
X14251067Y-14318133D01*
X14251067Y-14280038D01*
X14260591Y-14232419D01*
X14270115Y-14203848D01*
X14279639Y-14184800D01*
X14298686Y-14156228D01*
X14308210Y-14146705D01*
X14412972Y-14260990D02*
X14393924Y-14251467D01*
X14384401Y-14241943D01*
X14374877Y-14222895D01*
X14374877Y-14213371D01*
X14384401Y-14194324D01*
X14393924Y-14184800D01*
X14412972Y-14175276D01*
X14451067Y-14175276D01*
X14470115Y-14184800D01*
X14479639Y-14194324D01*
X14489163Y-14213371D01*
X14489163Y-14222895D01*
X14479639Y-14241943D01*
X14470115Y-14251467D01*
X14451067Y-14260990D01*
X14412972Y-14260990D01*
X14393924Y-14270514D01*
X14384401Y-14280038D01*
X14374877Y-14299086D01*
X14374877Y-14337181D01*
X14384401Y-14356228D01*
X14393924Y-14365752D01*
X14412972Y-14375276D01*
X14451067Y-14375276D01*
X14470115Y-14365752D01*
X14479639Y-14356228D01*
X14489163Y-14337181D01*
X14489163Y-14299086D01*
X14479639Y-14280038D01*
X14470115Y-14270514D01*
X14451067Y-14260990D01*
X14727258Y-14375276D02*
X14727258Y-14175276D01*
X14812972Y-14375276D02*
X14812972Y-14270514D01*
X14803448Y-14251467D01*
X14784401Y-14241943D01*
X14755829Y-14241943D01*
X14736782Y-14251467D01*
X14727258Y-14260990D01*
X14936782Y-14375276D02*
X14917734Y-14365752D01*
X14908210Y-14356228D01*
X14898686Y-14337181D01*
X14898686Y-14280038D01*
X14908210Y-14260990D01*
X14917734Y-14251467D01*
X14936782Y-14241943D01*
X14965353Y-14241943D01*
X14984401Y-14251467D01*
X14993924Y-14260990D01*
X15003448Y-14280038D01*
X15003448Y-14337181D01*
X14993924Y-14356228D01*
X14984401Y-14365752D01*
X14965353Y-14375276D01*
X14936782Y-14375276D01*
X15117734Y-14375276D02*
X15098686Y-14365752D01*
X15089163Y-14346705D01*
X15089163Y-14175276D01*
X15270115Y-14365752D02*
X15251067Y-14375276D01*
X15212972Y-14375276D01*
X15193924Y-14365752D01*
X15184401Y-14346705D01*
X15184401Y-14270514D01*
X15193924Y-14251467D01*
X15212972Y-14241943D01*
X15251067Y-14241943D01*
X15270115Y-14251467D01*
X15279639Y-14270514D01*
X15279639Y-14289562D01*
X15184401Y-14308609D01*
X15355829Y-14365752D02*
X15374877Y-14375276D01*
X15412972Y-14375276D01*
X15432020Y-14365752D01*
X15441543Y-14346705D01*
X15441543Y-14337181D01*
X15432020Y-14318133D01*
X15412972Y-14308609D01*
X15384401Y-14308609D01*
X15365353Y-14299086D01*
X15355829Y-14280038D01*
X15355829Y-14270514D01*
X15365353Y-14251467D01*
X15384401Y-14241943D01*
X15412972Y-14241943D01*
X15432020Y-14251467D01*
X15508210Y-14451467D02*
X15517734Y-14441943D01*
X15536782Y-14413371D01*
X15546305Y-14394324D01*
X15555829Y-14365752D01*
X15565353Y-14318133D01*
X15565353Y-14280038D01*
X15555829Y-14232419D01*
X15546305Y-14203848D01*
X15536782Y-14184800D01*
X15517734Y-14156228D01*
X15508210Y-14146705D01*
D10*
X10736306Y-14548800D02*
G75*
G03*
X10736306Y-14548800I-50000J0D01*
G01*
D11*
X11098686Y-14639276D02*
X10984401Y-14639276D01*
X11041544Y-14639276D02*
X11041544Y-14439276D01*
X11022496Y-14467848D01*
X11003448Y-14486895D01*
X10984401Y-14496419D01*
X11184401Y-14620228D02*
X11193924Y-14629752D01*
X11184401Y-14639276D01*
X11174877Y-14629752D01*
X11184401Y-14620228D01*
X11184401Y-14639276D01*
X11317734Y-14439276D02*
X11336782Y-14439276D01*
X11355829Y-14448800D01*
X11365353Y-14458324D01*
X11374877Y-14477371D01*
X11384401Y-14515467D01*
X11384401Y-14563086D01*
X11374877Y-14601181D01*
X11365353Y-14620228D01*
X11355829Y-14629752D01*
X11336782Y-14639276D01*
X11317734Y-14639276D01*
X11298686Y-14629752D01*
X11289163Y-14620228D01*
X11279639Y-14601181D01*
X11270115Y-14563086D01*
X11270115Y-14515467D01*
X11279639Y-14477371D01*
X11289163Y-14458324D01*
X11298686Y-14448800D01*
X11317734Y-14439276D01*
X11508210Y-14439276D02*
X11527258Y-14439276D01*
X11546305Y-14448800D01*
X11555829Y-14458324D01*
X11565353Y-14477371D01*
X11574877Y-14515467D01*
X11574877Y-14563086D01*
X11565353Y-14601181D01*
X11555829Y-14620228D01*
X11546305Y-14629752D01*
X11527258Y-14639276D01*
X11508210Y-14639276D01*
X11489163Y-14629752D01*
X11479639Y-14620228D01*
X11470115Y-14601181D01*
X11460591Y-14563086D01*
X11460591Y-14515467D01*
X11470115Y-14477371D01*
X11479639Y-14458324D01*
X11489163Y-14448800D01*
X11508210Y-14439276D01*
X11698686Y-14439276D02*
X11717734Y-14439276D01*
X11736782Y-14448800D01*
X11746305Y-14458324D01*
X11755829Y-14477371D01*
X11765353Y-14515467D01*
X11765353Y-14563086D01*
X11755829Y-14601181D01*
X11746305Y-14620228D01*
X11736782Y-14629752D01*
X11717734Y-14639276D01*
X11698686Y-14639276D01*
X11679639Y-14629752D01*
X11670115Y-14620228D01*
X11660591Y-14601181D01*
X11651067Y-14563086D01*
X11651067Y-14515467D01*
X11660591Y-14477371D01*
X11670115Y-14458324D01*
X11679639Y-14448800D01*
X11698686Y-14439276D01*
X11851067Y-14639276D02*
X11851067Y-14505943D01*
X11851067Y-14524990D02*
X11860591Y-14515467D01*
X11879639Y-14505943D01*
X11908210Y-14505943D01*
X11927258Y-14515467D01*
X11936782Y-14534514D01*
X11936782Y-14639276D01*
X11936782Y-14534514D02*
X11946305Y-14515467D01*
X11965353Y-14505943D01*
X11993924Y-14505943D01*
X12012972Y-14515467D01*
X12022496Y-14534514D01*
X12022496Y-14639276D01*
X12117734Y-14639276D02*
X12117734Y-14505943D01*
X12117734Y-14524990D02*
X12127258Y-14515467D01*
X12146305Y-14505943D01*
X12174877Y-14505943D01*
X12193924Y-14515467D01*
X12203448Y-14534514D01*
X12203448Y-14639276D01*
X12203448Y-14534514D02*
X12212972Y-14515467D01*
X12232020Y-14505943D01*
X12260591Y-14505943D01*
X12279639Y-14515467D01*
X12289163Y-14534514D01*
X12289163Y-14639276D01*
X12679639Y-14429752D02*
X12508210Y-14686895D01*
X12936782Y-14439276D02*
X12955829Y-14439276D01*
X12974877Y-14448800D01*
X12984401Y-14458324D01*
X12993924Y-14477371D01*
X13003448Y-14515467D01*
X13003448Y-14563086D01*
X12993924Y-14601181D01*
X12984401Y-14620228D01*
X12974877Y-14629752D01*
X12955829Y-14639276D01*
X12936782Y-14639276D01*
X12917734Y-14629752D01*
X12908210Y-14620228D01*
X12898686Y-14601181D01*
X12889163Y-14563086D01*
X12889163Y-14515467D01*
X12898686Y-14477371D01*
X12908210Y-14458324D01*
X12917734Y-14448800D01*
X12936782Y-14439276D01*
X13089163Y-14620228D02*
X13098686Y-14629752D01*
X13089163Y-14639276D01*
X13079639Y-14629752D01*
X13089163Y-14620228D01*
X13089163Y-14639276D01*
X13222496Y-14439276D02*
X13241543Y-14439276D01*
X13260591Y-14448800D01*
X13270115Y-14458324D01*
X13279639Y-14477371D01*
X13289163Y-14515467D01*
X13289163Y-14563086D01*
X13279639Y-14601181D01*
X13270115Y-14620228D01*
X13260591Y-14629752D01*
X13241543Y-14639276D01*
X13222496Y-14639276D01*
X13203448Y-14629752D01*
X13193924Y-14620228D01*
X13184401Y-14601181D01*
X13174877Y-14563086D01*
X13174877Y-14515467D01*
X13184401Y-14477371D01*
X13193924Y-14458324D01*
X13203448Y-14448800D01*
X13222496Y-14439276D01*
X13355829Y-14439276D02*
X13479639Y-14439276D01*
X13412972Y-14515467D01*
X13441543Y-14515467D01*
X13460591Y-14524990D01*
X13470115Y-14534514D01*
X13479639Y-14553562D01*
X13479639Y-14601181D01*
X13470115Y-14620228D01*
X13460591Y-14629752D01*
X13441543Y-14639276D01*
X13384401Y-14639276D01*
X13365353Y-14629752D01*
X13355829Y-14620228D01*
X13574877Y-14639276D02*
X13612972Y-14639276D01*
X13632020Y-14629752D01*
X13641543Y-14620228D01*
X13660591Y-14591657D01*
X13670115Y-14553562D01*
X13670115Y-14477371D01*
X13660591Y-14458324D01*
X13651067Y-14448800D01*
X13632020Y-14439276D01*
X13593924Y-14439276D01*
X13574877Y-14448800D01*
X13565353Y-14458324D01*
X13555829Y-14477371D01*
X13555829Y-14524990D01*
X13565353Y-14544038D01*
X13574877Y-14553562D01*
X13593924Y-14563086D01*
X13632020Y-14563086D01*
X13651067Y-14553562D01*
X13660591Y-14544038D01*
X13670115Y-14524990D01*
X13841543Y-14505943D02*
X13841543Y-14639276D01*
X13793924Y-14429752D02*
X13746305Y-14572609D01*
X13870115Y-14572609D01*
X13936782Y-14439276D02*
X13936782Y-14477371D01*
X14012972Y-14439276D02*
X14012972Y-14477371D01*
X14308210Y-14715467D02*
X14298686Y-14705943D01*
X14279639Y-14677371D01*
X14270115Y-14658324D01*
X14260591Y-14629752D01*
X14251067Y-14582133D01*
X14251067Y-14544038D01*
X14260591Y-14496419D01*
X14270115Y-14467848D01*
X14279639Y-14448800D01*
X14298686Y-14420228D01*
X14308210Y-14410705D01*
X14470115Y-14505943D02*
X14470115Y-14639276D01*
X14422496Y-14429752D02*
X14374877Y-14572609D01*
X14498686Y-14572609D01*
X14603448Y-14524990D02*
X14584401Y-14515467D01*
X14574877Y-14505943D01*
X14565353Y-14486895D01*
X14565353Y-14477371D01*
X14574877Y-14458324D01*
X14584401Y-14448800D01*
X14603448Y-14439276D01*
X14641543Y-14439276D01*
X14660591Y-14448800D01*
X14670115Y-14458324D01*
X14679639Y-14477371D01*
X14679639Y-14486895D01*
X14670115Y-14505943D01*
X14660591Y-14515467D01*
X14641543Y-14524990D01*
X14603448Y-14524990D01*
X14584401Y-14534514D01*
X14574877Y-14544038D01*
X14565353Y-14563086D01*
X14565353Y-14601181D01*
X14574877Y-14620228D01*
X14584401Y-14629752D01*
X14603448Y-14639276D01*
X14641543Y-14639276D01*
X14660591Y-14629752D01*
X14670115Y-14620228D01*
X14679639Y-14601181D01*
X14679639Y-14563086D01*
X14670115Y-14544038D01*
X14660591Y-14534514D01*
X14641543Y-14524990D01*
X14917734Y-14639276D02*
X14917734Y-14439276D01*
X15003448Y-14639276D02*
X15003448Y-14534514D01*
X14993924Y-14515467D01*
X14974877Y-14505943D01*
X14946305Y-14505943D01*
X14927258Y-14515467D01*
X14917734Y-14524990D01*
X15127258Y-14639276D02*
X15108210Y-14629752D01*
X15098686Y-14620228D01*
X15089163Y-14601181D01*
X15089163Y-14544038D01*
X15098686Y-14524990D01*
X15108210Y-14515467D01*
X15127258Y-14505943D01*
X15155829Y-14505943D01*
X15174877Y-14515467D01*
X15184401Y-14524990D01*
X15193924Y-14544038D01*
X15193924Y-14601181D01*
X15184401Y-14620228D01*
X15174877Y-14629752D01*
X15155829Y-14639276D01*
X15127258Y-14639276D01*
X15308210Y-14639276D02*
X15289163Y-14629752D01*
X15279639Y-14610705D01*
X15279639Y-14439276D01*
X15460591Y-14629752D02*
X15441543Y-14639276D01*
X15403448Y-14639276D01*
X15384401Y-14629752D01*
X15374877Y-14610705D01*
X15374877Y-14534514D01*
X15384401Y-14515467D01*
X15403448Y-14505943D01*
X15441543Y-14505943D01*
X15460591Y-14515467D01*
X15470115Y-14534514D01*
X15470115Y-14553562D01*
X15374877Y-14572609D01*
X15546305Y-14629752D02*
X15565353Y-14639276D01*
X15603448Y-14639276D01*
X15622496Y-14629752D01*
X15632020Y-14610705D01*
X15632020Y-14601181D01*
X15622496Y-14582133D01*
X15603448Y-14572609D01*
X15574877Y-14572609D01*
X15555829Y-14563086D01*
X15546305Y-14544038D01*
X15546305Y-14534514D01*
X15555829Y-14515467D01*
X15574877Y-14505943D01*
X15603448Y-14505943D01*
X15622496Y-14515467D01*
X15698686Y-14715467D02*
X15708210Y-14705943D01*
X15727258Y-14677371D01*
X15736782Y-14658324D01*
X15746305Y-14629752D01*
X15755829Y-14582133D01*
X15755829Y-14544038D01*
X15746305Y-14496419D01*
X15736782Y-14467848D01*
X15727258Y-14448800D01*
X15708210Y-14420228D01*
X15698686Y-14410705D01*
D13*
X10681306Y-14757800D02*
X10681306Y-14867800D01*
X10626306Y-14812800D02*
X10736306Y-14812800D01*
D11*
X11098686Y-14903276D02*
X10984401Y-14903276D01*
X11041544Y-14903276D02*
X11041544Y-14703276D01*
X11022496Y-14731848D01*
X11003448Y-14750895D01*
X10984401Y-14760419D01*
X11184401Y-14884228D02*
X11193924Y-14893752D01*
X11184401Y-14903276D01*
X11174877Y-14893752D01*
X11184401Y-14884228D01*
X11184401Y-14903276D01*
X11384401Y-14903276D02*
X11270115Y-14903276D01*
X11327258Y-14903276D02*
X11327258Y-14703276D01*
X11308210Y-14731848D01*
X11289163Y-14750895D01*
X11270115Y-14760419D01*
X11508210Y-14703276D02*
X11527258Y-14703276D01*
X11546305Y-14712800D01*
X11555829Y-14722324D01*
X11565353Y-14741371D01*
X11574877Y-14779467D01*
X11574877Y-14827086D01*
X11565353Y-14865181D01*
X11555829Y-14884228D01*
X11546305Y-14893752D01*
X11527258Y-14903276D01*
X11508210Y-14903276D01*
X11489163Y-14893752D01*
X11479639Y-14884228D01*
X11470115Y-14865181D01*
X11460591Y-14827086D01*
X11460591Y-14779467D01*
X11470115Y-14741371D01*
X11479639Y-14722324D01*
X11489163Y-14712800D01*
X11508210Y-14703276D01*
X11698686Y-14703276D02*
X11717734Y-14703276D01*
X11736782Y-14712800D01*
X11746305Y-14722324D01*
X11755829Y-14741371D01*
X11765353Y-14779467D01*
X11765353Y-14827086D01*
X11755829Y-14865181D01*
X11746305Y-14884228D01*
X11736782Y-14893752D01*
X11717734Y-14903276D01*
X11698686Y-14903276D01*
X11679639Y-14893752D01*
X11670115Y-14884228D01*
X11660591Y-14865181D01*
X11651067Y-14827086D01*
X11651067Y-14779467D01*
X11660591Y-14741371D01*
X11670115Y-14722324D01*
X11679639Y-14712800D01*
X11698686Y-14703276D01*
X11851067Y-14903276D02*
X11851067Y-14769943D01*
X11851067Y-14788990D02*
X11860591Y-14779467D01*
X11879639Y-14769943D01*
X11908210Y-14769943D01*
X11927258Y-14779467D01*
X11936782Y-14798514D01*
X11936782Y-14903276D01*
X11936782Y-14798514D02*
X11946305Y-14779467D01*
X11965353Y-14769943D01*
X11993924Y-14769943D01*
X12012972Y-14779467D01*
X12022496Y-14798514D01*
X12022496Y-14903276D01*
X12117734Y-14903276D02*
X12117734Y-14769943D01*
X12117734Y-14788990D02*
X12127258Y-14779467D01*
X12146305Y-14769943D01*
X12174877Y-14769943D01*
X12193924Y-14779467D01*
X12203448Y-14798514D01*
X12203448Y-14903276D01*
X12203448Y-14798514D02*
X12212972Y-14779467D01*
X12232020Y-14769943D01*
X12260591Y-14769943D01*
X12279639Y-14779467D01*
X12289163Y-14798514D01*
X12289163Y-14903276D01*
X12679639Y-14693752D02*
X12508210Y-14950895D01*
X12936782Y-14703276D02*
X12955829Y-14703276D01*
X12974877Y-14712800D01*
X12984401Y-14722324D01*
X12993924Y-14741371D01*
X13003448Y-14779467D01*
X13003448Y-14827086D01*
X12993924Y-14865181D01*
X12984401Y-14884228D01*
X12974877Y-14893752D01*
X12955829Y-14903276D01*
X12936782Y-14903276D01*
X12917734Y-14893752D01*
X12908210Y-14884228D01*
X12898686Y-14865181D01*
X12889163Y-14827086D01*
X12889163Y-14779467D01*
X12898686Y-14741371D01*
X12908210Y-14722324D01*
X12917734Y-14712800D01*
X12936782Y-14703276D01*
X13089163Y-14884228D02*
X13098686Y-14893752D01*
X13089163Y-14903276D01*
X13079639Y-14893752D01*
X13089163Y-14884228D01*
X13089163Y-14903276D01*
X13222496Y-14703276D02*
X13241543Y-14703276D01*
X13260591Y-14712800D01*
X13270115Y-14722324D01*
X13279639Y-14741371D01*
X13289163Y-14779467D01*
X13289163Y-14827086D01*
X13279639Y-14865181D01*
X13270115Y-14884228D01*
X13260591Y-14893752D01*
X13241543Y-14903276D01*
X13222496Y-14903276D01*
X13203448Y-14893752D01*
X13193924Y-14884228D01*
X13184401Y-14865181D01*
X13174877Y-14827086D01*
X13174877Y-14779467D01*
X13184401Y-14741371D01*
X13193924Y-14722324D01*
X13203448Y-14712800D01*
X13222496Y-14703276D01*
X13460591Y-14769943D02*
X13460591Y-14903276D01*
X13412972Y-14693752D02*
X13365353Y-14836609D01*
X13489163Y-14836609D01*
X13546305Y-14703276D02*
X13670115Y-14703276D01*
X13603448Y-14779467D01*
X13632020Y-14779467D01*
X13651067Y-14788990D01*
X13660591Y-14798514D01*
X13670115Y-14817562D01*
X13670115Y-14865181D01*
X13660591Y-14884228D01*
X13651067Y-14893752D01*
X13632020Y-14903276D01*
X13574877Y-14903276D01*
X13555829Y-14893752D01*
X13546305Y-14884228D01*
X13736782Y-14703276D02*
X13860591Y-14703276D01*
X13793924Y-14779467D01*
X13822496Y-14779467D01*
X13841543Y-14788990D01*
X13851067Y-14798514D01*
X13860591Y-14817562D01*
X13860591Y-14865181D01*
X13851067Y-14884228D01*
X13841543Y-14893752D01*
X13822496Y-14903276D01*
X13765353Y-14903276D01*
X13746305Y-14893752D01*
X13736782Y-14884228D01*
X13936782Y-14703276D02*
X13936782Y-14741371D01*
X14012972Y-14703276D02*
X14012972Y-14741371D01*
X14308210Y-14979467D02*
X14298686Y-14969943D01*
X14279639Y-14941371D01*
X14270115Y-14922324D01*
X14260591Y-14893752D01*
X14251067Y-14846133D01*
X14251067Y-14808038D01*
X14260591Y-14760419D01*
X14270115Y-14731848D01*
X14279639Y-14712800D01*
X14298686Y-14684228D01*
X14308210Y-14674705D01*
X14365353Y-14703276D02*
X14489163Y-14703276D01*
X14422496Y-14779467D01*
X14451067Y-14779467D01*
X14470115Y-14788990D01*
X14479639Y-14798514D01*
X14489163Y-14817562D01*
X14489163Y-14865181D01*
X14479639Y-14884228D01*
X14470115Y-14893752D01*
X14451067Y-14903276D01*
X14393924Y-14903276D01*
X14374877Y-14893752D01*
X14365353Y-14884228D01*
X14727258Y-14903276D02*
X14727258Y-14703276D01*
X14812972Y-14903276D02*
X14812972Y-14798514D01*
X14803448Y-14779467D01*
X14784401Y-14769943D01*
X14755829Y-14769943D01*
X14736782Y-14779467D01*
X14727258Y-14788990D01*
X14936782Y-14903276D02*
X14917734Y-14893752D01*
X14908210Y-14884228D01*
X14898686Y-14865181D01*
X14898686Y-14808038D01*
X14908210Y-14788990D01*
X14917734Y-14779467D01*
X14936782Y-14769943D01*
X14965353Y-14769943D01*
X14984401Y-14779467D01*
X14993924Y-14788990D01*
X15003448Y-14808038D01*
X15003448Y-14865181D01*
X14993924Y-14884228D01*
X14984401Y-14893752D01*
X14965353Y-14903276D01*
X14936782Y-14903276D01*
X15117734Y-14903276D02*
X15098686Y-14893752D01*
X15089163Y-14874705D01*
X15089163Y-14703276D01*
X15270115Y-14893752D02*
X15251067Y-14903276D01*
X15212972Y-14903276D01*
X15193924Y-14893752D01*
X15184401Y-14874705D01*
X15184401Y-14798514D01*
X15193924Y-14779467D01*
X15212972Y-14769943D01*
X15251067Y-14769943D01*
X15270115Y-14779467D01*
X15279639Y-14798514D01*
X15279639Y-14817562D01*
X15184401Y-14836609D01*
X15355829Y-14893752D02*
X15374877Y-14903276D01*
X15412972Y-14903276D01*
X15432020Y-14893752D01*
X15441543Y-14874705D01*
X15441543Y-14865181D01*
X15432020Y-14846133D01*
X15412972Y-14836609D01*
X15384401Y-14836609D01*
X15365353Y-14827086D01*
X15355829Y-14808038D01*
X15355829Y-14798514D01*
X15365353Y-14779467D01*
X15384401Y-14769943D01*
X15412972Y-14769943D01*
X15432020Y-14779467D01*
X15508210Y-14979467D02*
X15517734Y-14969943D01*
X15536782Y-14941371D01*
X15546305Y-14922324D01*
X15555829Y-14893752D01*
X15565353Y-14846133D01*
X15565353Y-14808038D01*
X15555829Y-14760419D01*
X15546305Y-14731848D01*
X15536782Y-14712800D01*
X15517734Y-14684228D01*
X15508210Y-14674705D01*
D14*
X10718000Y-15120995D02*
X10718000Y-15032605D01*
X10629611Y-15032605D01*
X10629611Y-15120995D01*
X10718000Y-15120995D01*
D11*
X11098686Y-15167276D02*
X10984401Y-15167276D01*
X11041544Y-15167276D02*
X11041544Y-14967276D01*
X11022496Y-14995848D01*
X11003448Y-15014895D01*
X10984401Y-15024419D01*
X11184401Y-15148228D02*
X11193924Y-15157752D01*
X11184401Y-15167276D01*
X11174877Y-15157752D01*
X11184401Y-15148228D01*
X11184401Y-15167276D01*
X11270115Y-14986324D02*
X11279639Y-14976800D01*
X11298686Y-14967276D01*
X11346305Y-14967276D01*
X11365353Y-14976800D01*
X11374877Y-14986324D01*
X11384401Y-15005371D01*
X11384401Y-15024419D01*
X11374877Y-15052990D01*
X11260591Y-15167276D01*
X11384401Y-15167276D01*
X11565353Y-14967276D02*
X11470115Y-14967276D01*
X11460591Y-15062514D01*
X11470115Y-15052990D01*
X11489163Y-15043467D01*
X11536782Y-15043467D01*
X11555829Y-15052990D01*
X11565353Y-15062514D01*
X11574877Y-15081562D01*
X11574877Y-15129181D01*
X11565353Y-15148228D01*
X11555829Y-15157752D01*
X11536782Y-15167276D01*
X11489163Y-15167276D01*
X11470115Y-15157752D01*
X11460591Y-15148228D01*
X11698686Y-14967276D02*
X11717734Y-14967276D01*
X11736782Y-14976800D01*
X11746305Y-14986324D01*
X11755829Y-15005371D01*
X11765353Y-15043467D01*
X11765353Y-15091086D01*
X11755829Y-15129181D01*
X11746305Y-15148228D01*
X11736782Y-15157752D01*
X11717734Y-15167276D01*
X11698686Y-15167276D01*
X11679639Y-15157752D01*
X11670115Y-15148228D01*
X11660591Y-15129181D01*
X11651067Y-15091086D01*
X11651067Y-15043467D01*
X11660591Y-15005371D01*
X11670115Y-14986324D01*
X11679639Y-14976800D01*
X11698686Y-14967276D01*
X11851067Y-15167276D02*
X11851067Y-15033943D01*
X11851067Y-15052990D02*
X11860591Y-15043467D01*
X11879639Y-15033943D01*
X11908210Y-15033943D01*
X11927258Y-15043467D01*
X11936782Y-15062514D01*
X11936782Y-15167276D01*
X11936782Y-15062514D02*
X11946305Y-15043467D01*
X11965353Y-15033943D01*
X11993924Y-15033943D01*
X12012972Y-15043467D01*
X12022496Y-15062514D01*
X12022496Y-15167276D01*
X12117734Y-15167276D02*
X12117734Y-15033943D01*
X12117734Y-15052990D02*
X12127258Y-15043467D01*
X12146305Y-15033943D01*
X12174877Y-15033943D01*
X12193924Y-15043467D01*
X12203448Y-15062514D01*
X12203448Y-15167276D01*
X12203448Y-15062514D02*
X12212972Y-15043467D01*
X12232020Y-15033943D01*
X12260591Y-15033943D01*
X12279639Y-15043467D01*
X12289163Y-15062514D01*
X12289163Y-15167276D01*
X12679639Y-14957752D02*
X12508210Y-15214895D01*
X12936782Y-14967276D02*
X12955829Y-14967276D01*
X12974877Y-14976800D01*
X12984401Y-14986324D01*
X12993924Y-15005371D01*
X13003448Y-15043467D01*
X13003448Y-15091086D01*
X12993924Y-15129181D01*
X12984401Y-15148228D01*
X12974877Y-15157752D01*
X12955829Y-15167276D01*
X12936782Y-15167276D01*
X12917734Y-15157752D01*
X12908210Y-15148228D01*
X12898686Y-15129181D01*
X12889163Y-15091086D01*
X12889163Y-15043467D01*
X12898686Y-15005371D01*
X12908210Y-14986324D01*
X12917734Y-14976800D01*
X12936782Y-14967276D01*
X13089163Y-15148228D02*
X13098686Y-15157752D01*
X13089163Y-15167276D01*
X13079639Y-15157752D01*
X13089163Y-15148228D01*
X13089163Y-15167276D01*
X13222496Y-14967276D02*
X13241543Y-14967276D01*
X13260591Y-14976800D01*
X13270115Y-14986324D01*
X13279639Y-15005371D01*
X13289163Y-15043467D01*
X13289163Y-15091086D01*
X13279639Y-15129181D01*
X13270115Y-15148228D01*
X13260591Y-15157752D01*
X13241543Y-15167276D01*
X13222496Y-15167276D01*
X13203448Y-15157752D01*
X13193924Y-15148228D01*
X13184401Y-15129181D01*
X13174877Y-15091086D01*
X13174877Y-15043467D01*
X13184401Y-15005371D01*
X13193924Y-14986324D01*
X13203448Y-14976800D01*
X13222496Y-14967276D01*
X13460591Y-15033943D02*
X13460591Y-15167276D01*
X13412972Y-14957752D02*
X13365353Y-15100609D01*
X13489163Y-15100609D01*
X13574877Y-15167276D02*
X13612972Y-15167276D01*
X13632020Y-15157752D01*
X13641543Y-15148228D01*
X13660591Y-15119657D01*
X13670115Y-15081562D01*
X13670115Y-15005371D01*
X13660591Y-14986324D01*
X13651067Y-14976800D01*
X13632020Y-14967276D01*
X13593924Y-14967276D01*
X13574877Y-14976800D01*
X13565353Y-14986324D01*
X13555829Y-15005371D01*
X13555829Y-15052990D01*
X13565353Y-15072038D01*
X13574877Y-15081562D01*
X13593924Y-15091086D01*
X13632020Y-15091086D01*
X13651067Y-15081562D01*
X13660591Y-15072038D01*
X13670115Y-15052990D01*
X13746305Y-14986324D02*
X13755829Y-14976800D01*
X13774877Y-14967276D01*
X13822496Y-14967276D01*
X13841543Y-14976800D01*
X13851067Y-14986324D01*
X13860591Y-15005371D01*
X13860591Y-15024419D01*
X13851067Y-15052990D01*
X13736782Y-15167276D01*
X13860591Y-15167276D01*
X13936782Y-14967276D02*
X13936782Y-15005371D01*
X14012972Y-14967276D02*
X14012972Y-15005371D01*
X14308210Y-15243467D02*
X14298686Y-15233943D01*
X14279639Y-15205371D01*
X14270115Y-15186324D01*
X14260591Y-15157752D01*
X14251067Y-15110133D01*
X14251067Y-15072038D01*
X14260591Y-15024419D01*
X14270115Y-14995848D01*
X14279639Y-14976800D01*
X14298686Y-14948228D01*
X14308210Y-14938705D01*
X14412972Y-15052990D02*
X14393924Y-15043467D01*
X14384401Y-15033943D01*
X14374877Y-15014895D01*
X14374877Y-15005371D01*
X14384401Y-14986324D01*
X14393924Y-14976800D01*
X14412972Y-14967276D01*
X14451067Y-14967276D01*
X14470115Y-14976800D01*
X14479639Y-14986324D01*
X14489163Y-15005371D01*
X14489163Y-15014895D01*
X14479639Y-15033943D01*
X14470115Y-15043467D01*
X14451067Y-15052990D01*
X14412972Y-15052990D01*
X14393924Y-15062514D01*
X14384401Y-15072038D01*
X14374877Y-15091086D01*
X14374877Y-15129181D01*
X14384401Y-15148228D01*
X14393924Y-15157752D01*
X14412972Y-15167276D01*
X14451067Y-15167276D01*
X14470115Y-15157752D01*
X14479639Y-15148228D01*
X14489163Y-15129181D01*
X14489163Y-15091086D01*
X14479639Y-15072038D01*
X14470115Y-15062514D01*
X14451067Y-15052990D01*
X14727258Y-15167276D02*
X14727258Y-14967276D01*
X14812972Y-15167276D02*
X14812972Y-15062514D01*
X14803448Y-15043467D01*
X14784401Y-15033943D01*
X14755829Y-15033943D01*
X14736782Y-15043467D01*
X14727258Y-15052990D01*
X14936782Y-15167276D02*
X14917734Y-15157752D01*
X14908210Y-15148228D01*
X14898686Y-15129181D01*
X14898686Y-15072038D01*
X14908210Y-15052990D01*
X14917734Y-15043467D01*
X14936782Y-15033943D01*
X14965353Y-15033943D01*
X14984401Y-15043467D01*
X14993924Y-15052990D01*
X15003448Y-15072038D01*
X15003448Y-15129181D01*
X14993924Y-15148228D01*
X14984401Y-15157752D01*
X14965353Y-15167276D01*
X14936782Y-15167276D01*
X15117734Y-15167276D02*
X15098686Y-15157752D01*
X15089163Y-15138705D01*
X15089163Y-14967276D01*
X15270115Y-15157752D02*
X15251067Y-15167276D01*
X15212972Y-15167276D01*
X15193924Y-15157752D01*
X15184401Y-15138705D01*
X15184401Y-15062514D01*
X15193924Y-15043467D01*
X15212972Y-15033943D01*
X15251067Y-15033943D01*
X15270115Y-15043467D01*
X15279639Y-15062514D01*
X15279639Y-15081562D01*
X15184401Y-15100609D01*
X15355829Y-15157752D02*
X15374877Y-15167276D01*
X15412972Y-15167276D01*
X15432020Y-15157752D01*
X15441543Y-15138705D01*
X15441543Y-15129181D01*
X15432020Y-15110133D01*
X15412972Y-15100609D01*
X15384401Y-15100609D01*
X15365353Y-15091086D01*
X15355829Y-15072038D01*
X15355829Y-15062514D01*
X15365353Y-15043467D01*
X15384401Y-15033943D01*
X15412972Y-15033943D01*
X15432020Y-15043467D01*
X15508210Y-15243467D02*
X15517734Y-15233943D01*
X15536782Y-15205371D01*
X15546305Y-15186324D01*
X15555829Y-15157752D01*
X15565353Y-15110133D01*
X15565353Y-15072038D01*
X15555829Y-15024419D01*
X15546305Y-14995848D01*
X15536782Y-14976800D01*
X15517734Y-14948228D01*
X15508210Y-14938705D01*
D15*
X10659306Y-15417800D02*
X10736306Y-15340800D01*
X10659306Y-15263800D01*
X10582306Y-15340800D01*
X10659306Y-15417800D01*
D11*
X11098686Y-15431276D02*
X10984401Y-15431276D01*
X11041544Y-15431276D02*
X11041544Y-15231276D01*
X11022496Y-15259848D01*
X11003448Y-15278895D01*
X10984401Y-15288419D01*
X11184401Y-15412228D02*
X11193924Y-15421752D01*
X11184401Y-15431276D01*
X11174877Y-15421752D01*
X11184401Y-15412228D01*
X11184401Y-15431276D01*
X11374877Y-15231276D02*
X11279639Y-15231276D01*
X11270115Y-15326514D01*
X11279639Y-15316990D01*
X11298686Y-15307467D01*
X11346305Y-15307467D01*
X11365353Y-15316990D01*
X11374877Y-15326514D01*
X11384401Y-15345562D01*
X11384401Y-15393181D01*
X11374877Y-15412228D01*
X11365353Y-15421752D01*
X11346305Y-15431276D01*
X11298686Y-15431276D01*
X11279639Y-15421752D01*
X11270115Y-15412228D01*
X11555829Y-15297943D02*
X11555829Y-15431276D01*
X11508210Y-15221752D02*
X11460591Y-15364609D01*
X11584401Y-15364609D01*
X11698686Y-15231276D02*
X11717734Y-15231276D01*
X11736782Y-15240800D01*
X11746305Y-15250324D01*
X11755829Y-15269371D01*
X11765353Y-15307467D01*
X11765353Y-15355086D01*
X11755829Y-15393181D01*
X11746305Y-15412228D01*
X11736782Y-15421752D01*
X11717734Y-15431276D01*
X11698686Y-15431276D01*
X11679639Y-15421752D01*
X11670115Y-15412228D01*
X11660591Y-15393181D01*
X11651067Y-15355086D01*
X11651067Y-15307467D01*
X11660591Y-15269371D01*
X11670115Y-15250324D01*
X11679639Y-15240800D01*
X11698686Y-15231276D01*
X11851067Y-15431276D02*
X11851067Y-15297943D01*
X11851067Y-15316990D02*
X11860591Y-15307467D01*
X11879639Y-15297943D01*
X11908210Y-15297943D01*
X11927258Y-15307467D01*
X11936782Y-15326514D01*
X11936782Y-15431276D01*
X11936782Y-15326514D02*
X11946305Y-15307467D01*
X11965353Y-15297943D01*
X11993924Y-15297943D01*
X12012972Y-15307467D01*
X12022496Y-15326514D01*
X12022496Y-15431276D01*
X12117734Y-15431276D02*
X12117734Y-15297943D01*
X12117734Y-15316990D02*
X12127258Y-15307467D01*
X12146305Y-15297943D01*
X12174877Y-15297943D01*
X12193924Y-15307467D01*
X12203448Y-15326514D01*
X12203448Y-15431276D01*
X12203448Y-15326514D02*
X12212972Y-15307467D01*
X12232020Y-15297943D01*
X12260591Y-15297943D01*
X12279639Y-15307467D01*
X12289163Y-15326514D01*
X12289163Y-15431276D01*
X12679639Y-15221752D02*
X12508210Y-15478895D01*
X12936782Y-15231276D02*
X12955829Y-15231276D01*
X12974877Y-15240800D01*
X12984401Y-15250324D01*
X12993924Y-15269371D01*
X13003448Y-15307467D01*
X13003448Y-15355086D01*
X12993924Y-15393181D01*
X12984401Y-15412228D01*
X12974877Y-15421752D01*
X12955829Y-15431276D01*
X12936782Y-15431276D01*
X12917734Y-15421752D01*
X12908210Y-15412228D01*
X12898686Y-15393181D01*
X12889163Y-15355086D01*
X12889163Y-15307467D01*
X12898686Y-15269371D01*
X12908210Y-15250324D01*
X12917734Y-15240800D01*
X12936782Y-15231276D01*
X13089163Y-15412228D02*
X13098686Y-15421752D01*
X13089163Y-15431276D01*
X13079639Y-15421752D01*
X13089163Y-15412228D01*
X13089163Y-15431276D01*
X13222496Y-15231276D02*
X13241543Y-15231276D01*
X13260591Y-15240800D01*
X13270115Y-15250324D01*
X13279639Y-15269371D01*
X13289163Y-15307467D01*
X13289163Y-15355086D01*
X13279639Y-15393181D01*
X13270115Y-15412228D01*
X13260591Y-15421752D01*
X13241543Y-15431276D01*
X13222496Y-15431276D01*
X13203448Y-15421752D01*
X13193924Y-15412228D01*
X13184401Y-15393181D01*
X13174877Y-15355086D01*
X13174877Y-15307467D01*
X13184401Y-15269371D01*
X13193924Y-15250324D01*
X13203448Y-15240800D01*
X13222496Y-15231276D01*
X13460591Y-15231276D02*
X13422496Y-15231276D01*
X13403448Y-15240800D01*
X13393924Y-15250324D01*
X13374877Y-15278895D01*
X13365353Y-15316990D01*
X13365353Y-15393181D01*
X13374877Y-15412228D01*
X13384401Y-15421752D01*
X13403448Y-15431276D01*
X13441543Y-15431276D01*
X13460591Y-15421752D01*
X13470115Y-15412228D01*
X13479639Y-15393181D01*
X13479639Y-15345562D01*
X13470115Y-15326514D01*
X13460591Y-15316990D01*
X13441543Y-15307467D01*
X13403448Y-15307467D01*
X13384401Y-15316990D01*
X13374877Y-15326514D01*
X13365353Y-15345562D01*
X13603448Y-15231276D02*
X13622496Y-15231276D01*
X13641543Y-15240800D01*
X13651067Y-15250324D01*
X13660591Y-15269371D01*
X13670115Y-15307467D01*
X13670115Y-15355086D01*
X13660591Y-15393181D01*
X13651067Y-15412228D01*
X13641543Y-15421752D01*
X13622496Y-15431276D01*
X13603448Y-15431276D01*
X13584401Y-15421752D01*
X13574877Y-15412228D01*
X13565353Y-15393181D01*
X13555829Y-15355086D01*
X13555829Y-15307467D01*
X13565353Y-15269371D01*
X13574877Y-15250324D01*
X13584401Y-15240800D01*
X13603448Y-15231276D01*
X13841543Y-15231276D02*
X13803448Y-15231276D01*
X13784401Y-15240800D01*
X13774877Y-15250324D01*
X13755829Y-15278895D01*
X13746305Y-15316990D01*
X13746305Y-15393181D01*
X13755829Y-15412228D01*
X13765353Y-15421752D01*
X13784401Y-15431276D01*
X13822496Y-15431276D01*
X13841543Y-15421752D01*
X13851067Y-15412228D01*
X13860591Y-15393181D01*
X13860591Y-15345562D01*
X13851067Y-15326514D01*
X13841543Y-15316990D01*
X13822496Y-15307467D01*
X13784401Y-15307467D01*
X13765353Y-15316990D01*
X13755829Y-15326514D01*
X13746305Y-15345562D01*
X13936782Y-15231276D02*
X13936782Y-15269371D01*
X14012972Y-15231276D02*
X14012972Y-15269371D01*
X14308210Y-15507467D02*
X14298686Y-15497943D01*
X14279639Y-15469371D01*
X14270115Y-15450324D01*
X14260591Y-15421752D01*
X14251067Y-15374133D01*
X14251067Y-15336038D01*
X14260591Y-15288419D01*
X14270115Y-15259848D01*
X14279639Y-15240800D01*
X14298686Y-15212228D01*
X14308210Y-15202705D01*
X14470115Y-15231276D02*
X14432020Y-15231276D01*
X14412972Y-15240800D01*
X14403448Y-15250324D01*
X14384401Y-15278895D01*
X14374877Y-15316990D01*
X14374877Y-15393181D01*
X14384401Y-15412228D01*
X14393924Y-15421752D01*
X14412972Y-15431276D01*
X14451067Y-15431276D01*
X14470115Y-15421752D01*
X14479639Y-15412228D01*
X14489163Y-15393181D01*
X14489163Y-15345562D01*
X14479639Y-15326514D01*
X14470115Y-15316990D01*
X14451067Y-15307467D01*
X14412972Y-15307467D01*
X14393924Y-15316990D01*
X14384401Y-15326514D01*
X14374877Y-15345562D01*
X14727258Y-15431276D02*
X14727258Y-15231276D01*
X14812972Y-15431276D02*
X14812972Y-15326514D01*
X14803448Y-15307467D01*
X14784401Y-15297943D01*
X14755829Y-15297943D01*
X14736782Y-15307467D01*
X14727258Y-15316990D01*
X14936782Y-15431276D02*
X14917734Y-15421752D01*
X14908210Y-15412228D01*
X14898686Y-15393181D01*
X14898686Y-15336038D01*
X14908210Y-15316990D01*
X14917734Y-15307467D01*
X14936782Y-15297943D01*
X14965353Y-15297943D01*
X14984401Y-15307467D01*
X14993924Y-15316990D01*
X15003448Y-15336038D01*
X15003448Y-15393181D01*
X14993924Y-15412228D01*
X14984401Y-15421752D01*
X14965353Y-15431276D01*
X14936782Y-15431276D01*
X15117734Y-15431276D02*
X15098686Y-15421752D01*
X15089163Y-15402705D01*
X15089163Y-15231276D01*
X15270115Y-15421752D02*
X15251067Y-15431276D01*
X15212972Y-15431276D01*
X15193924Y-15421752D01*
X15184401Y-15402705D01*
X15184401Y-15326514D01*
X15193924Y-15307467D01*
X15212972Y-15297943D01*
X15251067Y-15297943D01*
X15270115Y-15307467D01*
X15279639Y-15326514D01*
X15279639Y-15345562D01*
X15184401Y-15364609D01*
X15355829Y-15421752D02*
X15374877Y-15431276D01*
X15412972Y-15431276D01*
X15432020Y-15421752D01*
X15441543Y-15402705D01*
X15441543Y-15393181D01*
X15432020Y-15374133D01*
X15412972Y-15364609D01*
X15384401Y-15364609D01*
X15365353Y-15355086D01*
X15355829Y-15336038D01*
X15355829Y-15326514D01*
X15365353Y-15307467D01*
X15384401Y-15297943D01*
X15412972Y-15297943D01*
X15432020Y-15307467D01*
X15508210Y-15507467D02*
X15517734Y-15497943D01*
X15536782Y-15469371D01*
X15546305Y-15450324D01*
X15555829Y-15421752D01*
X15565353Y-15374133D01*
X15565353Y-15336038D01*
X15555829Y-15288419D01*
X15546305Y-15259848D01*
X15536782Y-15240800D01*
X15517734Y-15212228D01*
X15508210Y-15202705D01*
M02*
