%TF.GenerationSoftware,KiCad,Pcbnew,6.0.11+dfsg-1*%
%TF.CreationDate,2025-09-22T09:10:48+02:00*%
%TF.ProjectId,Rummikub_Timer,52756d6d-696b-4756-925f-54696d65722e,v1*%
%TF.SameCoordinates,Original*%
%TF.FileFunction,Copper,L2,Bot*%
%TF.FilePolarity,Positive*%
%FSLAX46Y46*%
G04 Gerber Fmt 4.6, Leading zero omitted, Abs format (unit mm)*
G04 Created by KiCad (PCBNEW 6.0.11+dfsg-1) date 2025-09-22 09:10:48*
%MOMM*%
%LPD*%
G01*
G04 APERTURE LIST*
%TA.AperFunction,ComponentPad*%
%ADD10R,1.600000X1.600000*%
%TD*%
%TA.AperFunction,ComponentPad*%
%ADD11O,1.600000X1.600000*%
%TD*%
%TA.AperFunction,ComponentPad*%
%ADD12R,1.905000X2.000000*%
%TD*%
%TA.AperFunction,ComponentPad*%
%ADD13O,1.905000X2.000000*%
%TD*%
%TA.AperFunction,ComponentPad*%
%ADD14R,1.700000X1.700000*%
%TD*%
%TA.AperFunction,ComponentPad*%
%ADD15O,1.700000X1.700000*%
%TD*%
%TA.AperFunction,ComponentPad*%
%ADD16R,5.000000X3.500000*%
%TD*%
%TA.AperFunction,ComponentPad*%
%ADD17C,1.600000*%
%TD*%
%TA.AperFunction,ComponentPad*%
%ADD18R,2.800000X2.800000*%
%TD*%
%TA.AperFunction,Conductor*%
%ADD19C,0.600000*%
%TD*%
%TA.AperFunction,Conductor*%
%ADD20C,0.300000*%
%TD*%
G04 APERTURE END LIST*
D10*
%TO.P,A1,1,D1/TX*%
%TO.N,unconnected-(A1-Pad1)*%
X170794178Y-107239308D03*
D11*
%TO.P,A1,2,D0/RX*%
%TO.N,unconnected-(A1-Pad2)*%
X170794178Y-104699308D03*
%TO.P,A1,3,~{RESET}*%
%TO.N,unconnected-(A1-Pad3)*%
X170794178Y-102159308D03*
%TO.P,A1,4,GND*%
%TO.N,GND*%
X170794178Y-99619308D03*
%TO.P,A1,5,D2*%
%TO.N,Net-(A1-Pad5)*%
X170794178Y-97079308D03*
%TO.P,A1,6,D3*%
%TO.N,Net-(A1-Pad6)*%
X170794178Y-94539308D03*
%TO.P,A1,7,D4*%
%TO.N,Net-(A1-Pad7)*%
X170794178Y-91999308D03*
%TO.P,A1,8,D5*%
%TO.N,unconnected-(A1-Pad8)*%
X170794178Y-89459308D03*
%TO.P,A1,9,D6*%
%TO.N,unconnected-(A1-Pad9)*%
X170794178Y-86919308D03*
%TO.P,A1,10,D7*%
%TO.N,unconnected-(A1-Pad10)*%
X170794178Y-84379308D03*
%TO.P,A1,11,D8*%
%TO.N,unconnected-(A1-Pad11)*%
X170794178Y-81839308D03*
%TO.P,A1,12,D9*%
%TO.N,Net-(A1-Pad12)*%
X170794178Y-79299308D03*
%TO.P,A1,13,D10*%
%TO.N,Net-(A1-Pad13)*%
X170794178Y-76759308D03*
%TO.P,A1,14,D11*%
%TO.N,unconnected-(A1-Pad14)*%
X170794178Y-74219308D03*
%TO.P,A1,15,D12*%
%TO.N,unconnected-(A1-Pad15)*%
X170794178Y-71679308D03*
%TO.P,A1,16,D13*%
%TO.N,unconnected-(A1-Pad16)*%
X155554178Y-71679308D03*
%TO.P,A1,17,3V3*%
%TO.N,unconnected-(A1-Pad17)*%
X155554178Y-74219308D03*
%TO.P,A1,18,AREF*%
%TO.N,unconnected-(A1-Pad18)*%
X155554178Y-76759308D03*
%TO.P,A1,19,A0*%
%TO.N,unconnected-(A1-Pad19)*%
X155554178Y-79299308D03*
%TO.P,A1,20,A1*%
%TO.N,Net-(A1-Pad20)*%
X155554178Y-81839308D03*
%TO.P,A1,21,A2*%
%TO.N,unconnected-(A1-Pad21)*%
X155554178Y-84379308D03*
%TO.P,A1,22,A3*%
%TO.N,unconnected-(A1-Pad22)*%
X155554178Y-86919308D03*
%TO.P,A1,23,A4*%
%TO.N,Net-(A1-Pad23)*%
X155554178Y-89459308D03*
%TO.P,A1,24,A5*%
%TO.N,Net-(A1-Pad24)*%
X155554178Y-91999308D03*
%TO.P,A1,25,A6*%
%TO.N,unconnected-(A1-Pad25)*%
X155554178Y-94539308D03*
%TO.P,A1,26,A7*%
%TO.N,unconnected-(A1-Pad26)*%
X155554178Y-97079308D03*
%TO.P,A1,27,+5V*%
%TO.N,Net-(A1-Pad27)*%
X155554178Y-99619308D03*
%TO.P,A1,28,~{RESET}*%
%TO.N,unconnected-(A1-Pad28)*%
X155554178Y-102159308D03*
%TO.P,A1,29,GND*%
%TO.N,GND*%
X155554178Y-104699308D03*
%TO.P,A1,30,VIN*%
%TO.N,unconnected-(A1-Pad30)*%
X155554178Y-107239308D03*
%TD*%
D12*
%TO.P,Q1,1,D*%
%TO.N,Net-(Q1-Pad1)*%
X175260000Y-122865000D03*
D13*
%TO.P,Q1,2,G*%
%TO.N,Net-(Q1-Pad2)*%
X177800000Y-122865000D03*
%TO.P,Q1,3,S*%
%TO.N,GND*%
X180340000Y-122865000D03*
%TD*%
D14*
%TO.P,SW1,1,A*%
%TO.N,Net-(J2-Pad3)*%
X147901678Y-72829308D03*
D15*
%TO.P,SW1,2,B*%
%TO.N,Net-(J3-Pad1)*%
X147901678Y-75369308D03*
%TD*%
D16*
%TO.P,J3,1,VIN+*%
%TO.N,Net-(J3-Pad1)*%
X141624178Y-95149308D03*
%TO.P,J3,2,VIN-*%
%TO.N,GND*%
X141624178Y-101599308D03*
%TO.P,J3,3,VOUT+*%
%TO.N,Net-(A1-Pad27)*%
X110624178Y-95099308D03*
%TO.P,J3,4,VOUT-*%
%TO.N,GND*%
X110624178Y-101599308D03*
%TD*%
D17*
%TO.P,R3,1*%
%TO.N,Net-(J3-Pad1)*%
X148575530Y-126249308D03*
D11*
%TO.P,R3,2*%
%TO.N,Net-(A1-Pad20)*%
X156195530Y-126249308D03*
%TD*%
D14*
%TO.P,BZ1,1,-*%
%TO.N,Net-(A1-Pad12)*%
X177294540Y-72047018D03*
D15*
%TO.P,BZ1,2,+*%
%TO.N,GND*%
X177294540Y-74587018D03*
%TD*%
D17*
%TO.P,R1,1*%
%TO.N,Net-(Q1-Pad1)*%
X161914178Y-117017078D03*
D11*
%TO.P,R1,2*%
%TO.N,GND*%
X169534178Y-117017078D03*
%TD*%
D14*
%TO.P,J5,1,LED_+*%
%TO.N,Net-(J5-Pad1)*%
X177686678Y-111929308D03*
D15*
%TO.P,J5,2,LED_-*%
%TO.N,Net-(Q1-Pad2)*%
X177686678Y-114469308D03*
%TD*%
D17*
%TO.P,R4,1*%
%TO.N,Net-(A1-Pad20)*%
X148574202Y-117274822D03*
D11*
%TO.P,R4,2*%
%TO.N,GND*%
X156194202Y-117274822D03*
%TD*%
D14*
%TO.P,SW4,1,1*%
%TO.N,GND*%
X176974178Y-81929308D03*
D15*
%TO.P,SW4,2,2*%
%TO.N,Net-(A1-Pad7)*%
X176974178Y-84469308D03*
%TD*%
D14*
%TO.P,SW3,1,1*%
%TO.N,GND*%
X177369178Y-92969308D03*
D15*
%TO.P,SW3,2,2*%
%TO.N,Net-(A1-Pad6)*%
X177369178Y-95509308D03*
%TD*%
D16*
%TO.P,J4,1,VIN+*%
%TO.N,Net-(A1-Pad27)*%
X141624178Y-112929308D03*
%TO.P,J4,2,VIN-*%
%TO.N,GND*%
X141624178Y-119379308D03*
%TO.P,J4,3,VOUT+*%
%TO.N,Net-(J5-Pad1)*%
X110624178Y-112879308D03*
%TO.P,J4,4,VOUT-*%
%TO.N,GND*%
X110624178Y-119379308D03*
%TD*%
D14*
%TO.P,J6,1,GND*%
%TO.N,GND*%
X150484178Y-92009308D03*
D15*
%TO.P,J6,2,VDD*%
%TO.N,Net-(A1-Pad27)*%
X150484178Y-94549308D03*
%TO.P,J6,3,SCK*%
%TO.N,Net-(A1-Pad24)*%
X150484178Y-97089308D03*
%TO.P,J6,4,SBA*%
%TO.N,Net-(A1-Pad23)*%
X150484178Y-99629308D03*
%TD*%
D17*
%TO.P,R2,1*%
%TO.N,Net-(A1-Pad13)*%
X161914178Y-126289308D03*
D11*
%TO.P,R2,2*%
%TO.N,Net-(Q1-Pad1)*%
X169534178Y-126289308D03*
%TD*%
D14*
%TO.P,J1,1,Bat_+*%
%TO.N,Net-(J1-Pad1)*%
X140324178Y-78029308D03*
D15*
%TO.P,J1,2,Bat_-*%
%TO.N,Net-(J1-Pad2)*%
X140324178Y-80569308D03*
%TD*%
D18*
%TO.P,J2,1,5V*%
%TO.N,unconnected-(J2-Pad1)*%
X109180000Y-72390000D03*
%TO.P,J2,2,GND*%
%TO.N,unconnected-(J2-Pad2)*%
X109180000Y-86590000D03*
%TO.P,J2,3,OUT+*%
%TO.N,Net-(J2-Pad3)*%
X132080000Y-72390000D03*
%TO.P,J2,4,OUT-*%
%TO.N,GND*%
X132080000Y-86890000D03*
%TO.P,J2,5,B+*%
%TO.N,Net-(J1-Pad1)*%
X132080000Y-75890000D03*
%TO.P,J2,6,B-*%
%TO.N,Net-(J1-Pad2)*%
X132080000Y-83490000D03*
%TD*%
D14*
%TO.P,SW2,1,1*%
%TO.N,GND*%
X177284178Y-102339308D03*
D15*
%TO.P,SW2,2,2*%
%TO.N,Net-(A1-Pad5)*%
X177284178Y-104879308D03*
%TD*%
D19*
%TO.N,GND*%
X180340000Y-122865000D02*
X174492078Y-117017078D01*
X174492078Y-117017078D02*
X169534178Y-117017078D01*
%TO.N,Net-(Q1-Pad1)*%
X175260000Y-122865000D02*
X172958486Y-122865000D01*
X172958486Y-122865000D02*
X169534178Y-126289308D01*
D20*
%TO.N,GND*%
X132080000Y-86890000D02*
X145364870Y-86890000D01*
X156754178Y-96582251D02*
X156754178Y-103499308D01*
X113524178Y-104499308D02*
X113524178Y-116479308D01*
X175724178Y-83179308D02*
X176974178Y-81929308D01*
X113524178Y-116479308D02*
X110624178Y-119379308D01*
X177369178Y-92969308D02*
X175724178Y-91324308D01*
X154354178Y-95879308D02*
X156051235Y-95879308D01*
X141624178Y-119379308D02*
X110624178Y-119379308D01*
X125333486Y-86890000D02*
X110624178Y-101599308D01*
X174564178Y-99619308D02*
X177284178Y-102339308D01*
X170794178Y-99619308D02*
X174564178Y-99619308D01*
X175724178Y-91324308D02*
X175724178Y-83179308D01*
X132080000Y-86890000D02*
X125333486Y-86890000D01*
X176974178Y-74907380D02*
X177294540Y-74587018D01*
X156051235Y-95879308D02*
X156754178Y-96582251D01*
X150484178Y-92009308D02*
X154354178Y-95879308D01*
X170794178Y-99619308D02*
X177369178Y-93044308D01*
X110624178Y-101599308D02*
X113524178Y-104499308D01*
X155554178Y-104699308D02*
X165714178Y-104699308D01*
X176974178Y-81929308D02*
X176974178Y-74907380D01*
X156754178Y-103499308D02*
X155554178Y-104699308D01*
X177369178Y-93044308D02*
X177369178Y-92969308D01*
X165714178Y-104699308D02*
X170794178Y-99619308D01*
X145364870Y-86890000D02*
X150484178Y-92009308D01*
%TO.N,Net-(A1-Pad27)*%
X138724178Y-92999308D02*
X148934178Y-92999308D01*
X148934178Y-92999308D02*
X155554178Y-99619308D01*
X141624178Y-112929308D02*
X138724178Y-110029308D01*
X138724178Y-110029308D02*
X138724178Y-92999308D01*
%TO.N,Net-(J3-Pad1)*%
X144524178Y-118786096D02*
X148575530Y-122837448D01*
X148575530Y-122837448D02*
X148575530Y-126249308D01*
X144524178Y-98049308D02*
X144524178Y-118786096D01*
X141624178Y-95149308D02*
X144524178Y-98049308D01*
%TD*%
M02*
