%TF.GenerationSoftware,KiCad,Pcbnew,6.0.11+dfsg-1*%
%TF.CreationDate,2025-09-22T09:11:01+02:00*%
%TF.ProjectId,Rummikub_Timer,52756d6d-696b-4756-925f-54696d65722e,v1*%
%TF.SameCoordinates,Original*%
%TF.FileFunction,Drillmap*%
%TF.FilePolarity,Positive*%
%FSLAX45Y45*%
G04 Gerber Fmt 4.5, Leading zero omitted, Abs format (unit mm)*
G04 Created by KiCad (PCBNEW 6.0.11+dfsg-1) date 2025-09-22 09:11:01*
%MOMM*%
%LPD*%
G01*
G04 APERTURE LIST*
%ADD10C,0.100000*%
%ADD11C,0.200000*%
G04 APERTURE END LIST*
D10*
X10741306Y-6605805D02*
X10741306Y-13035590D01*
X10741306Y-13035590D02*
X10741306Y-13383996D01*
X11508119Y-6645776D02*
G75*
G03*
X11508119Y-6645776I-160000J0D01*
G01*
X18237200Y-13639796D02*
G75*
G03*
X18491200Y-13385800I5J253996D01*
G01*
X11513617Y-13357855D02*
G75*
G03*
X11513617Y-13357855I-160000J0D01*
G01*
X18491200Y-6604000D02*
X18491200Y-13385800D01*
X18237200Y-13639800D02*
X10995306Y-13637996D01*
X10995306Y-6351805D02*
X18237200Y-6350000D01*
X18491205Y-6604000D02*
G75*
G03*
X18237200Y-6350000I-254000J0D01*
G01*
X10741310Y-13383996D02*
G75*
G03*
X10995306Y-13637996I254000J0D01*
G01*
X17605395Y-6646441D02*
G75*
G03*
X17605395Y-6646441I-160000J0D01*
G01*
X17602639Y-13341491D02*
G75*
G03*
X17602639Y-13341491I-160000J0D01*
G01*
X10995306Y-6351801D02*
G75*
G03*
X10741306Y-6605805I5J-254005D01*
G01*
D11*
X10993925Y-13955276D02*
X10993925Y-13755276D01*
X11041544Y-13755276D01*
X11070115Y-13764800D01*
X11089163Y-13783848D01*
X11098686Y-13802895D01*
X11108210Y-13840990D01*
X11108210Y-13869562D01*
X11098686Y-13907657D01*
X11089163Y-13926705D01*
X11070115Y-13945752D01*
X11041544Y-13955276D01*
X10993925Y-13955276D01*
X11193924Y-13955276D02*
X11193924Y-13821943D01*
X11193924Y-13860038D02*
X11203448Y-13840990D01*
X11212972Y-13831467D01*
X11232020Y-13821943D01*
X11251067Y-13821943D01*
X11317734Y-13955276D02*
X11317734Y-13821943D01*
X11317734Y-13755276D02*
X11308210Y-13764800D01*
X11317734Y-13774324D01*
X11327258Y-13764800D01*
X11317734Y-13755276D01*
X11317734Y-13774324D01*
X11441543Y-13955276D02*
X11422496Y-13945752D01*
X11412972Y-13926705D01*
X11412972Y-13755276D01*
X11546305Y-13955276D02*
X11527258Y-13945752D01*
X11517734Y-13926705D01*
X11517734Y-13755276D01*
X11774877Y-13955276D02*
X11774877Y-13755276D01*
X11841543Y-13898133D01*
X11908210Y-13755276D01*
X11908210Y-13955276D01*
X12089163Y-13955276D02*
X12089163Y-13850514D01*
X12079639Y-13831467D01*
X12060591Y-13821943D01*
X12022496Y-13821943D01*
X12003448Y-13831467D01*
X12089163Y-13945752D02*
X12070115Y-13955276D01*
X12022496Y-13955276D01*
X12003448Y-13945752D01*
X11993924Y-13926705D01*
X11993924Y-13907657D01*
X12003448Y-13888609D01*
X12022496Y-13879086D01*
X12070115Y-13879086D01*
X12089163Y-13869562D01*
X12184401Y-13821943D02*
X12184401Y-14021943D01*
X12184401Y-13831467D02*
X12203448Y-13821943D01*
X12241543Y-13821943D01*
X12260591Y-13831467D01*
X12270115Y-13840990D01*
X12279639Y-13860038D01*
X12279639Y-13917181D01*
X12270115Y-13936228D01*
X12260591Y-13945752D01*
X12241543Y-13955276D01*
X12203448Y-13955276D01*
X12184401Y-13945752D01*
X12365353Y-13936228D02*
X12374877Y-13945752D01*
X12365353Y-13955276D01*
X12355829Y-13945752D01*
X12365353Y-13936228D01*
X12365353Y-13955276D01*
X12365353Y-13831467D02*
X12374877Y-13840990D01*
X12365353Y-13850514D01*
X12355829Y-13840990D01*
X12365353Y-13831467D01*
X12365353Y-13850514D01*
M02*
