%TF.GenerationSoftware,KiCad,Pcbnew,6.0.11+dfsg-1*%
%TF.CreationDate,2025-09-22T09:10:49+02:00*%
%TF.ProjectId,Rummikub_Timer,52756d6d-696b-4756-925f-54696d65722e,v1*%
%TF.SameCoordinates,Original*%
%TF.FileFunction,Legend,Top*%
%TF.FilePolarity,Positive*%
%FSLAX46Y46*%
G04 Gerber Fmt 4.6, Leading zero omitted, Abs format (unit mm)*
G04 Created by KiCad (PCBNEW 6.0.11+dfsg-1) date 2025-09-22 09:10:49*
%MOMM*%
%LPD*%
G01*
G04 APERTURE LIST*
%ADD10C,0.150000*%
%ADD11C,0.120000*%
%ADD12R,5.000000X3.500000*%
G04 APERTURE END LIST*
D10*
%TO.C,A1*%
X162459892Y-112485974D02*
X162936082Y-112485974D01*
X162364654Y-112771688D02*
X162697987Y-111771688D01*
X163031320Y-112771688D01*
X163888463Y-112771688D02*
X163317035Y-112771688D01*
X163602749Y-112771688D02*
X163602749Y-111771688D01*
X163507511Y-111914546D01*
X163412273Y-112009784D01*
X163317035Y-112057403D01*
X162070844Y-94927403D02*
X162070844Y-94451212D01*
X162356558Y-95022641D02*
X161356558Y-94689308D01*
X162356558Y-94355974D01*
X162356558Y-94022641D02*
X161689892Y-94022641D01*
X161880368Y-94022641D02*
X161785130Y-93975022D01*
X161737511Y-93927403D01*
X161689892Y-93832165D01*
X161689892Y-93736927D01*
X162356558Y-92975022D02*
X161356558Y-92975022D01*
X162308939Y-92975022D02*
X162356558Y-93070260D01*
X162356558Y-93260736D01*
X162308939Y-93355974D01*
X162261320Y-93403593D01*
X162166082Y-93451212D01*
X161880368Y-93451212D01*
X161785130Y-93403593D01*
X161737511Y-93355974D01*
X161689892Y-93260736D01*
X161689892Y-93070260D01*
X161737511Y-92975022D01*
X161689892Y-92070260D02*
X162356558Y-92070260D01*
X161689892Y-92498831D02*
X162213701Y-92498831D01*
X162308939Y-92451212D01*
X162356558Y-92355974D01*
X162356558Y-92213117D01*
X162308939Y-92117879D01*
X162261320Y-92070260D01*
X162356558Y-91594069D02*
X161689892Y-91594069D01*
X161356558Y-91594069D02*
X161404178Y-91641688D01*
X161451797Y-91594069D01*
X161404178Y-91546450D01*
X161356558Y-91594069D01*
X161451797Y-91594069D01*
X161689892Y-91117879D02*
X162356558Y-91117879D01*
X161785130Y-91117879D02*
X161737511Y-91070260D01*
X161689892Y-90975022D01*
X161689892Y-90832165D01*
X161737511Y-90736927D01*
X161832749Y-90689308D01*
X162356558Y-90689308D01*
X162356558Y-90070260D02*
X162308939Y-90165498D01*
X162261320Y-90213117D01*
X162166082Y-90260736D01*
X161880368Y-90260736D01*
X161785130Y-90213117D01*
X161737511Y-90165498D01*
X161689892Y-90070260D01*
X161689892Y-89927403D01*
X161737511Y-89832165D01*
X161785130Y-89784546D01*
X161880368Y-89736927D01*
X162166082Y-89736927D01*
X162261320Y-89784546D01*
X162308939Y-89832165D01*
X162356558Y-89927403D01*
X162356558Y-90070260D01*
X162451797Y-89546450D02*
X162451797Y-88784546D01*
X162356558Y-88546450D02*
X161356558Y-88546450D01*
X162356558Y-87975022D01*
X161356558Y-87975022D01*
X162356558Y-87070260D02*
X161832749Y-87070260D01*
X161737511Y-87117879D01*
X161689892Y-87213117D01*
X161689892Y-87403593D01*
X161737511Y-87498831D01*
X162308939Y-87070260D02*
X162356558Y-87165498D01*
X162356558Y-87403593D01*
X162308939Y-87498831D01*
X162213701Y-87546450D01*
X162118463Y-87546450D01*
X162023225Y-87498831D01*
X161975606Y-87403593D01*
X161975606Y-87165498D01*
X161927987Y-87070260D01*
X161689892Y-86594069D02*
X162356558Y-86594069D01*
X161785130Y-86594069D02*
X161737511Y-86546450D01*
X161689892Y-86451212D01*
X161689892Y-86308355D01*
X161737511Y-86213117D01*
X161832749Y-86165498D01*
X162356558Y-86165498D01*
X162356558Y-85546450D02*
X162308939Y-85641688D01*
X162261320Y-85689308D01*
X162166082Y-85736927D01*
X161880368Y-85736927D01*
X161785130Y-85689308D01*
X161737511Y-85641688D01*
X161689892Y-85546450D01*
X161689892Y-85403593D01*
X161737511Y-85308355D01*
X161785130Y-85260736D01*
X161880368Y-85213117D01*
X162166082Y-85213117D01*
X162261320Y-85260736D01*
X162308939Y-85308355D01*
X162356558Y-85403593D01*
X162356558Y-85546450D01*
X162451797Y-85022641D02*
X162451797Y-84260736D01*
X161689892Y-84117879D02*
X162356558Y-83879784D01*
X161689892Y-83641688D01*
X161356558Y-83355974D02*
X161356558Y-82736927D01*
X161737511Y-83070260D01*
X161737511Y-82927403D01*
X161785130Y-82832165D01*
X161832749Y-82784546D01*
X161927987Y-82736927D01*
X162166082Y-82736927D01*
X162261320Y-82784546D01*
X162308939Y-82832165D01*
X162356558Y-82927403D01*
X162356558Y-83213117D01*
X162308939Y-83308355D01*
X162261320Y-83355974D01*
X162261320Y-82308355D02*
X162308939Y-82260736D01*
X162356558Y-82308355D01*
X162308939Y-82355974D01*
X162261320Y-82308355D01*
X162356558Y-82308355D01*
X162356558Y-81927403D02*
X161689892Y-81403593D01*
X161689892Y-81927403D02*
X162356558Y-81403593D01*
X164436082Y-72226927D02*
X164436082Y-71417403D01*
X164388463Y-71322165D01*
X164340844Y-71274546D01*
X164245606Y-71226927D01*
X164055130Y-71226927D01*
X163959892Y-71274546D01*
X163912273Y-71322165D01*
X163864654Y-71417403D01*
X163864654Y-72226927D01*
X163436082Y-71274546D02*
X163293225Y-71226927D01*
X163055130Y-71226927D01*
X162959892Y-71274546D01*
X162912273Y-71322165D01*
X162864654Y-71417403D01*
X162864654Y-71512641D01*
X162912273Y-71607879D01*
X162959892Y-71655498D01*
X163055130Y-71703117D01*
X163245606Y-71750736D01*
X163340844Y-71798355D01*
X163388463Y-71845974D01*
X163436082Y-71941212D01*
X163436082Y-72036450D01*
X163388463Y-72131688D01*
X163340844Y-72179308D01*
X163245606Y-72226927D01*
X163007511Y-72226927D01*
X162864654Y-72179308D01*
X162102749Y-71750736D02*
X161959892Y-71703117D01*
X161912273Y-71655498D01*
X161864654Y-71560260D01*
X161864654Y-71417403D01*
X161912273Y-71322165D01*
X161959892Y-71274546D01*
X162055130Y-71226927D01*
X162436082Y-71226927D01*
X162436082Y-72226927D01*
X162102749Y-72226927D01*
X162007511Y-72179308D01*
X161959892Y-72131688D01*
X161912273Y-72036450D01*
X161912273Y-71941212D01*
X161959892Y-71845974D01*
X162007511Y-71798355D01*
X162102749Y-71750736D01*
X162436082Y-71750736D01*
%TO.C,Q1*%
X177704761Y-119142619D02*
X177609523Y-119095000D01*
X177514285Y-118999761D01*
X177371428Y-118856904D01*
X177276190Y-118809285D01*
X177180952Y-118809285D01*
X177228571Y-119047380D02*
X177133333Y-118999761D01*
X177038095Y-118904523D01*
X176990476Y-118714047D01*
X176990476Y-118380714D01*
X177038095Y-118190238D01*
X177133333Y-118095000D01*
X177228571Y-118047380D01*
X177419047Y-118047380D01*
X177514285Y-118095000D01*
X177609523Y-118190238D01*
X177657142Y-118380714D01*
X177657142Y-118714047D01*
X177609523Y-118904523D01*
X177514285Y-118999761D01*
X177419047Y-119047380D01*
X177228571Y-119047380D01*
X178609523Y-119047380D02*
X178038095Y-119047380D01*
X178323809Y-119047380D02*
X178323809Y-118047380D01*
X178228571Y-118190238D01*
X178133333Y-118285476D01*
X178038095Y-118333095D01*
X174942857Y-125817380D02*
X174942857Y-124817380D01*
X175990476Y-125817380D02*
X175657142Y-125341190D01*
X175419047Y-125817380D02*
X175419047Y-124817380D01*
X175800000Y-124817380D01*
X175895238Y-124865000D01*
X175942857Y-124912619D01*
X175990476Y-125007857D01*
X175990476Y-125150714D01*
X175942857Y-125245952D01*
X175895238Y-125293571D01*
X175800000Y-125341190D01*
X175419047Y-125341190D01*
X176895238Y-125817380D02*
X176419047Y-125817380D01*
X176419047Y-124817380D01*
X177133333Y-124817380D02*
X177800000Y-124817380D01*
X177133333Y-125817380D01*
X177800000Y-125817380D01*
X178609523Y-125150714D02*
X178609523Y-125817380D01*
X178371428Y-124769761D02*
X178133333Y-125484047D01*
X178752380Y-125484047D01*
X179561904Y-125150714D02*
X179561904Y-125817380D01*
X179323809Y-124769761D02*
X179085714Y-125484047D01*
X179704761Y-125484047D01*
X180085714Y-125817380D02*
X180085714Y-124817380D01*
X180657142Y-125817380D01*
X180657142Y-124817380D01*
%TO.C,SW1*%
X146568344Y-70904069D02*
X146711201Y-70951688D01*
X146949297Y-70951688D01*
X147044535Y-70904069D01*
X147092154Y-70856450D01*
X147139773Y-70761212D01*
X147139773Y-70665974D01*
X147092154Y-70570736D01*
X147044535Y-70523117D01*
X146949297Y-70475498D01*
X146758820Y-70427879D01*
X146663582Y-70380260D01*
X146615963Y-70332641D01*
X146568344Y-70237403D01*
X146568344Y-70142165D01*
X146615963Y-70046927D01*
X146663582Y-69999308D01*
X146758820Y-69951688D01*
X146996916Y-69951688D01*
X147139773Y-69999308D01*
X147473106Y-69951688D02*
X147711201Y-70951688D01*
X147901678Y-70237403D01*
X148092154Y-70951688D01*
X148330249Y-69951688D01*
X149235011Y-70951688D02*
X148663582Y-70951688D01*
X148949297Y-70951688D02*
X148949297Y-69951688D01*
X148854058Y-70094546D01*
X148758820Y-70189784D01*
X148663582Y-70237403D01*
X142949297Y-77151688D02*
X143139773Y-77151688D01*
X143235011Y-77199308D01*
X143330249Y-77294546D01*
X143377868Y-77485022D01*
X143377868Y-77818355D01*
X143330249Y-78008831D01*
X143235011Y-78104069D01*
X143139773Y-78151688D01*
X142949297Y-78151688D01*
X142854058Y-78104069D01*
X142758820Y-78008831D01*
X142711201Y-77818355D01*
X142711201Y-77485022D01*
X142758820Y-77294546D01*
X142854058Y-77199308D01*
X142949297Y-77151688D01*
X143806439Y-77485022D02*
X143806439Y-78151688D01*
X143806439Y-77580260D02*
X143854058Y-77532641D01*
X143949297Y-77485022D01*
X144092154Y-77485022D01*
X144187392Y-77532641D01*
X144235011Y-77627879D01*
X144235011Y-78151688D01*
X145425487Y-77104069D02*
X144568344Y-78389784D01*
X145949297Y-77151688D02*
X146139773Y-77151688D01*
X146235011Y-77199308D01*
X146330249Y-77294546D01*
X146377868Y-77485022D01*
X146377868Y-77818355D01*
X146330249Y-78008831D01*
X146235011Y-78104069D01*
X146139773Y-78151688D01*
X145949297Y-78151688D01*
X145854058Y-78104069D01*
X145758820Y-78008831D01*
X145711201Y-77818355D01*
X145711201Y-77485022D01*
X145758820Y-77294546D01*
X145854058Y-77199308D01*
X145949297Y-77151688D01*
X146663582Y-77485022D02*
X147044535Y-77485022D01*
X146806439Y-78151688D02*
X146806439Y-77294546D01*
X146854058Y-77199308D01*
X146949297Y-77151688D01*
X147044535Y-77151688D01*
X147235011Y-77485022D02*
X147615963Y-77485022D01*
X147377868Y-78151688D02*
X147377868Y-77294546D01*
X147425487Y-77199308D01*
X147520725Y-77151688D01*
X147615963Y-77151688D01*
X148663582Y-78104069D02*
X148806439Y-78151688D01*
X149044535Y-78151688D01*
X149139773Y-78104069D01*
X149187392Y-78056450D01*
X149235011Y-77961212D01*
X149235011Y-77865974D01*
X149187392Y-77770736D01*
X149139773Y-77723117D01*
X149044535Y-77675498D01*
X148854058Y-77627879D01*
X148758820Y-77580260D01*
X148711201Y-77532641D01*
X148663582Y-77437403D01*
X148663582Y-77342165D01*
X148711201Y-77246927D01*
X148758820Y-77199308D01*
X148854058Y-77151688D01*
X149092154Y-77151688D01*
X149235011Y-77199308D01*
X149568344Y-77485022D02*
X149758820Y-78151688D01*
X149949297Y-77675498D01*
X150139773Y-78151688D01*
X150330249Y-77485022D01*
X150711201Y-78151688D02*
X150711201Y-77485022D01*
X150711201Y-77151688D02*
X150663582Y-77199308D01*
X150711201Y-77246927D01*
X150758820Y-77199308D01*
X150711201Y-77151688D01*
X150711201Y-77246927D01*
X151044535Y-77485022D02*
X151425487Y-77485022D01*
X151187392Y-77151688D02*
X151187392Y-78008831D01*
X151235011Y-78104069D01*
X151330249Y-78151688D01*
X151425487Y-78151688D01*
X152187392Y-78104069D02*
X152092154Y-78151688D01*
X151901678Y-78151688D01*
X151806439Y-78104069D01*
X151758820Y-78056450D01*
X151711201Y-77961212D01*
X151711201Y-77675498D01*
X151758820Y-77580260D01*
X151806439Y-77532641D01*
X151901678Y-77485022D01*
X152092154Y-77485022D01*
X152187392Y-77532641D01*
X152615963Y-78151688D02*
X152615963Y-77151688D01*
X153044535Y-78151688D02*
X153044535Y-77627879D01*
X152996916Y-77532641D01*
X152901678Y-77485022D01*
X152758820Y-77485022D01*
X152663582Y-77532641D01*
X152615963Y-77580260D01*
%TO.C,J3*%
X127290844Y-100341688D02*
X127290844Y-101055974D01*
X127243225Y-101198831D01*
X127147987Y-101294069D01*
X127005130Y-101341688D01*
X126909892Y-101341688D01*
X127671797Y-100341688D02*
X128290844Y-100341688D01*
X127957511Y-100722641D01*
X128100368Y-100722641D01*
X128195606Y-100770260D01*
X128243225Y-100817879D01*
X128290844Y-100913117D01*
X128290844Y-101151212D01*
X128243225Y-101246450D01*
X128195606Y-101294069D01*
X128100368Y-101341688D01*
X127814654Y-101341688D01*
X127719416Y-101294069D01*
X127671797Y-101246450D01*
X124219416Y-96801688D02*
X123743225Y-96801688D01*
X123695606Y-97277879D01*
X123743225Y-97230260D01*
X123838463Y-97182641D01*
X124076558Y-97182641D01*
X124171797Y-97230260D01*
X124219416Y-97277879D01*
X124267035Y-97373117D01*
X124267035Y-97611212D01*
X124219416Y-97706450D01*
X124171797Y-97754069D01*
X124076558Y-97801688D01*
X123838463Y-97801688D01*
X123743225Y-97754069D01*
X123695606Y-97706450D01*
X124552749Y-96801688D02*
X124886082Y-97801688D01*
X125219416Y-96801688D01*
X126647987Y-97277879D02*
X126790844Y-97325498D01*
X126838463Y-97373117D01*
X126886082Y-97468355D01*
X126886082Y-97611212D01*
X126838463Y-97706450D01*
X126790844Y-97754069D01*
X126695606Y-97801688D01*
X126314654Y-97801688D01*
X126314654Y-96801688D01*
X126647987Y-96801688D01*
X126743225Y-96849308D01*
X126790844Y-96896927D01*
X126838463Y-96992165D01*
X126838463Y-97087403D01*
X126790844Y-97182641D01*
X126743225Y-97230260D01*
X126647987Y-97277879D01*
X126314654Y-97277879D01*
X127457511Y-97801688D02*
X127362273Y-97754069D01*
X127314654Y-97706450D01*
X127267035Y-97611212D01*
X127267035Y-97325498D01*
X127314654Y-97230260D01*
X127362273Y-97182641D01*
X127457511Y-97135022D01*
X127600368Y-97135022D01*
X127695606Y-97182641D01*
X127743225Y-97230260D01*
X127790844Y-97325498D01*
X127790844Y-97611212D01*
X127743225Y-97706450D01*
X127695606Y-97754069D01*
X127600368Y-97801688D01*
X127457511Y-97801688D01*
X128362273Y-97801688D02*
X128267035Y-97754069D01*
X128219416Y-97706450D01*
X128171797Y-97611212D01*
X128171797Y-97325498D01*
X128219416Y-97230260D01*
X128267035Y-97182641D01*
X128362273Y-97135022D01*
X128505130Y-97135022D01*
X128600368Y-97182641D01*
X128647987Y-97230260D01*
X128695606Y-97325498D01*
X128695606Y-97611212D01*
X128647987Y-97706450D01*
X128600368Y-97754069D01*
X128505130Y-97801688D01*
X128362273Y-97801688D01*
X129076558Y-97754069D02*
X129171797Y-97801688D01*
X129362273Y-97801688D01*
X129457511Y-97754069D01*
X129505130Y-97658831D01*
X129505130Y-97611212D01*
X129457511Y-97515974D01*
X129362273Y-97468355D01*
X129219416Y-97468355D01*
X129124178Y-97420736D01*
X129076558Y-97325498D01*
X129076558Y-97277879D01*
X129124178Y-97182641D01*
X129219416Y-97135022D01*
X129362273Y-97135022D01*
X129457511Y-97182641D01*
X129790844Y-97135022D02*
X130171797Y-97135022D01*
X129933701Y-96801688D02*
X129933701Y-97658831D01*
X129981320Y-97754069D01*
X130076558Y-97801688D01*
X130171797Y-97801688D01*
X130886082Y-97754069D02*
X130790844Y-97801688D01*
X130600368Y-97801688D01*
X130505130Y-97754069D01*
X130457511Y-97658831D01*
X130457511Y-97277879D01*
X130505130Y-97182641D01*
X130600368Y-97135022D01*
X130790844Y-97135022D01*
X130886082Y-97182641D01*
X130933701Y-97277879D01*
X130933701Y-97373117D01*
X130457511Y-97468355D01*
X131362273Y-97801688D02*
X131362273Y-97135022D01*
X131362273Y-97325498D02*
X131409892Y-97230260D01*
X131457511Y-97182641D01*
X131552749Y-97135022D01*
X131647987Y-97135022D01*
X109243225Y-104301688D02*
X109576558Y-105301688D01*
X109909892Y-104301688D01*
X110433701Y-104301688D02*
X110624178Y-104301688D01*
X110719416Y-104349308D01*
X110814654Y-104444546D01*
X110862273Y-104635022D01*
X110862273Y-104968355D01*
X110814654Y-105158831D01*
X110719416Y-105254069D01*
X110624178Y-105301688D01*
X110433701Y-105301688D01*
X110338463Y-105254069D01*
X110243225Y-105158831D01*
X110195606Y-104968355D01*
X110195606Y-104635022D01*
X110243225Y-104444546D01*
X110338463Y-104349308D01*
X110433701Y-104301688D01*
X111290844Y-104301688D02*
X111290844Y-105111212D01*
X111338463Y-105206450D01*
X111386082Y-105254069D01*
X111481320Y-105301688D01*
X111671797Y-105301688D01*
X111767035Y-105254069D01*
X111814654Y-105206450D01*
X111862273Y-105111212D01*
X111862273Y-104301688D01*
X112195606Y-104301688D02*
X112767035Y-104301688D01*
X112481320Y-105301688D02*
X112481320Y-104301688D01*
X113100368Y-104920736D02*
X113862273Y-104920736D01*
X139909892Y-91301688D02*
X140243225Y-92301688D01*
X140576558Y-91301688D01*
X140909892Y-92301688D02*
X140909892Y-91301688D01*
X141386082Y-92301688D02*
X141386082Y-91301688D01*
X141957511Y-92301688D01*
X141957511Y-91301688D01*
X142433701Y-91920736D02*
X143195606Y-91920736D01*
X142814654Y-92301688D02*
X142814654Y-91539784D01*
X109243225Y-91301688D02*
X109576558Y-92301688D01*
X109909892Y-91301688D01*
X110433701Y-91301688D02*
X110624178Y-91301688D01*
X110719416Y-91349308D01*
X110814654Y-91444546D01*
X110862273Y-91635022D01*
X110862273Y-91968355D01*
X110814654Y-92158831D01*
X110719416Y-92254069D01*
X110624178Y-92301688D01*
X110433701Y-92301688D01*
X110338463Y-92254069D01*
X110243225Y-92158831D01*
X110195606Y-91968355D01*
X110195606Y-91635022D01*
X110243225Y-91444546D01*
X110338463Y-91349308D01*
X110433701Y-91301688D01*
X111290844Y-91301688D02*
X111290844Y-92111212D01*
X111338463Y-92206450D01*
X111386082Y-92254069D01*
X111481320Y-92301688D01*
X111671797Y-92301688D01*
X111767035Y-92254069D01*
X111814654Y-92206450D01*
X111862273Y-92111212D01*
X111862273Y-91301688D01*
X112195606Y-91301688D02*
X112767035Y-91301688D01*
X112481320Y-92301688D02*
X112481320Y-91301688D01*
X113100368Y-91920736D02*
X113862273Y-91920736D01*
X113481320Y-92301688D02*
X113481320Y-91539784D01*
X139909892Y-104301688D02*
X140243225Y-105301688D01*
X140576558Y-104301688D01*
X140909892Y-105301688D02*
X140909892Y-104301688D01*
X141386082Y-105301688D02*
X141386082Y-104301688D01*
X141957511Y-105301688D01*
X141957511Y-104301688D01*
X142433701Y-104920736D02*
X143195606Y-104920736D01*
%TO.C,R3*%
X152218863Y-124331688D02*
X151885530Y-123855498D01*
X151647434Y-124331688D02*
X151647434Y-123331688D01*
X152028387Y-123331688D01*
X152123625Y-123379308D01*
X152171244Y-123426927D01*
X152218863Y-123522165D01*
X152218863Y-123665022D01*
X152171244Y-123760260D01*
X152123625Y-123807879D01*
X152028387Y-123855498D01*
X151647434Y-123855498D01*
X152552196Y-123331688D02*
X153171244Y-123331688D01*
X152837910Y-123712641D01*
X152980768Y-123712641D01*
X153076006Y-123760260D01*
X153123625Y-123807879D01*
X153171244Y-123903117D01*
X153171244Y-124141212D01*
X153123625Y-124236450D01*
X153076006Y-124284069D01*
X152980768Y-124331688D01*
X152695053Y-124331688D01*
X152599815Y-124284069D01*
X152552196Y-124236450D01*
X144576006Y-128071688D02*
X144909339Y-129071688D01*
X145242672Y-128071688D01*
X145718863Y-129071688D02*
X145623625Y-129024069D01*
X145576006Y-128976450D01*
X145528387Y-128881212D01*
X145528387Y-128595498D01*
X145576006Y-128500260D01*
X145623625Y-128452641D01*
X145718863Y-128405022D01*
X145861720Y-128405022D01*
X145956958Y-128452641D01*
X146004577Y-128500260D01*
X146052196Y-128595498D01*
X146052196Y-128881212D01*
X146004577Y-128976450D01*
X145956958Y-129024069D01*
X145861720Y-129071688D01*
X145718863Y-129071688D01*
X146623625Y-129071688D02*
X146528387Y-129024069D01*
X146480768Y-128928831D01*
X146480768Y-128071688D01*
X146861720Y-128405022D02*
X147242672Y-128405022D01*
X147004577Y-128071688D02*
X147004577Y-128928831D01*
X147052196Y-129024069D01*
X147147434Y-129071688D01*
X147242672Y-129071688D01*
X148004577Y-129071688D02*
X148004577Y-128547879D01*
X147956958Y-128452641D01*
X147861720Y-128405022D01*
X147671244Y-128405022D01*
X147576006Y-128452641D01*
X148004577Y-129024069D02*
X147909339Y-129071688D01*
X147671244Y-129071688D01*
X147576006Y-129024069D01*
X147528387Y-128928831D01*
X147528387Y-128833593D01*
X147576006Y-128738355D01*
X147671244Y-128690736D01*
X147909339Y-128690736D01*
X148004577Y-128643117D01*
X148909339Y-128405022D02*
X148909339Y-129214546D01*
X148861720Y-129309784D01*
X148814101Y-129357403D01*
X148718863Y-129405022D01*
X148576006Y-129405022D01*
X148480768Y-129357403D01*
X148909339Y-129024069D02*
X148814101Y-129071688D01*
X148623625Y-129071688D01*
X148528387Y-129024069D01*
X148480768Y-128976450D01*
X148433149Y-128881212D01*
X148433149Y-128595498D01*
X148480768Y-128500260D01*
X148528387Y-128452641D01*
X148623625Y-128405022D01*
X148814101Y-128405022D01*
X148909339Y-128452641D01*
X149766482Y-129024069D02*
X149671244Y-129071688D01*
X149480768Y-129071688D01*
X149385530Y-129024069D01*
X149337910Y-128928831D01*
X149337910Y-128547879D01*
X149385530Y-128452641D01*
X149480768Y-128405022D01*
X149671244Y-128405022D01*
X149766482Y-128452641D01*
X149814101Y-128547879D01*
X149814101Y-128643117D01*
X149337910Y-128738355D01*
X151004577Y-129071688D02*
X151004577Y-128071688D01*
X151242672Y-128071688D01*
X151385530Y-128119308D01*
X151480768Y-128214546D01*
X151528387Y-128309784D01*
X151576006Y-128500260D01*
X151576006Y-128643117D01*
X151528387Y-128833593D01*
X151480768Y-128928831D01*
X151385530Y-129024069D01*
X151242672Y-129071688D01*
X151004577Y-129071688D01*
X152004577Y-129071688D02*
X152004577Y-128405022D01*
X152004577Y-128071688D02*
X151956958Y-128119308D01*
X152004577Y-128166927D01*
X152052196Y-128119308D01*
X152004577Y-128071688D01*
X152004577Y-128166927D01*
X152385530Y-128405022D02*
X152623625Y-129071688D01*
X152861720Y-128405022D01*
X153242672Y-129071688D02*
X153242672Y-128405022D01*
X153242672Y-128071688D02*
X153195053Y-128119308D01*
X153242672Y-128166927D01*
X153290291Y-128119308D01*
X153242672Y-128071688D01*
X153242672Y-128166927D01*
X154147434Y-129071688D02*
X154147434Y-128071688D01*
X154147434Y-129024069D02*
X154052196Y-129071688D01*
X153861720Y-129071688D01*
X153766482Y-129024069D01*
X153718863Y-128976450D01*
X153671244Y-128881212D01*
X153671244Y-128595498D01*
X153718863Y-128500260D01*
X153766482Y-128452641D01*
X153861720Y-128405022D01*
X154052196Y-128405022D01*
X154147434Y-128452641D01*
X155004577Y-129024069D02*
X154909339Y-129071688D01*
X154718863Y-129071688D01*
X154623625Y-129024069D01*
X154576006Y-128928831D01*
X154576006Y-128547879D01*
X154623625Y-128452641D01*
X154718863Y-128405022D01*
X154909339Y-128405022D01*
X155004577Y-128452641D01*
X155052196Y-128547879D01*
X155052196Y-128643117D01*
X154576006Y-128738355D01*
X155480768Y-129071688D02*
X155480768Y-128405022D01*
X155480768Y-128595498D02*
X155528387Y-128500260D01*
X155576006Y-128452641D01*
X155671244Y-128405022D01*
X155766482Y-128405022D01*
X156814101Y-128166927D02*
X156861720Y-128119308D01*
X156956958Y-128071688D01*
X157195053Y-128071688D01*
X157290291Y-128119308D01*
X157337910Y-128166927D01*
X157385530Y-128262165D01*
X157385530Y-128357403D01*
X157337910Y-128500260D01*
X156766482Y-129071688D01*
X157385530Y-129071688D01*
X157766482Y-128166927D02*
X157814101Y-128119308D01*
X157909339Y-128071688D01*
X158147434Y-128071688D01*
X158242672Y-128119308D01*
X158290291Y-128166927D01*
X158337910Y-128262165D01*
X158337910Y-128357403D01*
X158290291Y-128500260D01*
X157718863Y-129071688D01*
X158337910Y-129071688D01*
X158956958Y-128071688D02*
X159052196Y-128071688D01*
X159147434Y-128119308D01*
X159195053Y-128166927D01*
X159242672Y-128262165D01*
X159290291Y-128452641D01*
X159290291Y-128690736D01*
X159242672Y-128881212D01*
X159195053Y-128976450D01*
X159147434Y-129024069D01*
X159052196Y-129071688D01*
X158956958Y-129071688D01*
X158861720Y-129024069D01*
X158814101Y-128976450D01*
X158766482Y-128881212D01*
X158718863Y-128690736D01*
X158718863Y-128452641D01*
X158766482Y-128262165D01*
X158814101Y-128166927D01*
X158861720Y-128119308D01*
X158956958Y-128071688D01*
X159718863Y-129071688D02*
X159718863Y-128071688D01*
X159814101Y-128690736D02*
X160099815Y-129071688D01*
X160099815Y-128405022D02*
X159718863Y-128785974D01*
%TO.C,BZ1*%
X176413587Y-69645589D02*
X176556444Y-69693208D01*
X176604063Y-69740827D01*
X176651682Y-69836065D01*
X176651682Y-69978922D01*
X176604063Y-70074160D01*
X176556444Y-70121779D01*
X176461206Y-70169398D01*
X176080254Y-70169398D01*
X176080254Y-69169398D01*
X176413587Y-69169398D01*
X176508825Y-69217018D01*
X176556444Y-69264637D01*
X176604063Y-69359875D01*
X176604063Y-69455113D01*
X176556444Y-69550351D01*
X176508825Y-69597970D01*
X176413587Y-69645589D01*
X176080254Y-69645589D01*
X176985016Y-69169398D02*
X177651682Y-69169398D01*
X176985016Y-70169398D01*
X177651682Y-70169398D01*
X178556444Y-70169398D02*
X177985016Y-70169398D01*
X178270730Y-70169398D02*
X178270730Y-69169398D01*
X178175492Y-69312256D01*
X178080254Y-69407494D01*
X177985016Y-69455113D01*
X175365968Y-76845589D02*
X175508825Y-76893208D01*
X175556444Y-76940827D01*
X175604063Y-77036065D01*
X175604063Y-77178922D01*
X175556444Y-77274160D01*
X175508825Y-77321779D01*
X175413587Y-77369398D01*
X175032635Y-77369398D01*
X175032635Y-76369398D01*
X175365968Y-76369398D01*
X175461206Y-76417018D01*
X175508825Y-76464637D01*
X175556444Y-76559875D01*
X175556444Y-76655113D01*
X175508825Y-76750351D01*
X175461206Y-76797970D01*
X175365968Y-76845589D01*
X175032635Y-76845589D01*
X176461206Y-76702732D02*
X176461206Y-77369398D01*
X176032635Y-76702732D02*
X176032635Y-77226541D01*
X176080254Y-77321779D01*
X176175492Y-77369398D01*
X176318349Y-77369398D01*
X176413587Y-77321779D01*
X176461206Y-77274160D01*
X176842159Y-76702732D02*
X177365968Y-76702732D01*
X176842159Y-77369398D01*
X177365968Y-77369398D01*
X177651682Y-76702732D02*
X178175492Y-76702732D01*
X177651682Y-77369398D01*
X178175492Y-77369398D01*
X178937397Y-77321779D02*
X178842159Y-77369398D01*
X178651682Y-77369398D01*
X178556444Y-77321779D01*
X178508825Y-77226541D01*
X178508825Y-76845589D01*
X178556444Y-76750351D01*
X178651682Y-76702732D01*
X178842159Y-76702732D01*
X178937397Y-76750351D01*
X178985016Y-76845589D01*
X178985016Y-76940827D01*
X178508825Y-77036065D01*
X179413587Y-77369398D02*
X179413587Y-76702732D01*
X179413587Y-76893208D02*
X179461206Y-76797970D01*
X179508825Y-76750351D01*
X179604063Y-76702732D01*
X179699301Y-76702732D01*
%TO.C,R1*%
X165557511Y-115099458D02*
X165224178Y-114623268D01*
X164986082Y-115099458D02*
X164986082Y-114099458D01*
X165367035Y-114099458D01*
X165462273Y-114147078D01*
X165509892Y-114194697D01*
X165557511Y-114289935D01*
X165557511Y-114432792D01*
X165509892Y-114528030D01*
X165462273Y-114575649D01*
X165367035Y-114623268D01*
X164986082Y-114623268D01*
X166509892Y-115099458D02*
X165938463Y-115099458D01*
X166224178Y-115099458D02*
X166224178Y-114099458D01*
X166128939Y-114242316D01*
X166033701Y-114337554D01*
X165938463Y-114385173D01*
X163605130Y-119839458D02*
X163033701Y-119839458D01*
X163319416Y-119839458D02*
X163319416Y-118839458D01*
X163224178Y-118982316D01*
X163128939Y-119077554D01*
X163033701Y-119125173D01*
X164224178Y-118839458D02*
X164319416Y-118839458D01*
X164414654Y-118887078D01*
X164462273Y-118934697D01*
X164509892Y-119029935D01*
X164557511Y-119220411D01*
X164557511Y-119458506D01*
X164509892Y-119648982D01*
X164462273Y-119744220D01*
X164414654Y-119791839D01*
X164319416Y-119839458D01*
X164224178Y-119839458D01*
X164128939Y-119791839D01*
X164081320Y-119744220D01*
X164033701Y-119648982D01*
X163986082Y-119458506D01*
X163986082Y-119220411D01*
X164033701Y-119029935D01*
X164081320Y-118934697D01*
X164128939Y-118887078D01*
X164224178Y-118839458D01*
X165176558Y-118839458D02*
X165271797Y-118839458D01*
X165367035Y-118887078D01*
X165414654Y-118934697D01*
X165462273Y-119029935D01*
X165509892Y-119220411D01*
X165509892Y-119458506D01*
X165462273Y-119648982D01*
X165414654Y-119744220D01*
X165367035Y-119791839D01*
X165271797Y-119839458D01*
X165176558Y-119839458D01*
X165081320Y-119791839D01*
X165033701Y-119744220D01*
X164986082Y-119648982D01*
X164938463Y-119458506D01*
X164938463Y-119220411D01*
X164986082Y-119029935D01*
X165033701Y-118934697D01*
X165081320Y-118887078D01*
X165176558Y-118839458D01*
X166700368Y-119839458D02*
X166700368Y-118839458D01*
X167271797Y-119839458D02*
X166843225Y-119268030D01*
X167271797Y-118839458D02*
X166700368Y-119410887D01*
X167652749Y-119839458D02*
X167890844Y-119839458D01*
X167890844Y-119648982D01*
X167795606Y-119601363D01*
X167700368Y-119506125D01*
X167652749Y-119363268D01*
X167652749Y-119125173D01*
X167700368Y-118982316D01*
X167795606Y-118887078D01*
X167938463Y-118839458D01*
X168128939Y-118839458D01*
X168271797Y-118887078D01*
X168367035Y-118982316D01*
X168414654Y-119125173D01*
X168414654Y-119363268D01*
X168367035Y-119506125D01*
X168271797Y-119601363D01*
X168176558Y-119648982D01*
X168176558Y-119839458D01*
X168414654Y-119839458D01*
%TO.C,J5*%
X177353344Y-109051688D02*
X177353344Y-109765974D01*
X177305725Y-109908831D01*
X177210487Y-110004069D01*
X177067630Y-110051688D01*
X176972392Y-110051688D01*
X178305725Y-109051688D02*
X177829535Y-109051688D01*
X177781916Y-109527879D01*
X177829535Y-109480260D01*
X177924773Y-109432641D01*
X178162868Y-109432641D01*
X178258106Y-109480260D01*
X178305725Y-109527879D01*
X178353344Y-109623117D01*
X178353344Y-109861212D01*
X178305725Y-109956450D01*
X178258106Y-110004069D01*
X178162868Y-110051688D01*
X177924773Y-110051688D01*
X177829535Y-110004069D01*
X177781916Y-109956450D01*
X172067630Y-116727879D02*
X172210487Y-116775498D01*
X172258106Y-116823117D01*
X172305725Y-116918355D01*
X172305725Y-117061212D01*
X172258106Y-117156450D01*
X172210487Y-117204069D01*
X172115249Y-117251688D01*
X171734297Y-117251688D01*
X171734297Y-116251688D01*
X172067630Y-116251688D01*
X172162868Y-116299308D01*
X172210487Y-116346927D01*
X172258106Y-116442165D01*
X172258106Y-116537403D01*
X172210487Y-116632641D01*
X172162868Y-116680260D01*
X172067630Y-116727879D01*
X171734297Y-116727879D01*
X172734297Y-117251688D02*
X172734297Y-116251688D01*
X173734297Y-116299308D02*
X173639058Y-116251688D01*
X173496201Y-116251688D01*
X173353344Y-116299308D01*
X173258106Y-116394546D01*
X173210487Y-116489784D01*
X173162868Y-116680260D01*
X173162868Y-116823117D01*
X173210487Y-117013593D01*
X173258106Y-117108831D01*
X173353344Y-117204069D01*
X173496201Y-117251688D01*
X173591439Y-117251688D01*
X173734297Y-117204069D01*
X173781916Y-117156450D01*
X173781916Y-116823117D01*
X173591439Y-116823117D01*
X173972392Y-117346927D02*
X174734297Y-117346927D01*
X175305725Y-116727879D02*
X175448582Y-116775498D01*
X175496201Y-116823117D01*
X175543820Y-116918355D01*
X175543820Y-117061212D01*
X175496201Y-117156450D01*
X175448582Y-117204069D01*
X175353344Y-117251688D01*
X174972392Y-117251688D01*
X174972392Y-116251688D01*
X175305725Y-116251688D01*
X175400963Y-116299308D01*
X175448582Y-116346927D01*
X175496201Y-116442165D01*
X175496201Y-116537403D01*
X175448582Y-116632641D01*
X175400963Y-116680260D01*
X175305725Y-116727879D01*
X174972392Y-116727879D01*
X175972392Y-116251688D02*
X175972392Y-117061212D01*
X176020011Y-117156450D01*
X176067630Y-117204069D01*
X176162868Y-117251688D01*
X176353344Y-117251688D01*
X176448582Y-117204069D01*
X176496201Y-117156450D01*
X176543820Y-117061212D01*
X176543820Y-116251688D01*
X176877154Y-116251688D02*
X177448582Y-116251688D01*
X177162868Y-117251688D02*
X177162868Y-116251688D01*
X177639058Y-116251688D02*
X178210487Y-116251688D01*
X177924773Y-117251688D02*
X177924773Y-116251688D01*
X178734297Y-116251688D02*
X178924773Y-116251688D01*
X179020011Y-116299308D01*
X179115249Y-116394546D01*
X179162868Y-116585022D01*
X179162868Y-116918355D01*
X179115249Y-117108831D01*
X179020011Y-117204069D01*
X178924773Y-117251688D01*
X178734297Y-117251688D01*
X178639058Y-117204069D01*
X178543820Y-117108831D01*
X178496201Y-116918355D01*
X178496201Y-116585022D01*
X178543820Y-116394546D01*
X178639058Y-116299308D01*
X178734297Y-116251688D01*
X179591439Y-117251688D02*
X179591439Y-116251688D01*
X180162868Y-117251688D01*
X180162868Y-116251688D01*
X180400963Y-117346927D02*
X181162868Y-117346927D01*
X181877154Y-117251688D02*
X181400963Y-117251688D01*
X181400963Y-116251688D01*
X182210487Y-116727879D02*
X182543820Y-116727879D01*
X182686678Y-117251688D02*
X182210487Y-117251688D01*
X182210487Y-116251688D01*
X182686678Y-116251688D01*
X183115249Y-117251688D02*
X183115249Y-116251688D01*
X183353344Y-116251688D01*
X183496201Y-116299308D01*
X183591439Y-116394546D01*
X183639058Y-116489784D01*
X183686678Y-116680260D01*
X183686678Y-116823117D01*
X183639058Y-117013593D01*
X183591439Y-117108831D01*
X183496201Y-117204069D01*
X183353344Y-117251688D01*
X183115249Y-117251688D01*
%TO.C,R4*%
X152217535Y-115357202D02*
X151884202Y-114881012D01*
X151646106Y-115357202D02*
X151646106Y-114357202D01*
X152027059Y-114357202D01*
X152122297Y-114404822D01*
X152169916Y-114452441D01*
X152217535Y-114547679D01*
X152217535Y-114690536D01*
X152169916Y-114785774D01*
X152122297Y-114833393D01*
X152027059Y-114881012D01*
X151646106Y-114881012D01*
X153074678Y-114690536D02*
X153074678Y-115357202D01*
X152836582Y-114309583D02*
X152598487Y-115023869D01*
X153217535Y-115023869D01*
X144574678Y-119097202D02*
X144908011Y-120097202D01*
X145241344Y-119097202D01*
X145717535Y-120097202D02*
X145622297Y-120049583D01*
X145574678Y-120001964D01*
X145527059Y-119906726D01*
X145527059Y-119621012D01*
X145574678Y-119525774D01*
X145622297Y-119478155D01*
X145717535Y-119430536D01*
X145860392Y-119430536D01*
X145955630Y-119478155D01*
X146003249Y-119525774D01*
X146050868Y-119621012D01*
X146050868Y-119906726D01*
X146003249Y-120001964D01*
X145955630Y-120049583D01*
X145860392Y-120097202D01*
X145717535Y-120097202D01*
X146622297Y-120097202D02*
X146527059Y-120049583D01*
X146479440Y-119954345D01*
X146479440Y-119097202D01*
X146860392Y-119430536D02*
X147241344Y-119430536D01*
X147003249Y-119097202D02*
X147003249Y-119954345D01*
X147050868Y-120049583D01*
X147146106Y-120097202D01*
X147241344Y-120097202D01*
X148003249Y-120097202D02*
X148003249Y-119573393D01*
X147955630Y-119478155D01*
X147860392Y-119430536D01*
X147669916Y-119430536D01*
X147574678Y-119478155D01*
X148003249Y-120049583D02*
X147908011Y-120097202D01*
X147669916Y-120097202D01*
X147574678Y-120049583D01*
X147527059Y-119954345D01*
X147527059Y-119859107D01*
X147574678Y-119763869D01*
X147669916Y-119716250D01*
X147908011Y-119716250D01*
X148003249Y-119668631D01*
X148908011Y-119430536D02*
X148908011Y-120240060D01*
X148860392Y-120335298D01*
X148812773Y-120382917D01*
X148717535Y-120430536D01*
X148574678Y-120430536D01*
X148479440Y-120382917D01*
X148908011Y-120049583D02*
X148812773Y-120097202D01*
X148622297Y-120097202D01*
X148527059Y-120049583D01*
X148479440Y-120001964D01*
X148431821Y-119906726D01*
X148431821Y-119621012D01*
X148479440Y-119525774D01*
X148527059Y-119478155D01*
X148622297Y-119430536D01*
X148812773Y-119430536D01*
X148908011Y-119478155D01*
X149765154Y-120049583D02*
X149669916Y-120097202D01*
X149479440Y-120097202D01*
X149384202Y-120049583D01*
X149336582Y-119954345D01*
X149336582Y-119573393D01*
X149384202Y-119478155D01*
X149479440Y-119430536D01*
X149669916Y-119430536D01*
X149765154Y-119478155D01*
X149812773Y-119573393D01*
X149812773Y-119668631D01*
X149336582Y-119763869D01*
X151003249Y-120097202D02*
X151003249Y-119097202D01*
X151241344Y-119097202D01*
X151384202Y-119144822D01*
X151479440Y-119240060D01*
X151527059Y-119335298D01*
X151574678Y-119525774D01*
X151574678Y-119668631D01*
X151527059Y-119859107D01*
X151479440Y-119954345D01*
X151384202Y-120049583D01*
X151241344Y-120097202D01*
X151003249Y-120097202D01*
X152003249Y-120097202D02*
X152003249Y-119430536D01*
X152003249Y-119097202D02*
X151955630Y-119144822D01*
X152003249Y-119192441D01*
X152050868Y-119144822D01*
X152003249Y-119097202D01*
X152003249Y-119192441D01*
X152384202Y-119430536D02*
X152622297Y-120097202D01*
X152860392Y-119430536D01*
X153241344Y-120097202D02*
X153241344Y-119430536D01*
X153241344Y-119097202D02*
X153193725Y-119144822D01*
X153241344Y-119192441D01*
X153288963Y-119144822D01*
X153241344Y-119097202D01*
X153241344Y-119192441D01*
X154146106Y-120097202D02*
X154146106Y-119097202D01*
X154146106Y-120049583D02*
X154050868Y-120097202D01*
X153860392Y-120097202D01*
X153765154Y-120049583D01*
X153717535Y-120001964D01*
X153669916Y-119906726D01*
X153669916Y-119621012D01*
X153717535Y-119525774D01*
X153765154Y-119478155D01*
X153860392Y-119430536D01*
X154050868Y-119430536D01*
X154146106Y-119478155D01*
X155003249Y-120049583D02*
X154908011Y-120097202D01*
X154717535Y-120097202D01*
X154622297Y-120049583D01*
X154574678Y-119954345D01*
X154574678Y-119573393D01*
X154622297Y-119478155D01*
X154717535Y-119430536D01*
X154908011Y-119430536D01*
X155003249Y-119478155D01*
X155050868Y-119573393D01*
X155050868Y-119668631D01*
X154574678Y-119763869D01*
X155479440Y-120097202D02*
X155479440Y-119430536D01*
X155479440Y-119621012D02*
X155527059Y-119525774D01*
X155574678Y-119478155D01*
X155669916Y-119430536D01*
X155765154Y-119430536D01*
X157384202Y-120097202D02*
X156812773Y-120097202D01*
X157098487Y-120097202D02*
X157098487Y-119097202D01*
X157003249Y-119240060D01*
X156908011Y-119335298D01*
X156812773Y-119382917D01*
X158003249Y-119097202D02*
X158098487Y-119097202D01*
X158193725Y-119144822D01*
X158241344Y-119192441D01*
X158288963Y-119287679D01*
X158336582Y-119478155D01*
X158336582Y-119716250D01*
X158288963Y-119906726D01*
X158241344Y-120001964D01*
X158193725Y-120049583D01*
X158098487Y-120097202D01*
X158003249Y-120097202D01*
X157908011Y-120049583D01*
X157860392Y-120001964D01*
X157812773Y-119906726D01*
X157765154Y-119716250D01*
X157765154Y-119478155D01*
X157812773Y-119287679D01*
X157860392Y-119192441D01*
X157908011Y-119144822D01*
X158003249Y-119097202D01*
X158955630Y-119097202D02*
X159050868Y-119097202D01*
X159146106Y-119144822D01*
X159193725Y-119192441D01*
X159241344Y-119287679D01*
X159288963Y-119478155D01*
X159288963Y-119716250D01*
X159241344Y-119906726D01*
X159193725Y-120001964D01*
X159146106Y-120049583D01*
X159050868Y-120097202D01*
X158955630Y-120097202D01*
X158860392Y-120049583D01*
X158812773Y-120001964D01*
X158765154Y-119906726D01*
X158717535Y-119716250D01*
X158717535Y-119478155D01*
X158765154Y-119287679D01*
X158812773Y-119192441D01*
X158860392Y-119144822D01*
X158955630Y-119097202D01*
X159717535Y-120097202D02*
X159717535Y-119097202D01*
X159812773Y-119716250D02*
X160098487Y-120097202D01*
X160098487Y-119430536D02*
X159717535Y-119811488D01*
%TO.C,SW4*%
X175640844Y-80004069D02*
X175783701Y-80051688D01*
X176021797Y-80051688D01*
X176117035Y-80004069D01*
X176164654Y-79956450D01*
X176212273Y-79861212D01*
X176212273Y-79765974D01*
X176164654Y-79670736D01*
X176117035Y-79623117D01*
X176021797Y-79575498D01*
X175831320Y-79527879D01*
X175736082Y-79480260D01*
X175688463Y-79432641D01*
X175640844Y-79337403D01*
X175640844Y-79242165D01*
X175688463Y-79146927D01*
X175736082Y-79099308D01*
X175831320Y-79051688D01*
X176069416Y-79051688D01*
X176212273Y-79099308D01*
X176545606Y-79051688D02*
X176783701Y-80051688D01*
X176974178Y-79337403D01*
X177164654Y-80051688D01*
X177402749Y-79051688D01*
X178212273Y-79385022D02*
X178212273Y-80051688D01*
X177974178Y-79004069D02*
X177736082Y-79718355D01*
X178355130Y-79718355D01*
X173783701Y-86870736D02*
X174545606Y-86870736D01*
X174783701Y-87346927D02*
X175545606Y-87346927D01*
X176117035Y-86727879D02*
X176259892Y-86775498D01*
X176307511Y-86823117D01*
X176355130Y-86918355D01*
X176355130Y-87061212D01*
X176307511Y-87156450D01*
X176259892Y-87204069D01*
X176164654Y-87251688D01*
X175783701Y-87251688D01*
X175783701Y-86251688D01*
X176117035Y-86251688D01*
X176212273Y-86299308D01*
X176259892Y-86346927D01*
X176307511Y-86442165D01*
X176307511Y-86537403D01*
X176259892Y-86632641D01*
X176212273Y-86680260D01*
X176117035Y-86727879D01*
X175783701Y-86727879D01*
X177212273Y-86585022D02*
X177212273Y-87251688D01*
X176783701Y-86585022D02*
X176783701Y-87108831D01*
X176831320Y-87204069D01*
X176926558Y-87251688D01*
X177069416Y-87251688D01*
X177164654Y-87204069D01*
X177212273Y-87156450D01*
X177545606Y-86585022D02*
X177926558Y-86585022D01*
X177688463Y-86251688D02*
X177688463Y-87108831D01*
X177736082Y-87204069D01*
X177831320Y-87251688D01*
X177926558Y-87251688D01*
X178117035Y-86585022D02*
X178497987Y-86585022D01*
X178259892Y-86251688D02*
X178259892Y-87108831D01*
X178307511Y-87204069D01*
X178402749Y-87251688D01*
X178497987Y-87251688D01*
X178974178Y-87251688D02*
X178878939Y-87204069D01*
X178831320Y-87156450D01*
X178783701Y-87061212D01*
X178783701Y-86775498D01*
X178831320Y-86680260D01*
X178878939Y-86632641D01*
X178974178Y-86585022D01*
X179117035Y-86585022D01*
X179212273Y-86632641D01*
X179259892Y-86680260D01*
X179307511Y-86775498D01*
X179307511Y-87061212D01*
X179259892Y-87156450D01*
X179212273Y-87204069D01*
X179117035Y-87251688D01*
X178974178Y-87251688D01*
X179736082Y-86585022D02*
X179736082Y-87251688D01*
X179736082Y-86680260D02*
X179783701Y-86632641D01*
X179878939Y-86585022D01*
X180021797Y-86585022D01*
X180117035Y-86632641D01*
X180164654Y-86727879D01*
X180164654Y-87251688D01*
%TO.C,SW3*%
X176035844Y-91044069D02*
X176178701Y-91091688D01*
X176416797Y-91091688D01*
X176512035Y-91044069D01*
X176559654Y-90996450D01*
X176607273Y-90901212D01*
X176607273Y-90805974D01*
X176559654Y-90710736D01*
X176512035Y-90663117D01*
X176416797Y-90615498D01*
X176226320Y-90567879D01*
X176131082Y-90520260D01*
X176083463Y-90472641D01*
X176035844Y-90377403D01*
X176035844Y-90282165D01*
X176083463Y-90186927D01*
X176131082Y-90139308D01*
X176226320Y-90091688D01*
X176464416Y-90091688D01*
X176607273Y-90139308D01*
X176940606Y-90091688D02*
X177178701Y-91091688D01*
X177369178Y-90377403D01*
X177559654Y-91091688D01*
X177797749Y-90091688D01*
X178083463Y-90091688D02*
X178702511Y-90091688D01*
X178369178Y-90472641D01*
X178512035Y-90472641D01*
X178607273Y-90520260D01*
X178654892Y-90567879D01*
X178702511Y-90663117D01*
X178702511Y-90901212D01*
X178654892Y-90996450D01*
X178607273Y-91044069D01*
X178512035Y-91091688D01*
X178226320Y-91091688D01*
X178131082Y-91044069D01*
X178083463Y-90996450D01*
X174178701Y-97910736D02*
X174940606Y-97910736D01*
X174559654Y-98291688D02*
X174559654Y-97529784D01*
X175178701Y-98386927D02*
X175940606Y-98386927D01*
X176512035Y-97767879D02*
X176654892Y-97815498D01*
X176702511Y-97863117D01*
X176750130Y-97958355D01*
X176750130Y-98101212D01*
X176702511Y-98196450D01*
X176654892Y-98244069D01*
X176559654Y-98291688D01*
X176178701Y-98291688D01*
X176178701Y-97291688D01*
X176512035Y-97291688D01*
X176607273Y-97339308D01*
X176654892Y-97386927D01*
X176702511Y-97482165D01*
X176702511Y-97577403D01*
X176654892Y-97672641D01*
X176607273Y-97720260D01*
X176512035Y-97767879D01*
X176178701Y-97767879D01*
X177607273Y-97625022D02*
X177607273Y-98291688D01*
X177178701Y-97625022D02*
X177178701Y-98148831D01*
X177226320Y-98244069D01*
X177321558Y-98291688D01*
X177464416Y-98291688D01*
X177559654Y-98244069D01*
X177607273Y-98196450D01*
X177940606Y-97625022D02*
X178321558Y-97625022D01*
X178083463Y-97291688D02*
X178083463Y-98148831D01*
X178131082Y-98244069D01*
X178226320Y-98291688D01*
X178321558Y-98291688D01*
X178512035Y-97625022D02*
X178892987Y-97625022D01*
X178654892Y-97291688D02*
X178654892Y-98148831D01*
X178702511Y-98244069D01*
X178797749Y-98291688D01*
X178892987Y-98291688D01*
X179369178Y-98291688D02*
X179273939Y-98244069D01*
X179226320Y-98196450D01*
X179178701Y-98101212D01*
X179178701Y-97815498D01*
X179226320Y-97720260D01*
X179273939Y-97672641D01*
X179369178Y-97625022D01*
X179512035Y-97625022D01*
X179607273Y-97672641D01*
X179654892Y-97720260D01*
X179702511Y-97815498D01*
X179702511Y-98101212D01*
X179654892Y-98196450D01*
X179607273Y-98244069D01*
X179512035Y-98291688D01*
X179369178Y-98291688D01*
X180131082Y-97625022D02*
X180131082Y-98291688D01*
X180131082Y-97720260D02*
X180178701Y-97672641D01*
X180273939Y-97625022D01*
X180416797Y-97625022D01*
X180512035Y-97672641D01*
X180559654Y-97767879D01*
X180559654Y-98291688D01*
%TO.C,J4*%
X127290844Y-118121688D02*
X127290844Y-118835974D01*
X127243225Y-118978831D01*
X127147987Y-119074069D01*
X127005130Y-119121688D01*
X126909892Y-119121688D01*
X128195606Y-118455022D02*
X128195606Y-119121688D01*
X127957511Y-118074069D02*
X127719416Y-118788355D01*
X128338463Y-118788355D01*
X123790844Y-115581688D02*
X123219416Y-115581688D01*
X123505130Y-115581688D02*
X123505130Y-114581688D01*
X123409892Y-114724546D01*
X123314654Y-114819784D01*
X123219416Y-114867403D01*
X124171797Y-114676927D02*
X124219416Y-114629308D01*
X124314654Y-114581688D01*
X124552749Y-114581688D01*
X124647987Y-114629308D01*
X124695606Y-114676927D01*
X124743225Y-114772165D01*
X124743225Y-114867403D01*
X124695606Y-115010260D01*
X124124178Y-115581688D01*
X124743225Y-115581688D01*
X125028939Y-114581688D02*
X125362273Y-115581688D01*
X125695606Y-114581688D01*
X127124178Y-115057879D02*
X127267035Y-115105498D01*
X127314654Y-115153117D01*
X127362273Y-115248355D01*
X127362273Y-115391212D01*
X127314654Y-115486450D01*
X127267035Y-115534069D01*
X127171797Y-115581688D01*
X126790844Y-115581688D01*
X126790844Y-114581688D01*
X127124178Y-114581688D01*
X127219416Y-114629308D01*
X127267035Y-114676927D01*
X127314654Y-114772165D01*
X127314654Y-114867403D01*
X127267035Y-114962641D01*
X127219416Y-115010260D01*
X127124178Y-115057879D01*
X126790844Y-115057879D01*
X127933701Y-115581688D02*
X127838463Y-115534069D01*
X127790844Y-115486450D01*
X127743225Y-115391212D01*
X127743225Y-115105498D01*
X127790844Y-115010260D01*
X127838463Y-114962641D01*
X127933701Y-114915022D01*
X128076558Y-114915022D01*
X128171797Y-114962641D01*
X128219416Y-115010260D01*
X128267035Y-115105498D01*
X128267035Y-115391212D01*
X128219416Y-115486450D01*
X128171797Y-115534069D01*
X128076558Y-115581688D01*
X127933701Y-115581688D01*
X128838463Y-115581688D02*
X128743225Y-115534069D01*
X128695606Y-115486450D01*
X128647987Y-115391212D01*
X128647987Y-115105498D01*
X128695606Y-115010260D01*
X128743225Y-114962641D01*
X128838463Y-114915022D01*
X128981320Y-114915022D01*
X129076558Y-114962641D01*
X129124178Y-115010260D01*
X129171797Y-115105498D01*
X129171797Y-115391212D01*
X129124178Y-115486450D01*
X129076558Y-115534069D01*
X128981320Y-115581688D01*
X128838463Y-115581688D01*
X129552749Y-115534069D02*
X129647987Y-115581688D01*
X129838463Y-115581688D01*
X129933701Y-115534069D01*
X129981320Y-115438831D01*
X129981320Y-115391212D01*
X129933701Y-115295974D01*
X129838463Y-115248355D01*
X129695606Y-115248355D01*
X129600368Y-115200736D01*
X129552749Y-115105498D01*
X129552749Y-115057879D01*
X129600368Y-114962641D01*
X129695606Y-114915022D01*
X129838463Y-114915022D01*
X129933701Y-114962641D01*
X130267035Y-114915022D02*
X130647987Y-114915022D01*
X130409892Y-114581688D02*
X130409892Y-115438831D01*
X130457511Y-115534069D01*
X130552749Y-115581688D01*
X130647987Y-115581688D01*
X131362273Y-115534069D02*
X131267035Y-115581688D01*
X131076558Y-115581688D01*
X130981320Y-115534069D01*
X130933701Y-115438831D01*
X130933701Y-115057879D01*
X130981320Y-114962641D01*
X131076558Y-114915022D01*
X131267035Y-114915022D01*
X131362273Y-114962641D01*
X131409892Y-115057879D01*
X131409892Y-115153117D01*
X130933701Y-115248355D01*
X131838463Y-115581688D02*
X131838463Y-114915022D01*
X131838463Y-115105498D02*
X131886082Y-115010260D01*
X131933701Y-114962641D01*
X132028939Y-114915022D01*
X132124178Y-114915022D01*
X109243225Y-109081688D02*
X109576558Y-110081688D01*
X109909892Y-109081688D01*
X110433701Y-109081688D02*
X110624178Y-109081688D01*
X110719416Y-109129308D01*
X110814654Y-109224546D01*
X110862273Y-109415022D01*
X110862273Y-109748355D01*
X110814654Y-109938831D01*
X110719416Y-110034069D01*
X110624178Y-110081688D01*
X110433701Y-110081688D01*
X110338463Y-110034069D01*
X110243225Y-109938831D01*
X110195606Y-109748355D01*
X110195606Y-109415022D01*
X110243225Y-109224546D01*
X110338463Y-109129308D01*
X110433701Y-109081688D01*
X111290844Y-109081688D02*
X111290844Y-109891212D01*
X111338463Y-109986450D01*
X111386082Y-110034069D01*
X111481320Y-110081688D01*
X111671797Y-110081688D01*
X111767035Y-110034069D01*
X111814654Y-109986450D01*
X111862273Y-109891212D01*
X111862273Y-109081688D01*
X112195606Y-109081688D02*
X112767035Y-109081688D01*
X112481320Y-110081688D02*
X112481320Y-109081688D01*
X113100368Y-109700736D02*
X113862273Y-109700736D01*
X113481320Y-110081688D02*
X113481320Y-109319784D01*
X109243225Y-122081688D02*
X109576558Y-123081688D01*
X109909892Y-122081688D01*
X110433701Y-122081688D02*
X110624178Y-122081688D01*
X110719416Y-122129308D01*
X110814654Y-122224546D01*
X110862273Y-122415022D01*
X110862273Y-122748355D01*
X110814654Y-122938831D01*
X110719416Y-123034069D01*
X110624178Y-123081688D01*
X110433701Y-123081688D01*
X110338463Y-123034069D01*
X110243225Y-122938831D01*
X110195606Y-122748355D01*
X110195606Y-122415022D01*
X110243225Y-122224546D01*
X110338463Y-122129308D01*
X110433701Y-122081688D01*
X111290844Y-122081688D02*
X111290844Y-122891212D01*
X111338463Y-122986450D01*
X111386082Y-123034069D01*
X111481320Y-123081688D01*
X111671797Y-123081688D01*
X111767035Y-123034069D01*
X111814654Y-122986450D01*
X111862273Y-122891212D01*
X111862273Y-122081688D01*
X112195606Y-122081688D02*
X112767035Y-122081688D01*
X112481320Y-123081688D02*
X112481320Y-122081688D01*
X113100368Y-122700736D02*
X113862273Y-122700736D01*
X139909892Y-122081688D02*
X140243225Y-123081688D01*
X140576558Y-122081688D01*
X140909892Y-123081688D02*
X140909892Y-122081688D01*
X141386082Y-123081688D02*
X141386082Y-122081688D01*
X141957511Y-123081688D01*
X141957511Y-122081688D01*
X142433701Y-122700736D02*
X143195606Y-122700736D01*
X139909892Y-109081688D02*
X140243225Y-110081688D01*
X140576558Y-109081688D01*
X140909892Y-110081688D02*
X140909892Y-109081688D01*
X141386082Y-110081688D02*
X141386082Y-109081688D01*
X141957511Y-110081688D01*
X141957511Y-109081688D01*
X142433701Y-109700736D02*
X143195606Y-109700736D01*
X142814654Y-110081688D02*
X142814654Y-109319784D01*
%TO.C,J6*%
X150150844Y-89131688D02*
X150150844Y-89845974D01*
X150103225Y-89988831D01*
X150007987Y-90084069D01*
X149865130Y-90131688D01*
X149769892Y-90131688D01*
X151055606Y-89131688D02*
X150865130Y-89131688D01*
X150769892Y-89179308D01*
X150722273Y-89226927D01*
X150627035Y-89369784D01*
X150579416Y-89560260D01*
X150579416Y-89941212D01*
X150627035Y-90036450D01*
X150674654Y-90084069D01*
X150769892Y-90131688D01*
X150960368Y-90131688D01*
X151055606Y-90084069D01*
X151103225Y-90036450D01*
X151150844Y-89941212D01*
X151150844Y-89703117D01*
X151103225Y-89607879D01*
X151055606Y-89560260D01*
X150960368Y-89512641D01*
X150769892Y-89512641D01*
X150674654Y-89560260D01*
X150627035Y-89607879D01*
X150579416Y-89703117D01*
X149031797Y-101411688D02*
X149222273Y-101411688D01*
X149317511Y-101459308D01*
X149412749Y-101554546D01*
X149460368Y-101745022D01*
X149460368Y-102078355D01*
X149412749Y-102268831D01*
X149317511Y-102364069D01*
X149222273Y-102411688D01*
X149031797Y-102411688D01*
X148936558Y-102364069D01*
X148841320Y-102268831D01*
X148793701Y-102078355D01*
X148793701Y-101745022D01*
X148841320Y-101554546D01*
X148936558Y-101459308D01*
X149031797Y-101411688D01*
X150365130Y-102411688D02*
X149888939Y-102411688D01*
X149888939Y-101411688D01*
X150698463Y-101887879D02*
X151031797Y-101887879D01*
X151174654Y-102411688D02*
X150698463Y-102411688D01*
X150698463Y-101411688D01*
X151174654Y-101411688D01*
X151603225Y-102411688D02*
X151603225Y-101411688D01*
X151841320Y-101411688D01*
X151984178Y-101459308D01*
X152079416Y-101554546D01*
X152127035Y-101649784D01*
X152174654Y-101840260D01*
X152174654Y-101983117D01*
X152127035Y-102173593D01*
X152079416Y-102268831D01*
X151984178Y-102364069D01*
X151841320Y-102411688D01*
X151603225Y-102411688D01*
%TO.C,R2*%
X165557511Y-124371688D02*
X165224178Y-123895498D01*
X164986082Y-124371688D02*
X164986082Y-123371688D01*
X165367035Y-123371688D01*
X165462273Y-123419308D01*
X165509892Y-123466927D01*
X165557511Y-123562165D01*
X165557511Y-123705022D01*
X165509892Y-123800260D01*
X165462273Y-123847879D01*
X165367035Y-123895498D01*
X164986082Y-123895498D01*
X165938463Y-123466927D02*
X165986082Y-123419308D01*
X166081320Y-123371688D01*
X166319416Y-123371688D01*
X166414654Y-123419308D01*
X166462273Y-123466927D01*
X166509892Y-123562165D01*
X166509892Y-123657403D01*
X166462273Y-123800260D01*
X165890844Y-124371688D01*
X166509892Y-124371688D01*
X164105130Y-129111688D02*
X163533701Y-129111688D01*
X163819416Y-129111688D02*
X163819416Y-128111688D01*
X163724178Y-128254546D01*
X163628939Y-128349784D01*
X163533701Y-128397403D01*
X164724178Y-128111688D02*
X164819416Y-128111688D01*
X164914654Y-128159308D01*
X164962273Y-128206927D01*
X165009892Y-128302165D01*
X165057511Y-128492641D01*
X165057511Y-128730736D01*
X165009892Y-128921212D01*
X164962273Y-129016450D01*
X164914654Y-129064069D01*
X164819416Y-129111688D01*
X164724178Y-129111688D01*
X164628939Y-129064069D01*
X164581320Y-129016450D01*
X164533701Y-128921212D01*
X164486082Y-128730736D01*
X164486082Y-128492641D01*
X164533701Y-128302165D01*
X164581320Y-128206927D01*
X164628939Y-128159308D01*
X164724178Y-128111688D01*
X165676558Y-128111688D02*
X165771797Y-128111688D01*
X165867035Y-128159308D01*
X165914654Y-128206927D01*
X165962273Y-128302165D01*
X166009892Y-128492641D01*
X166009892Y-128730736D01*
X165962273Y-128921212D01*
X165914654Y-129016450D01*
X165867035Y-129064069D01*
X165771797Y-129111688D01*
X165676558Y-129111688D01*
X165581320Y-129064069D01*
X165533701Y-129016450D01*
X165486082Y-128921212D01*
X165438463Y-128730736D01*
X165438463Y-128492641D01*
X165486082Y-128302165D01*
X165533701Y-128206927D01*
X165581320Y-128159308D01*
X165676558Y-128111688D01*
X167152749Y-129111688D02*
X167390844Y-129111688D01*
X167390844Y-128921212D01*
X167295606Y-128873593D01*
X167200368Y-128778355D01*
X167152749Y-128635498D01*
X167152749Y-128397403D01*
X167200368Y-128254546D01*
X167295606Y-128159308D01*
X167438463Y-128111688D01*
X167628939Y-128111688D01*
X167771797Y-128159308D01*
X167867035Y-128254546D01*
X167914654Y-128397403D01*
X167914654Y-128635498D01*
X167867035Y-128778355D01*
X167771797Y-128873593D01*
X167676558Y-128921212D01*
X167676558Y-129111688D01*
X167914654Y-129111688D01*
%TO.C,J1*%
X139990844Y-75151688D02*
X139990844Y-75865974D01*
X139943225Y-76008831D01*
X139847987Y-76104069D01*
X139705130Y-76151688D01*
X139609892Y-76151688D01*
X140990844Y-76151688D02*
X140419416Y-76151688D01*
X140705130Y-76151688D02*
X140705130Y-75151688D01*
X140609892Y-75294546D01*
X140514654Y-75389784D01*
X140419416Y-75437403D01*
X136419416Y-83561688D02*
X135943225Y-83561688D01*
X135943225Y-82561688D01*
X136752749Y-83561688D02*
X136752749Y-82895022D01*
X136752749Y-82561688D02*
X136705130Y-82609308D01*
X136752749Y-82656927D01*
X136800368Y-82609308D01*
X136752749Y-82561688D01*
X136752749Y-82656927D01*
X137228939Y-83561688D02*
X137228939Y-82561688D01*
X137609892Y-82561688D01*
X137705130Y-82609308D01*
X137752749Y-82656927D01*
X137800368Y-82752165D01*
X137800368Y-82895022D01*
X137752749Y-82990260D01*
X137705130Y-83037879D01*
X137609892Y-83085498D01*
X137228939Y-83085498D01*
X138371797Y-83561688D02*
X138276558Y-83514069D01*
X138228939Y-83466450D01*
X138181320Y-83371212D01*
X138181320Y-83085498D01*
X138228939Y-82990260D01*
X138276558Y-82942641D01*
X138371797Y-82895022D01*
X138514654Y-82895022D01*
X138609892Y-82942641D01*
X138657511Y-82990260D01*
X138705130Y-83085498D01*
X138705130Y-83371212D01*
X138657511Y-83466450D01*
X138609892Y-83514069D01*
X138514654Y-83561688D01*
X138371797Y-83561688D01*
X140228939Y-83037879D02*
X140371797Y-83085498D01*
X140419416Y-83133117D01*
X140467035Y-83228355D01*
X140467035Y-83371212D01*
X140419416Y-83466450D01*
X140371797Y-83514069D01*
X140276558Y-83561688D01*
X139895606Y-83561688D01*
X139895606Y-82561688D01*
X140228939Y-82561688D01*
X140324178Y-82609308D01*
X140371797Y-82656927D01*
X140419416Y-82752165D01*
X140419416Y-82847403D01*
X140371797Y-82942641D01*
X140324178Y-82990260D01*
X140228939Y-83037879D01*
X139895606Y-83037879D01*
X141324178Y-83561688D02*
X141324178Y-83037879D01*
X141276558Y-82942641D01*
X141181320Y-82895022D01*
X140990844Y-82895022D01*
X140895606Y-82942641D01*
X141324178Y-83514069D02*
X141228939Y-83561688D01*
X140990844Y-83561688D01*
X140895606Y-83514069D01*
X140847987Y-83418831D01*
X140847987Y-83323593D01*
X140895606Y-83228355D01*
X140990844Y-83180736D01*
X141228939Y-83180736D01*
X141324178Y-83133117D01*
X141657511Y-82895022D02*
X142038463Y-82895022D01*
X141800368Y-82561688D02*
X141800368Y-83418831D01*
X141847987Y-83514069D01*
X141943225Y-83561688D01*
X142038463Y-83561688D01*
X142228939Y-82895022D02*
X142609892Y-82895022D01*
X142371797Y-82561688D02*
X142371797Y-83418831D01*
X142419416Y-83514069D01*
X142514654Y-83561688D01*
X142609892Y-83561688D01*
X143324178Y-83514069D02*
X143228939Y-83561688D01*
X143038463Y-83561688D01*
X142943225Y-83514069D01*
X142895606Y-83418831D01*
X142895606Y-83037879D01*
X142943225Y-82942641D01*
X143038463Y-82895022D01*
X143228939Y-82895022D01*
X143324178Y-82942641D01*
X143371797Y-83037879D01*
X143371797Y-83133117D01*
X142895606Y-83228355D01*
X143800368Y-83561688D02*
X143800368Y-82895022D01*
X143800368Y-83085498D02*
X143847987Y-82990260D01*
X143895606Y-82942641D01*
X143990844Y-82895022D01*
X144086082Y-82895022D01*
X144324178Y-82895022D02*
X144562273Y-83561688D01*
X144800368Y-82895022D02*
X144562273Y-83561688D01*
X144467035Y-83799784D01*
X144419416Y-83847403D01*
X144324178Y-83895022D01*
%TO.C,J2*%
X119670844Y-74941688D02*
X119670844Y-75655974D01*
X119623225Y-75798831D01*
X119527987Y-75894069D01*
X119385130Y-75941688D01*
X119289892Y-75941688D01*
X120099416Y-75036927D02*
X120147035Y-74989308D01*
X120242273Y-74941688D01*
X120480368Y-74941688D01*
X120575606Y-74989308D01*
X120623225Y-75036927D01*
X120670844Y-75132165D01*
X120670844Y-75227403D01*
X120623225Y-75370260D01*
X120051797Y-75941688D01*
X120670844Y-75941688D01*
X112473452Y-78954880D02*
X113044880Y-78954880D01*
X112759166Y-79954880D02*
X112759166Y-78954880D01*
X113378214Y-79954880D02*
X113378214Y-78954880D01*
X113759166Y-78954880D01*
X113854404Y-79002500D01*
X113902023Y-79050119D01*
X113949642Y-79145357D01*
X113949642Y-79288214D01*
X113902023Y-79383452D01*
X113854404Y-79431071D01*
X113759166Y-79478690D01*
X113378214Y-79478690D01*
X114806785Y-79288214D02*
X114806785Y-79954880D01*
X114568690Y-78907261D02*
X114330595Y-79621547D01*
X114949642Y-79621547D01*
X115521071Y-78954880D02*
X115616309Y-78954880D01*
X115711547Y-79002500D01*
X115759166Y-79050119D01*
X115806785Y-79145357D01*
X115854404Y-79335833D01*
X115854404Y-79573928D01*
X115806785Y-79764404D01*
X115759166Y-79859642D01*
X115711547Y-79907261D01*
X115616309Y-79954880D01*
X115521071Y-79954880D01*
X115425833Y-79907261D01*
X115378214Y-79859642D01*
X115330595Y-79764404D01*
X115282976Y-79573928D01*
X115282976Y-79335833D01*
X115330595Y-79145357D01*
X115378214Y-79050119D01*
X115425833Y-79002500D01*
X115521071Y-78954880D01*
X116711547Y-79288214D02*
X116711547Y-79954880D01*
X116473452Y-78907261D02*
X116235357Y-79621547D01*
X116854404Y-79621547D01*
X117663928Y-78954880D02*
X117473452Y-78954880D01*
X117378214Y-79002500D01*
X117330595Y-79050119D01*
X117235357Y-79192976D01*
X117187738Y-79383452D01*
X117187738Y-79764404D01*
X117235357Y-79859642D01*
X117282976Y-79907261D01*
X117378214Y-79954880D01*
X117568690Y-79954880D01*
X117663928Y-79907261D01*
X117711547Y-79859642D01*
X117759166Y-79764404D01*
X117759166Y-79526309D01*
X117711547Y-79431071D01*
X117663928Y-79383452D01*
X117568690Y-79335833D01*
X117378214Y-79335833D01*
X117282976Y-79383452D01*
X117235357Y-79431071D01*
X117187738Y-79526309D01*
X119521071Y-79859642D02*
X119473452Y-79907261D01*
X119330595Y-79954880D01*
X119235357Y-79954880D01*
X119092500Y-79907261D01*
X118997261Y-79812023D01*
X118949642Y-79716785D01*
X118902023Y-79526309D01*
X118902023Y-79383452D01*
X118949642Y-79192976D01*
X118997261Y-79097738D01*
X119092500Y-79002500D01*
X119235357Y-78954880D01*
X119330595Y-78954880D01*
X119473452Y-79002500D01*
X119521071Y-79050119D01*
X119949642Y-79954880D02*
X119949642Y-78954880D01*
X120378214Y-79954880D02*
X120378214Y-79431071D01*
X120330595Y-79335833D01*
X120235357Y-79288214D01*
X120092500Y-79288214D01*
X119997261Y-79335833D01*
X119949642Y-79383452D01*
X121282976Y-79954880D02*
X121282976Y-79431071D01*
X121235357Y-79335833D01*
X121140119Y-79288214D01*
X120949642Y-79288214D01*
X120854404Y-79335833D01*
X121282976Y-79907261D02*
X121187738Y-79954880D01*
X120949642Y-79954880D01*
X120854404Y-79907261D01*
X120806785Y-79812023D01*
X120806785Y-79716785D01*
X120854404Y-79621547D01*
X120949642Y-79573928D01*
X121187738Y-79573928D01*
X121282976Y-79526309D01*
X121759166Y-79954880D02*
X121759166Y-79288214D01*
X121759166Y-79478690D02*
X121806785Y-79383452D01*
X121854404Y-79335833D01*
X121949642Y-79288214D01*
X122044880Y-79288214D01*
X122806785Y-79288214D02*
X122806785Y-80097738D01*
X122759166Y-80192976D01*
X122711547Y-80240595D01*
X122616309Y-80288214D01*
X122473452Y-80288214D01*
X122378214Y-80240595D01*
X122806785Y-79907261D02*
X122711547Y-79954880D01*
X122521071Y-79954880D01*
X122425833Y-79907261D01*
X122378214Y-79859642D01*
X122330595Y-79764404D01*
X122330595Y-79478690D01*
X122378214Y-79383452D01*
X122425833Y-79335833D01*
X122521071Y-79288214D01*
X122711547Y-79288214D01*
X122806785Y-79335833D01*
X123663928Y-79907261D02*
X123568690Y-79954880D01*
X123378214Y-79954880D01*
X123282976Y-79907261D01*
X123235357Y-79812023D01*
X123235357Y-79431071D01*
X123282976Y-79335833D01*
X123378214Y-79288214D01*
X123568690Y-79288214D01*
X123663928Y-79335833D01*
X123711547Y-79431071D01*
X123711547Y-79526309D01*
X123235357Y-79621547D01*
X124140119Y-79954880D02*
X124140119Y-79288214D01*
X124140119Y-79478690D02*
X124187738Y-79383452D01*
X124235357Y-79335833D01*
X124330595Y-79288214D01*
X124425833Y-79288214D01*
X125378214Y-78954880D02*
X125949642Y-78954880D01*
X125663928Y-79954880D02*
X125663928Y-78954880D01*
X126187738Y-79288214D02*
X126425833Y-79954880D01*
X126663928Y-79288214D02*
X126425833Y-79954880D01*
X126330595Y-80192976D01*
X126282976Y-80240595D01*
X126187738Y-80288214D01*
X127044880Y-79288214D02*
X127044880Y-80288214D01*
X127044880Y-79335833D02*
X127140119Y-79288214D01*
X127330595Y-79288214D01*
X127425833Y-79335833D01*
X127473452Y-79383452D01*
X127521071Y-79478690D01*
X127521071Y-79764404D01*
X127473452Y-79859642D01*
X127425833Y-79907261D01*
X127330595Y-79954880D01*
X127140119Y-79954880D01*
X127044880Y-79907261D01*
X128330595Y-79907261D02*
X128235357Y-79954880D01*
X128044880Y-79954880D01*
X127949642Y-79907261D01*
X127902023Y-79812023D01*
X127902023Y-79431071D01*
X127949642Y-79335833D01*
X128044880Y-79288214D01*
X128235357Y-79288214D01*
X128330595Y-79335833D01*
X128378214Y-79431071D01*
X128378214Y-79526309D01*
X127902023Y-79621547D01*
X128806785Y-79573928D02*
X129568690Y-79573928D01*
X130616309Y-79859642D02*
X130568690Y-79907261D01*
X130425833Y-79954880D01*
X130330595Y-79954880D01*
X130187738Y-79907261D01*
X130092500Y-79812023D01*
X130044880Y-79716785D01*
X129997261Y-79526309D01*
X129997261Y-79383452D01*
X130044880Y-79192976D01*
X130092500Y-79097738D01*
X130187738Y-79002500D01*
X130330595Y-78954880D01*
X130425833Y-78954880D01*
X130568690Y-79002500D01*
X130616309Y-79050119D01*
X108518095Y-83890000D02*
X108422857Y-83842380D01*
X108280000Y-83842380D01*
X108137142Y-83890000D01*
X108041904Y-83985238D01*
X107994285Y-84080476D01*
X107946666Y-84270952D01*
X107946666Y-84413809D01*
X107994285Y-84604285D01*
X108041904Y-84699523D01*
X108137142Y-84794761D01*
X108280000Y-84842380D01*
X108375238Y-84842380D01*
X108518095Y-84794761D01*
X108565714Y-84747142D01*
X108565714Y-84413809D01*
X108375238Y-84413809D01*
X108994285Y-84842380D02*
X108994285Y-83842380D01*
X109565714Y-84842380D01*
X109565714Y-83842380D01*
X110041904Y-84842380D02*
X110041904Y-83842380D01*
X110280000Y-83842380D01*
X110422857Y-83890000D01*
X110518095Y-83985238D01*
X110565714Y-84080476D01*
X110613333Y-84270952D01*
X110613333Y-84413809D01*
X110565714Y-84604285D01*
X110518095Y-84699523D01*
X110422857Y-84794761D01*
X110280000Y-84842380D01*
X110041904Y-84842380D01*
X128632380Y-83318571D02*
X128775238Y-83366190D01*
X128822857Y-83413809D01*
X128870476Y-83509047D01*
X128870476Y-83651904D01*
X128822857Y-83747142D01*
X128775238Y-83794761D01*
X128680000Y-83842380D01*
X128299047Y-83842380D01*
X128299047Y-82842380D01*
X128632380Y-82842380D01*
X128727619Y-82890000D01*
X128775238Y-82937619D01*
X128822857Y-83032857D01*
X128822857Y-83128095D01*
X128775238Y-83223333D01*
X128727619Y-83270952D01*
X128632380Y-83318571D01*
X128299047Y-83318571D01*
X129299047Y-83461428D02*
X130060952Y-83461428D01*
X126927619Y-71742380D02*
X127118095Y-71742380D01*
X127213333Y-71790000D01*
X127308571Y-71885238D01*
X127356190Y-72075714D01*
X127356190Y-72409047D01*
X127308571Y-72599523D01*
X127213333Y-72694761D01*
X127118095Y-72742380D01*
X126927619Y-72742380D01*
X126832380Y-72694761D01*
X126737142Y-72599523D01*
X126689523Y-72409047D01*
X126689523Y-72075714D01*
X126737142Y-71885238D01*
X126832380Y-71790000D01*
X126927619Y-71742380D01*
X128213333Y-72075714D02*
X128213333Y-72742380D01*
X127784761Y-72075714D02*
X127784761Y-72599523D01*
X127832380Y-72694761D01*
X127927619Y-72742380D01*
X128070476Y-72742380D01*
X128165714Y-72694761D01*
X128213333Y-72647142D01*
X128546666Y-72075714D02*
X128927619Y-72075714D01*
X128689523Y-71742380D02*
X128689523Y-72599523D01*
X128737142Y-72694761D01*
X128832380Y-72742380D01*
X128927619Y-72742380D01*
X129260952Y-72361428D02*
X130022857Y-72361428D01*
X129641904Y-72742380D02*
X129641904Y-71980476D01*
X126927619Y-86342380D02*
X127118095Y-86342380D01*
X127213333Y-86390000D01*
X127308571Y-86485238D01*
X127356190Y-86675714D01*
X127356190Y-87009047D01*
X127308571Y-87199523D01*
X127213333Y-87294761D01*
X127118095Y-87342380D01*
X126927619Y-87342380D01*
X126832380Y-87294761D01*
X126737142Y-87199523D01*
X126689523Y-87009047D01*
X126689523Y-86675714D01*
X126737142Y-86485238D01*
X126832380Y-86390000D01*
X126927619Y-86342380D01*
X128213333Y-86675714D02*
X128213333Y-87342380D01*
X127784761Y-86675714D02*
X127784761Y-87199523D01*
X127832380Y-87294761D01*
X127927619Y-87342380D01*
X128070476Y-87342380D01*
X128165714Y-87294761D01*
X128213333Y-87247142D01*
X128546666Y-86675714D02*
X128927619Y-86675714D01*
X128689523Y-86342380D02*
X128689523Y-87199523D01*
X128737142Y-87294761D01*
X128832380Y-87342380D01*
X128927619Y-87342380D01*
X129260952Y-86961428D02*
X130022857Y-86961428D01*
X108532380Y-81051904D02*
X109341904Y-81051904D01*
X109437142Y-81004285D01*
X109484761Y-80956666D01*
X109532380Y-80861428D01*
X109532380Y-80670952D01*
X109484761Y-80575714D01*
X109437142Y-80528095D01*
X109341904Y-80480476D01*
X108532380Y-80480476D01*
X109484761Y-80051904D02*
X109532380Y-79909047D01*
X109532380Y-79670952D01*
X109484761Y-79575714D01*
X109437142Y-79528095D01*
X109341904Y-79480476D01*
X109246666Y-79480476D01*
X109151428Y-79528095D01*
X109103809Y-79575714D01*
X109056190Y-79670952D01*
X109008571Y-79861428D01*
X108960952Y-79956666D01*
X108913333Y-80004285D01*
X108818095Y-80051904D01*
X108722857Y-80051904D01*
X108627619Y-80004285D01*
X108580000Y-79956666D01*
X108532380Y-79861428D01*
X108532380Y-79623333D01*
X108580000Y-79480476D01*
X109008571Y-78718571D02*
X109056190Y-78575714D01*
X109103809Y-78528095D01*
X109199047Y-78480476D01*
X109341904Y-78480476D01*
X109437142Y-78528095D01*
X109484761Y-78575714D01*
X109532380Y-78670952D01*
X109532380Y-79051904D01*
X108532380Y-79051904D01*
X108532380Y-78718571D01*
X108580000Y-78623333D01*
X108627619Y-78575714D01*
X108722857Y-78528095D01*
X108818095Y-78528095D01*
X108913333Y-78575714D01*
X108960952Y-78623333D01*
X109008571Y-78718571D01*
X109008571Y-79051904D01*
X109037142Y-74242380D02*
X108560952Y-74242380D01*
X108513333Y-74718571D01*
X108560952Y-74670952D01*
X108656190Y-74623333D01*
X108894285Y-74623333D01*
X108989523Y-74670952D01*
X109037142Y-74718571D01*
X109084761Y-74813809D01*
X109084761Y-75051904D01*
X109037142Y-75147142D01*
X108989523Y-75194761D01*
X108894285Y-75242380D01*
X108656190Y-75242380D01*
X108560952Y-75194761D01*
X108513333Y-75147142D01*
X109418095Y-74575714D02*
X109656190Y-75242380D01*
X109894285Y-74575714D01*
X128632380Y-75718571D02*
X128775238Y-75766190D01*
X128822857Y-75813809D01*
X128870476Y-75909047D01*
X128870476Y-76051904D01*
X128822857Y-76147142D01*
X128775238Y-76194761D01*
X128680000Y-76242380D01*
X128299047Y-76242380D01*
X128299047Y-75242380D01*
X128632380Y-75242380D01*
X128727619Y-75290000D01*
X128775238Y-75337619D01*
X128822857Y-75432857D01*
X128822857Y-75528095D01*
X128775238Y-75623333D01*
X128727619Y-75670952D01*
X128632380Y-75718571D01*
X128299047Y-75718571D01*
X129299047Y-75861428D02*
X130060952Y-75861428D01*
X129680000Y-76242380D02*
X129680000Y-75480476D01*
X110999047Y-72361428D02*
X111760952Y-72361428D01*
X111380000Y-72742380D02*
X111380000Y-71980476D01*
X111099047Y-87561428D02*
X111860952Y-87561428D01*
%TO.C,SW2*%
X175950844Y-100414069D02*
X176093701Y-100461688D01*
X176331797Y-100461688D01*
X176427035Y-100414069D01*
X176474654Y-100366450D01*
X176522273Y-100271212D01*
X176522273Y-100175974D01*
X176474654Y-100080736D01*
X176427035Y-100033117D01*
X176331797Y-99985498D01*
X176141320Y-99937879D01*
X176046082Y-99890260D01*
X175998463Y-99842641D01*
X175950844Y-99747403D01*
X175950844Y-99652165D01*
X175998463Y-99556927D01*
X176046082Y-99509308D01*
X176141320Y-99461688D01*
X176379416Y-99461688D01*
X176522273Y-99509308D01*
X176855606Y-99461688D02*
X177093701Y-100461688D01*
X177284178Y-99747403D01*
X177474654Y-100461688D01*
X177712749Y-99461688D01*
X178046082Y-99556927D02*
X178093701Y-99509308D01*
X178188939Y-99461688D01*
X178427035Y-99461688D01*
X178522273Y-99509308D01*
X178569892Y-99556927D01*
X178617511Y-99652165D01*
X178617511Y-99747403D01*
X178569892Y-99890260D01*
X177998463Y-100461688D01*
X178617511Y-100461688D01*
X173403225Y-107137879D02*
X173546082Y-107185498D01*
X173593701Y-107233117D01*
X173641320Y-107328355D01*
X173641320Y-107471212D01*
X173593701Y-107566450D01*
X173546082Y-107614069D01*
X173450844Y-107661688D01*
X173069892Y-107661688D01*
X173069892Y-106661688D01*
X173403225Y-106661688D01*
X173498463Y-106709308D01*
X173546082Y-106756927D01*
X173593701Y-106852165D01*
X173593701Y-106947403D01*
X173546082Y-107042641D01*
X173498463Y-107090260D01*
X173403225Y-107137879D01*
X173069892Y-107137879D01*
X174069892Y-107661688D02*
X174069892Y-106661688D01*
X175069892Y-106709308D02*
X174974654Y-106661688D01*
X174831797Y-106661688D01*
X174688939Y-106709308D01*
X174593701Y-106804546D01*
X174546082Y-106899784D01*
X174498463Y-107090260D01*
X174498463Y-107233117D01*
X174546082Y-107423593D01*
X174593701Y-107518831D01*
X174688939Y-107614069D01*
X174831797Y-107661688D01*
X174927035Y-107661688D01*
X175069892Y-107614069D01*
X175117511Y-107566450D01*
X175117511Y-107233117D01*
X174927035Y-107233117D01*
X175307987Y-107756927D02*
X176069892Y-107756927D01*
X176641320Y-107137879D02*
X176784178Y-107185498D01*
X176831797Y-107233117D01*
X176879416Y-107328355D01*
X176879416Y-107471212D01*
X176831797Y-107566450D01*
X176784178Y-107614069D01*
X176688939Y-107661688D01*
X176307987Y-107661688D01*
X176307987Y-106661688D01*
X176641320Y-106661688D01*
X176736558Y-106709308D01*
X176784178Y-106756927D01*
X176831797Y-106852165D01*
X176831797Y-106947403D01*
X176784178Y-107042641D01*
X176736558Y-107090260D01*
X176641320Y-107137879D01*
X176307987Y-107137879D01*
X177307987Y-106661688D02*
X177307987Y-107471212D01*
X177355606Y-107566450D01*
X177403225Y-107614069D01*
X177498463Y-107661688D01*
X177688939Y-107661688D01*
X177784178Y-107614069D01*
X177831797Y-107566450D01*
X177879416Y-107471212D01*
X177879416Y-106661688D01*
X178212749Y-106661688D02*
X178784178Y-106661688D01*
X178498463Y-107661688D02*
X178498463Y-106661688D01*
X178974654Y-106661688D02*
X179546082Y-106661688D01*
X179260368Y-107661688D02*
X179260368Y-106661688D01*
X180069892Y-106661688D02*
X180260368Y-106661688D01*
X180355606Y-106709308D01*
X180450844Y-106804546D01*
X180498463Y-106995022D01*
X180498463Y-107328355D01*
X180450844Y-107518831D01*
X180355606Y-107614069D01*
X180260368Y-107661688D01*
X180069892Y-107661688D01*
X179974654Y-107614069D01*
X179879416Y-107518831D01*
X179831797Y-107328355D01*
X179831797Y-106995022D01*
X179879416Y-106804546D01*
X179974654Y-106709308D01*
X180069892Y-106661688D01*
X180927035Y-107661688D02*
X180927035Y-106661688D01*
X181498463Y-107661688D01*
X181498463Y-106661688D01*
D11*
%TO.C,A1*%
X154154178Y-67739308D02*
X154154178Y-111179308D01*
X156824178Y-70409308D02*
X154154178Y-70409308D01*
X156824178Y-108509308D02*
X156824178Y-70409308D01*
X169524178Y-105969308D02*
X172194178Y-105969308D01*
X156824178Y-108509308D02*
X154154178Y-108509308D01*
X154154178Y-111179308D02*
X172194178Y-111179308D01*
X172194178Y-67739308D02*
X167114178Y-67739308D01*
X169524178Y-108509308D02*
X172194178Y-108509308D01*
X159234178Y-65199308D02*
X167114178Y-65199308D01*
X167114178Y-75619308D02*
X159234178Y-75619308D01*
X154154178Y-67739308D02*
X159234178Y-67739308D01*
X167114178Y-65199308D02*
X167114178Y-75619308D01*
X169524178Y-105969308D02*
X169524178Y-70409308D01*
X169524178Y-70409308D02*
X172194178Y-70409308D01*
X169524178Y-105969308D02*
X169524178Y-108509308D01*
X159234178Y-75619308D02*
X159234178Y-65199308D01*
X172194178Y-105969308D02*
X172194178Y-67739308D01*
X172194178Y-111179308D02*
X172194178Y-108509308D01*
%TO.C,Q1*%
X172680000Y-119595000D02*
X182920000Y-119595000D01*
X175950000Y-119595000D02*
X175950000Y-121105000D01*
X179651000Y-119595000D02*
X179651000Y-121105000D01*
X172680000Y-119595000D02*
X172680000Y-124236000D01*
X172680000Y-124236000D02*
X182920000Y-124236000D01*
X182920000Y-119595000D02*
X182920000Y-124236000D01*
X172680000Y-121105000D02*
X182920000Y-121105000D01*
%TO.C,SW1*%
X146571678Y-74099308D02*
X149231678Y-74099308D01*
X146571678Y-71499308D02*
X147901678Y-71499308D01*
X146571678Y-74099308D02*
X146571678Y-76699308D01*
X146571678Y-76699308D02*
X149231678Y-76699308D01*
X146571678Y-72829308D02*
X146571678Y-71499308D01*
X149231678Y-74099308D02*
X149231678Y-76699308D01*
D10*
%TO.C,J3*%
X110624178Y-106849308D02*
X141624178Y-106849308D01*
X108124178Y-92349308D02*
X108124178Y-104349308D01*
X123124178Y-91349308D02*
X123124178Y-94349308D01*
X123124178Y-94349308D02*
X119624178Y-92849308D01*
X119624178Y-92849308D02*
X123124178Y-91349308D01*
X119624178Y-91349308D02*
X119624178Y-94349308D01*
X144124178Y-104349308D02*
X144124178Y-92349308D01*
X141624178Y-89849308D02*
X110624178Y-89849308D01*
X110624178Y-89849308D02*
G75*
G03*
X108124178Y-92349308I0J-2500000D01*
G01*
X108124178Y-104349308D02*
G75*
G03*
X110624178Y-106849308I2500000J0D01*
G01*
X141624178Y-106849308D02*
G75*
G03*
X144124178Y-104349308I0J2500000D01*
G01*
X144124178Y-92349308D02*
G75*
G03*
X141624178Y-89849308I-2500000J0D01*
G01*
D11*
%TO.C,R3*%
X149115530Y-125209308D02*
X149115530Y-124879308D01*
X149115530Y-124879308D02*
X155655530Y-124879308D01*
X155655530Y-124879308D02*
X155655530Y-125209308D01*
X149115530Y-127289308D02*
X149115530Y-127619308D01*
X155655530Y-127619308D02*
X155655530Y-127289308D01*
X149115530Y-127619308D02*
X155655530Y-127619308D01*
%TO.C,BZ1*%
X175964540Y-72047018D02*
X175964540Y-70717018D01*
X175964540Y-73317018D02*
X178624540Y-73317018D01*
X175964540Y-73317018D02*
X175964540Y-75917018D01*
X178624540Y-73317018D02*
X178624540Y-75917018D01*
X175964540Y-70717018D02*
X177294540Y-70717018D01*
X175964540Y-75917018D02*
X178624540Y-75917018D01*
%TO.C,R1*%
X168994178Y-115647078D02*
X168994178Y-115977078D01*
X162454178Y-118387078D02*
X168994178Y-118387078D01*
X162454178Y-118057078D02*
X162454178Y-118387078D01*
X168994178Y-118387078D02*
X168994178Y-118057078D01*
X162454178Y-115647078D02*
X168994178Y-115647078D01*
X162454178Y-115977078D02*
X162454178Y-115647078D01*
%TO.C,J5*%
X176356678Y-113199308D02*
X179016678Y-113199308D01*
X176356678Y-115799308D02*
X179016678Y-115799308D01*
X176356678Y-113199308D02*
X176356678Y-115799308D01*
X179016678Y-113199308D02*
X179016678Y-115799308D01*
X176356678Y-110599308D02*
X177686678Y-110599308D01*
X176356678Y-111929308D02*
X176356678Y-110599308D01*
%TO.C,R4*%
X149114202Y-116234822D02*
X149114202Y-115904822D01*
X149114202Y-115904822D02*
X155654202Y-115904822D01*
X149114202Y-118314822D02*
X149114202Y-118644822D01*
X155654202Y-118644822D02*
X155654202Y-118314822D01*
X149114202Y-118644822D02*
X155654202Y-118644822D01*
X155654202Y-115904822D02*
X155654202Y-116234822D01*
%TO.C,SW4*%
X175644178Y-80599308D02*
X176974178Y-80599308D01*
X178304178Y-83199308D02*
X178304178Y-85799308D01*
X175644178Y-85799308D02*
X178304178Y-85799308D01*
X175644178Y-81929308D02*
X175644178Y-80599308D01*
X175644178Y-83199308D02*
X175644178Y-85799308D01*
X175644178Y-83199308D02*
X178304178Y-83199308D01*
%TO.C,SW3*%
X176039178Y-94239308D02*
X176039178Y-96839308D01*
X176039178Y-92969308D02*
X176039178Y-91639308D01*
X176039178Y-96839308D02*
X178699178Y-96839308D01*
X176039178Y-91639308D02*
X177369178Y-91639308D01*
X178699178Y-94239308D02*
X178699178Y-96839308D01*
X176039178Y-94239308D02*
X178699178Y-94239308D01*
D10*
%TO.C,J4*%
X108124178Y-110129308D02*
X108124178Y-122129308D01*
X144124178Y-122129308D02*
X144124178Y-110129308D01*
X119624178Y-109129308D02*
X119624178Y-112129308D01*
X123124178Y-109129308D02*
X123124178Y-112129308D01*
X110624178Y-124629308D02*
X141624178Y-124629308D01*
X123124178Y-112129308D02*
X119624178Y-110629308D01*
X141624178Y-107629308D02*
X110624178Y-107629308D01*
X119624178Y-110629308D02*
X123124178Y-109129308D01*
X144124178Y-110129308D02*
G75*
G03*
X141624178Y-107629308I-2500000J0D01*
G01*
X110624178Y-107629308D02*
G75*
G03*
X108124178Y-110129308I0J-2500000D01*
G01*
X141624178Y-124629308D02*
G75*
G03*
X144124178Y-122129308I0J2500000D01*
G01*
X108124178Y-122129308D02*
G75*
G03*
X110624178Y-124629308I2500000J0D01*
G01*
D11*
%TO.C,J6*%
X149154178Y-93279308D02*
X149154178Y-100959308D01*
X149154178Y-100959308D02*
X151814178Y-100959308D01*
X151814178Y-93279308D02*
X151814178Y-100959308D01*
X149154178Y-90679308D02*
X150484178Y-90679308D01*
X149154178Y-92009308D02*
X149154178Y-90679308D01*
X149154178Y-93279308D02*
X151814178Y-93279308D01*
%TO.C,R2*%
X168994178Y-124919308D02*
X168994178Y-125249308D01*
X168994178Y-127659308D02*
X168994178Y-127329308D01*
X162454178Y-125249308D02*
X162454178Y-124919308D01*
X162454178Y-127659308D02*
X168994178Y-127659308D01*
X162454178Y-127329308D02*
X162454178Y-127659308D01*
X162454178Y-124919308D02*
X168994178Y-124919308D01*
%TO.C,J1*%
X138994178Y-81899308D02*
X141654178Y-81899308D01*
X138994178Y-76699308D02*
X140324178Y-76699308D01*
X138994178Y-79299308D02*
X138994178Y-81899308D01*
X141654178Y-79299308D02*
X141654178Y-81899308D01*
X138994178Y-79299308D02*
X141654178Y-79299308D01*
X138994178Y-78029308D02*
X138994178Y-76699308D01*
D10*
%TO.C,J2*%
X135880000Y-70690000D02*
X135880000Y-73190000D01*
X133580000Y-86090000D02*
X133880000Y-86090000D01*
X110380000Y-77890000D02*
X110380000Y-81690000D01*
X107880000Y-77890000D02*
X110380000Y-77890000D01*
X110380000Y-81690000D02*
X107880000Y-81690000D01*
X133780000Y-70690000D02*
X135880000Y-70690000D01*
X133780000Y-86090000D02*
X135880000Y-86090000D01*
X135880000Y-86390000D02*
X135880000Y-88490000D01*
X107880000Y-81690000D02*
X107880000Y-77990000D01*
X107480000Y-70690000D02*
X133780000Y-70690000D01*
X135880000Y-73190000D02*
X133580000Y-73190000D01*
X133580000Y-73190000D02*
X133580000Y-86090000D01*
X107480000Y-88490000D02*
X107480000Y-70690000D01*
X135880000Y-86090000D02*
X135880000Y-86390000D01*
X135880000Y-88490000D02*
X107480000Y-88490000D01*
D11*
%TO.C,SW2*%
X175954178Y-101009308D02*
X177284178Y-101009308D01*
X175954178Y-103609308D02*
X178614178Y-103609308D01*
X178614178Y-103609308D02*
X178614178Y-106209308D01*
X175954178Y-106209308D02*
X178614178Y-106209308D01*
X175954178Y-102339308D02*
X175954178Y-101009308D01*
X175954178Y-103609308D02*
X175954178Y-106209308D01*
%TD*%
D12*
%TO.C,J3*%
X141624178Y-95149308D03*
X141624178Y-101599308D03*
X110624178Y-95099308D03*
X110624178Y-101599308D03*
%TD*%
%TO.C,J4*%
X141624178Y-112929308D03*
X141624178Y-119379308D03*
X110624178Y-112879308D03*
X110624178Y-119379308D03*
%TD*%
M02*
