%TF.GenerationSoftware,KiCad,Pcbnew,6.0.11+dfsg-1*%
%TF.CreationDate,2025-09-22T09:10:49+02:00*%
%TF.ProjectId,Rummikub_Timer,52756d6d-696b-4756-925f-54696d65722e,v1*%
%TF.SameCoordinates,Original*%
%TF.FileFunction,Legend,Bot*%
%TF.FilePolarity,Positive*%
%FSLAX46Y46*%
G04 Gerber Fmt 4.6, Leading zero omitted, Abs format (unit mm)*
G04 Created by KiCad (PCBNEW 6.0.11+dfsg-1) date 2025-09-22 09:10:49*
%MOMM*%
%LPD*%
G01*
G04 APERTURE LIST*
%ADD10C,0.150000*%
G04 APERTURE END LIST*
D10*
X135703697Y-122011633D02*
X136037030Y-121535443D01*
X136275125Y-122011633D02*
X136275125Y-121011633D01*
X135894173Y-121011633D01*
X135798935Y-121059253D01*
X135751316Y-121106872D01*
X135703697Y-121202110D01*
X135703697Y-121344967D01*
X135751316Y-121440205D01*
X135798935Y-121487824D01*
X135894173Y-121535443D01*
X136275125Y-121535443D01*
X134846554Y-121344967D02*
X134846554Y-122011633D01*
X135275125Y-121344967D02*
X135275125Y-121868776D01*
X135227506Y-121964014D01*
X135132268Y-122011633D01*
X134989411Y-122011633D01*
X134894173Y-121964014D01*
X134846554Y-121916395D01*
X134370363Y-122011633D02*
X134370363Y-121344967D01*
X134370363Y-121440205D02*
X134322744Y-121392586D01*
X134227506Y-121344967D01*
X134084649Y-121344967D01*
X133989411Y-121392586D01*
X133941792Y-121487824D01*
X133941792Y-122011633D01*
X133941792Y-121487824D02*
X133894173Y-121392586D01*
X133798935Y-121344967D01*
X133656078Y-121344967D01*
X133560839Y-121392586D01*
X133513220Y-121487824D01*
X133513220Y-122011633D01*
X133037030Y-122011633D02*
X133037030Y-121344967D01*
X133037030Y-121440205D02*
X132989411Y-121392586D01*
X132894173Y-121344967D01*
X132751316Y-121344967D01*
X132656078Y-121392586D01*
X132608458Y-121487824D01*
X132608458Y-122011633D01*
X132608458Y-121487824D02*
X132560839Y-121392586D01*
X132465601Y-121344967D01*
X132322744Y-121344967D01*
X132227506Y-121392586D01*
X132179887Y-121487824D01*
X132179887Y-122011633D01*
X131703697Y-122011633D02*
X131703697Y-121344967D01*
X131703697Y-121011633D02*
X131751316Y-121059253D01*
X131703697Y-121106872D01*
X131656078Y-121059253D01*
X131703697Y-121011633D01*
X131703697Y-121106872D01*
X131227506Y-122011633D02*
X131227506Y-121011633D01*
X131132268Y-121630681D02*
X130846554Y-122011633D01*
X130846554Y-121344967D02*
X131227506Y-121725919D01*
X129989411Y-121344967D02*
X129989411Y-122011633D01*
X130417982Y-121344967D02*
X130417982Y-121868776D01*
X130370363Y-121964014D01*
X130275125Y-122011633D01*
X130132268Y-122011633D01*
X130037030Y-121964014D01*
X129989411Y-121916395D01*
X129513220Y-122011633D02*
X129513220Y-121011633D01*
X129513220Y-121392586D02*
X129417982Y-121344967D01*
X129227506Y-121344967D01*
X129132268Y-121392586D01*
X129084649Y-121440205D01*
X129037030Y-121535443D01*
X129037030Y-121821157D01*
X129084649Y-121916395D01*
X129132268Y-121964014D01*
X129227506Y-122011633D01*
X129417982Y-122011633D01*
X129513220Y-121964014D01*
X127989411Y-121011633D02*
X127417982Y-121011633D01*
X127703697Y-122011633D02*
X127703697Y-121011633D01*
X127084649Y-122011633D02*
X127084649Y-121344967D01*
X127084649Y-121011633D02*
X127132268Y-121059253D01*
X127084649Y-121106872D01*
X127037030Y-121059253D01*
X127084649Y-121011633D01*
X127084649Y-121106872D01*
X126608458Y-122011633D02*
X126608458Y-121344967D01*
X126608458Y-121440205D02*
X126560839Y-121392586D01*
X126465601Y-121344967D01*
X126322744Y-121344967D01*
X126227506Y-121392586D01*
X126179887Y-121487824D01*
X126179887Y-122011633D01*
X126179887Y-121487824D02*
X126132268Y-121392586D01*
X126037030Y-121344967D01*
X125894173Y-121344967D01*
X125798935Y-121392586D01*
X125751316Y-121487824D01*
X125751316Y-122011633D01*
X124894173Y-121964014D02*
X124989411Y-122011633D01*
X125179887Y-122011633D01*
X125275125Y-121964014D01*
X125322744Y-121868776D01*
X125322744Y-121487824D01*
X125275125Y-121392586D01*
X125179887Y-121344967D01*
X124989411Y-121344967D01*
X124894173Y-121392586D01*
X124846554Y-121487824D01*
X124846554Y-121583062D01*
X125322744Y-121678300D01*
X124417982Y-122011633D02*
X124417982Y-121344967D01*
X124417982Y-121535443D02*
X124370363Y-121440205D01*
X124322744Y-121392586D01*
X124227506Y-121344967D01*
X124132268Y-121344967D01*
X123037030Y-122011633D02*
X123037030Y-121011633D01*
X122656078Y-121011633D01*
X122560839Y-121059253D01*
X122513220Y-121106872D01*
X122465601Y-121202110D01*
X122465601Y-121344967D01*
X122513220Y-121440205D01*
X122560839Y-121487824D01*
X122656078Y-121535443D01*
X123037030Y-121535443D01*
X121465601Y-121916395D02*
X121513220Y-121964014D01*
X121656078Y-122011633D01*
X121751316Y-122011633D01*
X121894173Y-121964014D01*
X121989411Y-121868776D01*
X122037030Y-121773538D01*
X122084649Y-121583062D01*
X122084649Y-121440205D01*
X122037030Y-121249729D01*
X121989411Y-121154491D01*
X121894173Y-121059253D01*
X121751316Y-121011633D01*
X121656078Y-121011633D01*
X121513220Y-121059253D01*
X121465601Y-121106872D01*
X120703697Y-121487824D02*
X120560839Y-121535443D01*
X120513220Y-121583062D01*
X120465601Y-121678300D01*
X120465601Y-121821157D01*
X120513220Y-121916395D01*
X120560839Y-121964014D01*
X120656078Y-122011633D01*
X121037030Y-122011633D01*
X121037030Y-121011633D01*
X120703697Y-121011633D01*
X120608458Y-121059253D01*
X120560839Y-121106872D01*
X120513220Y-121202110D01*
X120513220Y-121297348D01*
X120560839Y-121392586D01*
X120608458Y-121440205D01*
X120703697Y-121487824D01*
X121037030Y-121487824D01*
X119370363Y-121344967D02*
X119132268Y-122011633D01*
X118894173Y-121344967D01*
X117989411Y-122011633D02*
X118560839Y-122011633D01*
X118275125Y-122011633D02*
X118275125Y-121011633D01*
X118370363Y-121154491D01*
X118465601Y-121249729D01*
X118560839Y-121297348D01*
X135917982Y-123621633D02*
X135917982Y-122621633D01*
X135679887Y-122621633D01*
X135537030Y-122669253D01*
X135441792Y-122764491D01*
X135394173Y-122859729D01*
X135346554Y-123050205D01*
X135346554Y-123193062D01*
X135394173Y-123383538D01*
X135441792Y-123478776D01*
X135537030Y-123574014D01*
X135679887Y-123621633D01*
X135917982Y-123621633D01*
X134537030Y-123574014D02*
X134632268Y-123621633D01*
X134822744Y-123621633D01*
X134917982Y-123574014D01*
X134965601Y-123478776D01*
X134965601Y-123097824D01*
X134917982Y-123002586D01*
X134822744Y-122954967D01*
X134632268Y-122954967D01*
X134537030Y-123002586D01*
X134489411Y-123097824D01*
X134489411Y-123193062D01*
X134965601Y-123288300D01*
X134108458Y-123574014D02*
X134013220Y-123621633D01*
X133822744Y-123621633D01*
X133727506Y-123574014D01*
X133679887Y-123478776D01*
X133679887Y-123431157D01*
X133727506Y-123335919D01*
X133822744Y-123288300D01*
X133965601Y-123288300D01*
X134060839Y-123240681D01*
X134108458Y-123145443D01*
X134108458Y-123097824D01*
X134060839Y-123002586D01*
X133965601Y-122954967D01*
X133822744Y-122954967D01*
X133727506Y-123002586D01*
X133251316Y-123621633D02*
X133251316Y-122954967D01*
X133251316Y-122621633D02*
X133298935Y-122669253D01*
X133251316Y-122716872D01*
X133203697Y-122669253D01*
X133251316Y-122621633D01*
X133251316Y-122716872D01*
X132346554Y-122954967D02*
X132346554Y-123764491D01*
X132394173Y-123859729D01*
X132441792Y-123907348D01*
X132537030Y-123954967D01*
X132679887Y-123954967D01*
X132775125Y-123907348D01*
X132346554Y-123574014D02*
X132441792Y-123621633D01*
X132632268Y-123621633D01*
X132727506Y-123574014D01*
X132775125Y-123526395D01*
X132822744Y-123431157D01*
X132822744Y-123145443D01*
X132775125Y-123050205D01*
X132727506Y-123002586D01*
X132632268Y-122954967D01*
X132441792Y-122954967D01*
X132346554Y-123002586D01*
X131870363Y-122954967D02*
X131870363Y-123621633D01*
X131870363Y-123050205D02*
X131822744Y-123002586D01*
X131727506Y-122954967D01*
X131584649Y-122954967D01*
X131489411Y-123002586D01*
X131441792Y-123097824D01*
X131441792Y-123621633D01*
X130203697Y-123240681D02*
X129441792Y-123240681D01*
X128203697Y-123621633D02*
X128203697Y-122621633D01*
X127822744Y-122621633D01*
X127727506Y-122669253D01*
X127679887Y-122716872D01*
X127632268Y-122812110D01*
X127632268Y-122954967D01*
X127679887Y-123050205D01*
X127727506Y-123097824D01*
X127822744Y-123145443D01*
X128203697Y-123145443D01*
X126775125Y-123621633D02*
X126775125Y-123097824D01*
X126822744Y-123002586D01*
X126917982Y-122954967D01*
X127108458Y-122954967D01*
X127203697Y-123002586D01*
X126775125Y-123574014D02*
X126870363Y-123621633D01*
X127108458Y-123621633D01*
X127203697Y-123574014D01*
X127251316Y-123478776D01*
X127251316Y-123383538D01*
X127203697Y-123288300D01*
X127108458Y-123240681D01*
X126870363Y-123240681D01*
X126775125Y-123193062D01*
X126441792Y-122954967D02*
X126060839Y-122954967D01*
X126298935Y-122621633D02*
X126298935Y-123478776D01*
X126251316Y-123574014D01*
X126156078Y-123621633D01*
X126060839Y-123621633D01*
X125727506Y-123621633D02*
X125727506Y-122954967D01*
X125727506Y-123145443D02*
X125679887Y-123050205D01*
X125632268Y-123002586D01*
X125537030Y-122954967D01*
X125441792Y-122954967D01*
X125108458Y-123621633D02*
X125108458Y-122954967D01*
X125108458Y-122621633D02*
X125156078Y-122669253D01*
X125108458Y-122716872D01*
X125060839Y-122669253D01*
X125108458Y-122621633D01*
X125108458Y-122716872D01*
X124203697Y-123574014D02*
X124298935Y-123621633D01*
X124489411Y-123621633D01*
X124584649Y-123574014D01*
X124632268Y-123526395D01*
X124679887Y-123431157D01*
X124679887Y-123145443D01*
X124632268Y-123050205D01*
X124584649Y-123002586D01*
X124489411Y-122954967D01*
X124298935Y-122954967D01*
X124203697Y-123002586D01*
X123775125Y-123621633D02*
X123775125Y-122621633D01*
X123679887Y-123240681D02*
X123394173Y-123621633D01*
X123394173Y-122954967D02*
X123775125Y-123335919D01*
X122203697Y-123621633D02*
X122203697Y-122621633D01*
X122203697Y-123097824D02*
X121632268Y-123097824D01*
X121632268Y-123621633D02*
X121632268Y-122621633D01*
X120775125Y-123574014D02*
X120870363Y-123621633D01*
X121060839Y-123621633D01*
X121156078Y-123574014D01*
X121203697Y-123478776D01*
X121203697Y-123097824D01*
X121156078Y-123002586D01*
X121060839Y-122954967D01*
X120870363Y-122954967D01*
X120775125Y-123002586D01*
X120727506Y-123097824D01*
X120727506Y-123193062D01*
X121203697Y-123288300D01*
X120298935Y-122954967D02*
X120298935Y-123621633D01*
X120298935Y-123050205D02*
X120251316Y-123002586D01*
X120156078Y-122954967D01*
X120013220Y-122954967D01*
X119917982Y-123002586D01*
X119870363Y-123097824D01*
X119870363Y-123621633D01*
X119013220Y-123574014D02*
X119108458Y-123621633D01*
X119298935Y-123621633D01*
X119394173Y-123574014D01*
X119441792Y-123478776D01*
X119441792Y-123097824D01*
X119394173Y-123002586D01*
X119298935Y-122954967D01*
X119108458Y-122954967D01*
X119013220Y-123002586D01*
X118965601Y-123097824D01*
X118965601Y-123193062D01*
X119441792Y-123288300D01*
X118537030Y-123621633D02*
X118537030Y-122954967D01*
X118537030Y-123145443D02*
X118489411Y-123050205D01*
X118441792Y-123002586D01*
X118346554Y-122954967D01*
X118251316Y-122954967D01*
X134846554Y-124564967D02*
X134846554Y-125564967D01*
X134846554Y-124612586D02*
X134751316Y-124564967D01*
X134560839Y-124564967D01*
X134465601Y-124612586D01*
X134417982Y-124660205D01*
X134370363Y-124755443D01*
X134370363Y-125041157D01*
X134417982Y-125136395D01*
X134465601Y-125184014D01*
X134560839Y-125231633D01*
X134751316Y-125231633D01*
X134846554Y-125184014D01*
X133513220Y-125231633D02*
X133513220Y-124707824D01*
X133560839Y-124612586D01*
X133656078Y-124564967D01*
X133846554Y-124564967D01*
X133941792Y-124612586D01*
X133513220Y-125184014D02*
X133608458Y-125231633D01*
X133846554Y-125231633D01*
X133941792Y-125184014D01*
X133989411Y-125088776D01*
X133989411Y-124993538D01*
X133941792Y-124898300D01*
X133846554Y-124850681D01*
X133608458Y-124850681D01*
X133513220Y-124803062D01*
X133179887Y-124564967D02*
X132798935Y-124564967D01*
X133037030Y-124231633D02*
X133037030Y-125088776D01*
X132989411Y-125184014D01*
X132894173Y-125231633D01*
X132798935Y-125231633D01*
X132465601Y-125231633D02*
X132465601Y-124564967D01*
X132465601Y-124755443D02*
X132417982Y-124660205D01*
X132370363Y-124612586D01*
X132275125Y-124564967D01*
X132179887Y-124564967D01*
X131846554Y-125231633D02*
X131846554Y-124564967D01*
X131846554Y-124231633D02*
X131894173Y-124279253D01*
X131846554Y-124326872D01*
X131798935Y-124279253D01*
X131846554Y-124231633D01*
X131846554Y-124326872D01*
X130941792Y-125184014D02*
X131037030Y-125231633D01*
X131227506Y-125231633D01*
X131322744Y-125184014D01*
X131370363Y-125136395D01*
X131417982Y-125041157D01*
X131417982Y-124755443D01*
X131370363Y-124660205D01*
X131322744Y-124612586D01*
X131227506Y-124564967D01*
X131037030Y-124564967D01*
X130941792Y-124612586D01*
X130513220Y-125231633D02*
X130513220Y-124231633D01*
X130417982Y-124850681D02*
X130132268Y-125231633D01*
X130132268Y-124564967D02*
X130513220Y-124945919D01*
X129703697Y-125231633D02*
X129703697Y-124231633D01*
X129275125Y-125231633D02*
X129275125Y-124707824D01*
X129322744Y-124612586D01*
X129417982Y-124564967D01*
X129560839Y-124564967D01*
X129656078Y-124612586D01*
X129703697Y-124660205D01*
X128417982Y-125184014D02*
X128513220Y-125231633D01*
X128703697Y-125231633D01*
X128798935Y-125184014D01*
X128846554Y-125088776D01*
X128846554Y-124707824D01*
X128798935Y-124612586D01*
X128703697Y-124564967D01*
X128513220Y-124564967D01*
X128417982Y-124612586D01*
X128370363Y-124707824D01*
X128370363Y-124803062D01*
X128846554Y-124898300D01*
X127941792Y-124564967D02*
X127941792Y-125231633D01*
X127941792Y-124660205D02*
X127894173Y-124612586D01*
X127798935Y-124564967D01*
X127656078Y-124564967D01*
X127560839Y-124612586D01*
X127513220Y-124707824D01*
X127513220Y-125231633D01*
X126656078Y-125184014D02*
X126751316Y-125231633D01*
X126941792Y-125231633D01*
X127037030Y-125184014D01*
X127084649Y-125088776D01*
X127084649Y-124707824D01*
X127037030Y-124612586D01*
X126941792Y-124564967D01*
X126751316Y-124564967D01*
X126656078Y-124612586D01*
X126608458Y-124707824D01*
X126608458Y-124803062D01*
X127084649Y-124898300D01*
X126179887Y-125231633D02*
X126179887Y-124564967D01*
X126179887Y-124755443D02*
X126132268Y-124660205D01*
X126084649Y-124612586D01*
X125989411Y-124564967D01*
X125894173Y-124564967D01*
X124941792Y-124755443D02*
X124989411Y-124707824D01*
X125084649Y-124660205D01*
X125179887Y-124660205D01*
X125275125Y-124707824D01*
X125322744Y-124755443D01*
X125370363Y-124850681D01*
X125370363Y-124945919D01*
X125322744Y-125041157D01*
X125275125Y-125088776D01*
X125179887Y-125136395D01*
X125084649Y-125136395D01*
X124989411Y-125088776D01*
X124941792Y-125041157D01*
X124941792Y-124660205D02*
X124941792Y-125041157D01*
X124894173Y-125088776D01*
X124846554Y-125088776D01*
X124751316Y-125041157D01*
X124703697Y-124945919D01*
X124703697Y-124707824D01*
X124798935Y-124564967D01*
X124941792Y-124469729D01*
X125132268Y-124422110D01*
X125322744Y-124469729D01*
X125465601Y-124564967D01*
X125560839Y-124707824D01*
X125608458Y-124898300D01*
X125560839Y-125088776D01*
X125465601Y-125231633D01*
X125322744Y-125326872D01*
X125132268Y-125374491D01*
X124941792Y-125326872D01*
X124798935Y-125231633D01*
X123846554Y-124564967D02*
X123846554Y-125374491D01*
X123894173Y-125469729D01*
X123941792Y-125517348D01*
X124037030Y-125564967D01*
X124179887Y-125564967D01*
X124275125Y-125517348D01*
X123846554Y-125184014D02*
X123941792Y-125231633D01*
X124132268Y-125231633D01*
X124227506Y-125184014D01*
X124275125Y-125136395D01*
X124322744Y-125041157D01*
X124322744Y-124755443D01*
X124275125Y-124660205D01*
X124227506Y-124612586D01*
X124132268Y-124564967D01*
X123941792Y-124564967D01*
X123846554Y-124612586D01*
X123370363Y-125231633D02*
X123370363Y-124564967D01*
X123370363Y-124660205D02*
X123322744Y-124612586D01*
X123227506Y-124564967D01*
X123084649Y-124564967D01*
X122989411Y-124612586D01*
X122941792Y-124707824D01*
X122941792Y-125231633D01*
X122941792Y-124707824D02*
X122894173Y-124612586D01*
X122798935Y-124564967D01*
X122656078Y-124564967D01*
X122560839Y-124612586D01*
X122513220Y-124707824D01*
X122513220Y-125231633D01*
X122132268Y-125231633D02*
X121608458Y-124564967D01*
X122132268Y-124564967D02*
X121608458Y-125231633D01*
X121227506Y-125136395D02*
X121179887Y-125184014D01*
X121227506Y-125231633D01*
X121275125Y-125184014D01*
X121227506Y-125136395D01*
X121227506Y-125231633D01*
X120322744Y-125231633D02*
X120322744Y-124231633D01*
X120322744Y-125184014D02*
X120417982Y-125231633D01*
X120608458Y-125231633D01*
X120703697Y-125184014D01*
X120751316Y-125136395D01*
X120798935Y-125041157D01*
X120798935Y-124755443D01*
X120751316Y-124660205D01*
X120703697Y-124612586D01*
X120608458Y-124564967D01*
X120417982Y-124564967D01*
X120322744Y-124612586D01*
X119465601Y-125184014D02*
X119560839Y-125231633D01*
X119751316Y-125231633D01*
X119846554Y-125184014D01*
X119894173Y-125088776D01*
X119894173Y-124707824D01*
X119846554Y-124612586D01*
X119751316Y-124564967D01*
X119560839Y-124564967D01*
X119465601Y-124612586D01*
X119417982Y-124707824D01*
X119417982Y-124803062D01*
X119894173Y-124898300D01*
X146084649Y-126841633D02*
X146084649Y-125841633D01*
X145656078Y-126841633D02*
X145656078Y-126317824D01*
X145703697Y-126222586D01*
X145798935Y-126174967D01*
X145941792Y-126174967D01*
X146037030Y-126222586D01*
X146084649Y-126270205D01*
X145322744Y-126174967D02*
X144941792Y-126174967D01*
X145179887Y-125841633D02*
X145179887Y-126698776D01*
X145132268Y-126794014D01*
X145037030Y-126841633D01*
X144941792Y-126841633D01*
X144751316Y-126174967D02*
X144370363Y-126174967D01*
X144608458Y-125841633D02*
X144608458Y-126698776D01*
X144560839Y-126794014D01*
X144465601Y-126841633D01*
X144370363Y-126841633D01*
X144037030Y-126174967D02*
X144037030Y-127174967D01*
X144037030Y-126222586D02*
X143941792Y-126174967D01*
X143751316Y-126174967D01*
X143656078Y-126222586D01*
X143608458Y-126270205D01*
X143560839Y-126365443D01*
X143560839Y-126651157D01*
X143608458Y-126746395D01*
X143656078Y-126794014D01*
X143751316Y-126841633D01*
X143941792Y-126841633D01*
X144037030Y-126794014D01*
X143179887Y-126794014D02*
X143084649Y-126841633D01*
X142894173Y-126841633D01*
X142798935Y-126794014D01*
X142751316Y-126698776D01*
X142751316Y-126651157D01*
X142798935Y-126555919D01*
X142894173Y-126508300D01*
X143037030Y-126508300D01*
X143132268Y-126460681D01*
X143179887Y-126365443D01*
X143179887Y-126317824D01*
X143132268Y-126222586D01*
X143037030Y-126174967D01*
X142894173Y-126174967D01*
X142798935Y-126222586D01*
X142322744Y-126746395D02*
X142275125Y-126794014D01*
X142322744Y-126841633D01*
X142370363Y-126794014D01*
X142322744Y-126746395D01*
X142322744Y-126841633D01*
X142322744Y-126222586D02*
X142275125Y-126270205D01*
X142322744Y-126317824D01*
X142370363Y-126270205D01*
X142322744Y-126222586D01*
X142322744Y-126317824D01*
X141132268Y-125794014D02*
X141989411Y-127079729D01*
X140084649Y-125794014D02*
X140941792Y-127079729D01*
X139322744Y-126174967D02*
X139322744Y-126984491D01*
X139370363Y-127079729D01*
X139417982Y-127127348D01*
X139513220Y-127174967D01*
X139656078Y-127174967D01*
X139751316Y-127127348D01*
X139322744Y-126794014D02*
X139417982Y-126841633D01*
X139608458Y-126841633D01*
X139703697Y-126794014D01*
X139751316Y-126746395D01*
X139798935Y-126651157D01*
X139798935Y-126365443D01*
X139751316Y-126270205D01*
X139703697Y-126222586D01*
X139608458Y-126174967D01*
X139417982Y-126174967D01*
X139322744Y-126222586D01*
X138846554Y-126841633D02*
X138846554Y-126174967D01*
X138846554Y-125841633D02*
X138894173Y-125889253D01*
X138846554Y-125936872D01*
X138798935Y-125889253D01*
X138846554Y-125841633D01*
X138846554Y-125936872D01*
X138513220Y-126174967D02*
X138132268Y-126174967D01*
X138370363Y-125841633D02*
X138370363Y-126698776D01*
X138322744Y-126794014D01*
X138227506Y-126841633D01*
X138132268Y-126841633D01*
X137798935Y-126841633D02*
X137798935Y-125841633D01*
X137370363Y-126841633D02*
X137370363Y-126317824D01*
X137417982Y-126222586D01*
X137513220Y-126174967D01*
X137656078Y-126174967D01*
X137751316Y-126222586D01*
X137798935Y-126270205D01*
X136465601Y-126174967D02*
X136465601Y-126841633D01*
X136894173Y-126174967D02*
X136894173Y-126698776D01*
X136846554Y-126794014D01*
X136751316Y-126841633D01*
X136608458Y-126841633D01*
X136513220Y-126794014D01*
X136465601Y-126746395D01*
X135989411Y-126841633D02*
X135989411Y-125841633D01*
X135989411Y-126222586D02*
X135894173Y-126174967D01*
X135703697Y-126174967D01*
X135608458Y-126222586D01*
X135560839Y-126270205D01*
X135513220Y-126365443D01*
X135513220Y-126651157D01*
X135560839Y-126746395D01*
X135608458Y-126794014D01*
X135703697Y-126841633D01*
X135894173Y-126841633D01*
X135989411Y-126794014D01*
X135084649Y-126746395D02*
X135037030Y-126794014D01*
X135084649Y-126841633D01*
X135132268Y-126794014D01*
X135084649Y-126746395D01*
X135084649Y-126841633D01*
X134179887Y-126794014D02*
X134275125Y-126841633D01*
X134465601Y-126841633D01*
X134560839Y-126794014D01*
X134608458Y-126746395D01*
X134656078Y-126651157D01*
X134656078Y-126365443D01*
X134608458Y-126270205D01*
X134560839Y-126222586D01*
X134465601Y-126174967D01*
X134275125Y-126174967D01*
X134179887Y-126222586D01*
X133608458Y-126841633D02*
X133703697Y-126794014D01*
X133751316Y-126746395D01*
X133798935Y-126651157D01*
X133798935Y-126365443D01*
X133751316Y-126270205D01*
X133703697Y-126222586D01*
X133608458Y-126174967D01*
X133465601Y-126174967D01*
X133370363Y-126222586D01*
X133322744Y-126270205D01*
X133275125Y-126365443D01*
X133275125Y-126651157D01*
X133322744Y-126746395D01*
X133370363Y-126794014D01*
X133465601Y-126841633D01*
X133608458Y-126841633D01*
X132846554Y-126841633D02*
X132846554Y-126174967D01*
X132846554Y-126270205D02*
X132798935Y-126222586D01*
X132703697Y-126174967D01*
X132560839Y-126174967D01*
X132465601Y-126222586D01*
X132417982Y-126317824D01*
X132417982Y-126841633D01*
X132417982Y-126317824D02*
X132370363Y-126222586D01*
X132275125Y-126174967D01*
X132132268Y-126174967D01*
X132037030Y-126222586D01*
X131989411Y-126317824D01*
X131989411Y-126841633D01*
X130798935Y-125794014D02*
X131656078Y-127079729D01*
X130465601Y-126174967D02*
X130465601Y-127174967D01*
X130465601Y-126222586D02*
X130370363Y-126174967D01*
X130179887Y-126174967D01*
X130084649Y-126222586D01*
X130037030Y-126270205D01*
X129989411Y-126365443D01*
X129989411Y-126651157D01*
X130037030Y-126746395D01*
X130084649Y-126794014D01*
X130179887Y-126841633D01*
X130370363Y-126841633D01*
X130465601Y-126794014D01*
X129132268Y-126841633D02*
X129132268Y-126317824D01*
X129179887Y-126222586D01*
X129275125Y-126174967D01*
X129465601Y-126174967D01*
X129560839Y-126222586D01*
X129132268Y-126794014D02*
X129227506Y-126841633D01*
X129465601Y-126841633D01*
X129560839Y-126794014D01*
X129608458Y-126698776D01*
X129608458Y-126603538D01*
X129560839Y-126508300D01*
X129465601Y-126460681D01*
X129227506Y-126460681D01*
X129132268Y-126413062D01*
X128798935Y-126174967D02*
X128417982Y-126174967D01*
X128656078Y-125841633D02*
X128656078Y-126698776D01*
X128608458Y-126794014D01*
X128513220Y-126841633D01*
X128417982Y-126841633D01*
X128084649Y-126841633D02*
X128084649Y-126174967D01*
X128084649Y-126365443D02*
X128037030Y-126270205D01*
X127989411Y-126222586D01*
X127894173Y-126174967D01*
X127798935Y-126174967D01*
X127465601Y-126841633D02*
X127465601Y-126174967D01*
X127465601Y-125841633D02*
X127513220Y-125889253D01*
X127465601Y-125936872D01*
X127417982Y-125889253D01*
X127465601Y-125841633D01*
X127465601Y-125936872D01*
X126560839Y-126794014D02*
X126656078Y-126841633D01*
X126846554Y-126841633D01*
X126941792Y-126794014D01*
X126989411Y-126746395D01*
X127037030Y-126651157D01*
X127037030Y-126365443D01*
X126989411Y-126270205D01*
X126941792Y-126222586D01*
X126846554Y-126174967D01*
X126656078Y-126174967D01*
X126560839Y-126222586D01*
X126132268Y-126841633D02*
X126132268Y-125841633D01*
X126037030Y-126460681D02*
X125751316Y-126841633D01*
X125751316Y-126174967D02*
X126132268Y-126555919D01*
X125322744Y-126841633D02*
X125322744Y-125841633D01*
X124894173Y-126841633D02*
X124894173Y-126317824D01*
X124941792Y-126222586D01*
X125037030Y-126174967D01*
X125179887Y-126174967D01*
X125275125Y-126222586D01*
X125322744Y-126270205D01*
X124037030Y-126794014D02*
X124132268Y-126841633D01*
X124322744Y-126841633D01*
X124417982Y-126794014D01*
X124465601Y-126698776D01*
X124465601Y-126317824D01*
X124417982Y-126222586D01*
X124322744Y-126174967D01*
X124132268Y-126174967D01*
X124037030Y-126222586D01*
X123989411Y-126317824D01*
X123989411Y-126413062D01*
X124465601Y-126508300D01*
X123560839Y-126174967D02*
X123560839Y-126841633D01*
X123560839Y-126270205D02*
X123513220Y-126222586D01*
X123417982Y-126174967D01*
X123275125Y-126174967D01*
X123179887Y-126222586D01*
X123132268Y-126317824D01*
X123132268Y-126841633D01*
X122275125Y-126794014D02*
X122370363Y-126841633D01*
X122560839Y-126841633D01*
X122656078Y-126794014D01*
X122703697Y-126698776D01*
X122703697Y-126317824D01*
X122656078Y-126222586D01*
X122560839Y-126174967D01*
X122370363Y-126174967D01*
X122275125Y-126222586D01*
X122227506Y-126317824D01*
X122227506Y-126413062D01*
X122703697Y-126508300D01*
X121798935Y-126841633D02*
X121798935Y-126174967D01*
X121798935Y-126365443D02*
X121751316Y-126270205D01*
X121703697Y-126222586D01*
X121608458Y-126174967D01*
X121513220Y-126174967D01*
X120465601Y-125794014D02*
X121322744Y-127079729D01*
X120132268Y-126841633D02*
X120132268Y-126174967D01*
X120132268Y-126365443D02*
X120084649Y-126270205D01*
X120037030Y-126222586D01*
X119941792Y-126174967D01*
X119846554Y-126174967D01*
X119084649Y-126174967D02*
X119084649Y-126841633D01*
X119513220Y-126174967D02*
X119513220Y-126698776D01*
X119465601Y-126794014D01*
X119370363Y-126841633D01*
X119227506Y-126841633D01*
X119132268Y-126794014D01*
X119084649Y-126746395D01*
X118608458Y-126841633D02*
X118608458Y-126174967D01*
X118608458Y-126270205D02*
X118560839Y-126222586D01*
X118465601Y-126174967D01*
X118322744Y-126174967D01*
X118227506Y-126222586D01*
X118179887Y-126317824D01*
X118179887Y-126841633D01*
X118179887Y-126317824D02*
X118132268Y-126222586D01*
X118037030Y-126174967D01*
X117894173Y-126174967D01*
X117798935Y-126222586D01*
X117751316Y-126317824D01*
X117751316Y-126841633D01*
X117275125Y-126841633D02*
X117275125Y-126174967D01*
X117275125Y-126270205D02*
X117227506Y-126222586D01*
X117132268Y-126174967D01*
X116989411Y-126174967D01*
X116894173Y-126222586D01*
X116846554Y-126317824D01*
X116846554Y-126841633D01*
X116846554Y-126317824D02*
X116798935Y-126222586D01*
X116703697Y-126174967D01*
X116560839Y-126174967D01*
X116465601Y-126222586D01*
X116417982Y-126317824D01*
X116417982Y-126841633D01*
X115941792Y-126841633D02*
X115941792Y-126174967D01*
X115941792Y-125841633D02*
X115989411Y-125889253D01*
X115941792Y-125936872D01*
X115894173Y-125889253D01*
X115941792Y-125841633D01*
X115941792Y-125936872D01*
X115465601Y-126841633D02*
X115465601Y-125841633D01*
X115370363Y-126460681D02*
X115084649Y-126841633D01*
X115084649Y-126174967D02*
X115465601Y-126555919D01*
X114227506Y-126174967D02*
X114227506Y-126841633D01*
X114656078Y-126174967D02*
X114656078Y-126698776D01*
X114608458Y-126794014D01*
X114513220Y-126841633D01*
X114370363Y-126841633D01*
X114275125Y-126794014D01*
X114227506Y-126746395D01*
X113751316Y-126841633D02*
X113751316Y-125841633D01*
X113751316Y-126222586D02*
X113656078Y-126174967D01*
X113465601Y-126174967D01*
X113370363Y-126222586D01*
X113322744Y-126270205D01*
X113275125Y-126365443D01*
X113275125Y-126651157D01*
X113322744Y-126746395D01*
X113370363Y-126794014D01*
X113465601Y-126841633D01*
X113656078Y-126841633D01*
X113751316Y-126794014D01*
X112846554Y-126460681D02*
X112084649Y-126460681D01*
X111751316Y-126174967D02*
X111370363Y-126174967D01*
X111608458Y-125841633D02*
X111608458Y-126698776D01*
X111560839Y-126794014D01*
X111465601Y-126841633D01*
X111370363Y-126841633D01*
X111037030Y-126841633D02*
X111037030Y-126174967D01*
X111037030Y-125841633D02*
X111084649Y-125889253D01*
X111037030Y-125936872D01*
X110989411Y-125889253D01*
X111037030Y-125841633D01*
X111037030Y-125936872D01*
X110560839Y-126841633D02*
X110560839Y-126174967D01*
X110560839Y-126270205D02*
X110513220Y-126222586D01*
X110417982Y-126174967D01*
X110275125Y-126174967D01*
X110179887Y-126222586D01*
X110132268Y-126317824D01*
X110132268Y-126841633D01*
X110132268Y-126317824D02*
X110084649Y-126222586D01*
X109989411Y-126174967D01*
X109846554Y-126174967D01*
X109751316Y-126222586D01*
X109703697Y-126317824D01*
X109703697Y-126841633D01*
X108846554Y-126794014D02*
X108941792Y-126841633D01*
X109132268Y-126841633D01*
X109227506Y-126794014D01*
X109275125Y-126698776D01*
X109275125Y-126317824D01*
X109227506Y-126222586D01*
X109132268Y-126174967D01*
X108941792Y-126174967D01*
X108846554Y-126222586D01*
X108798935Y-126317824D01*
X108798935Y-126413062D01*
X109275125Y-126508300D01*
X108370363Y-126841633D02*
X108370363Y-126174967D01*
X108370363Y-126365443D02*
X108322744Y-126270205D01*
X108275125Y-126222586D01*
X108179887Y-126174967D01*
X108084649Y-126174967D01*
M02*
